<svg width="51" height="54" fill="none" xmlns="http://www.w3.org/2000/svg"><path d="M16.726 20.33c-.782 0-1.66.09-2.442-.092-.78-.183-1.464-.55-2.148-.915a36.376 36.376 0 0 1-4.492-2.838c-.195-.183-.39-.275-.585-.55a1.46 1.46 0 0 1 .195-1.647c.879-1.282 2.734-1.556 4.394-1.74 7.323-.64 14.744-.732 22.166-.823h2.93c.487 0 .975 0 1.464.091 1.074.366 1.757 1.373 1.855 2.38.195 1.74-.781 3.387-1.562 4.943-.586 1.19-1.074 1.557-2.54 1.648-4.1.183-8.201-.183-12.303-.458-2.343 0-4.589-.091-6.933 0zM21.12 48.157c-.294-.457-.294-.915-.391-1.464-.391-3.021-.782-6.042-.684-9.063 0-.824-1.855-2.654-1.465-3.387.391-.732 3.223-.366 4.102-.274.878.091 1.562.732 1.855 1.464.293.733.293 1.556.293 2.38 0 3.204 0 6.5.097 9.704 0 .732.196 1.922-.683 2.288-.977.366-2.637-.824-3.125-1.648zM18.288 3.669c-.098.915-.098 1.83-.098 2.655 0 .457 0 .823.195 1.19.195.457.488.64.88.823.39.275.878.367 1.366.367.488 0 .977-.275 1.27-.641.585-.732.488-1.922.293-2.838L21.9 3.303c-.489-3.204-3.418-2.472-3.613.366zM31.568 23.808c3.027-.092 6.249-.183 8.983 1.007 1.074.457 1.953 1.098 2.832 1.83.195.183.39.458.488.733.098.64-.684 1.098-1.27 1.373-1.464.64-2.831 1.281-4.296 1.83-.879.367-1.757.733-2.636 1.008-1.074.366-2.246.457-3.418.549-4.101.366-8.202-.275-12.303 0-3.32.183-6.64.824-9.96.64-.39 0-.88-.09-1.172-.274-.293-.183-.488-.55-.586-.915-.879-2.38-2.246-7.232 1.855-7.232 4.59 0 9.081.091 13.67-.092 2.442-.091 5.079-.274 7.813-.457z" fill="#66D9F0" fill-opacity=".5"/><path d="M36.45 49.897l-1.758 1.648c-.39.366-.781.64-1.27.823-.487.183-1.171.092-1.464-.183 1.465-1.19 2.93-2.288 4.492-3.295.683-.092.39.64 0 1.007zM6.18 51.178c.195-.091.39 0 .585 0 .684.275 1.27.458 1.953.733.781.274 1.66 1.007 1.367 1.739-.39.64-1.367.275-1.953-.092L6.668 52.46c-.489-.366-.88-1.007-.489-1.282zM17.506 50.904c.195.274.293.55.195.824-.097.366-.585.457-.878.274-.293-.183-.489-.549-.684-.915h-.098c-.683-.366-1.171-1.099-1.171-1.922.976.091 1.953.732 2.636 1.739zM37.914 51.727c.879-.549 2.148-1.098 3.027-.366l-1.757 1.099c-.293.183-.684.366-1.075.366-.39 0-.78-.366-.585-.732l.39-.367zM50.51 26.462c-2.343-4.576-8.982-7.323-14.841-5.95 1.855-3.57 3.222-7.323 4.003-11.168.196-1.19.098-2.38-2.832-2.197-2.929.184-2.246.092-4.394.184-2.148.183-2.148-.092-2.343-2.472-.196-2.38.097-4.76-3.223-4.76-3.222 0-4.882-.275-7.323.091-.586.092-1.27.275-1.66.641-.293.366-.293.824-.293 1.19.098 1.923.098 3.845.195 5.767-3.417 0-6.933.275-10.253.916-3.417.64-6.444 2.929-7.42 5.675-.684 1.831 1.562 3.296 3.515 4.394 1.953 1.007 4.98 2.197 5.468 2.289.39.091.097 2.654 0 3.478-.098 2.472-.196 4.943-.39 7.415-.098 1.098 1.464 1.74 2.733 1.74 1.27-.092 2.54-.55 3.809-.642 1.269-.091 2.831.458 3.027 1.557.488 4.21.976 8.513 1.464 12.724-1.171-1.282-4.1-4.211-4.003-3.387l5.956 8.604c.39.55-1.074-12.266-2.05-18.674-.098-.64.976-.915 1.66-.915 1.952-.092 3.808-.092 5.76-.183.782 0 1.954.183 1.856.824-.39 5.858-.781 11.808-1.172 17.667 0 .64.293 1.556.977 1.373.39-.092.586-.366.78-.64 1.27-2.106 2.637-4.303 3.907-6.409.293-1.098-3.027 1.923-4.004 3.204.293-4.485.586-8.97.88-13.548.097-1.83 2.636-2.929 4.881-2.929 2.149 0 4.297.64 6.445.366 3.125-.366 5.664-2.38 7.91-4.302.683-.458 1.367-1.19.976-1.923zM18.972 2.022a.772.772 0 0 1 .488-.184c2.344-.366 4.785-.366 7.03.183.88.183 1.856.641 1.954 1.373.098.916.293 1.831.39 2.747 0 .274.098.549-.195.732-.195.091-.39.183-.683.183-2.344.183-4.785.366-7.129.458-.293 0-.683 0-.976-.092-.684-.275-.781-.915-.781-1.556-.098-1.099-.196-2.289-.196-3.387 0-.092 0-.275.098-.458zM2.664 16.026c-.195-.183-.293-.366-.39-.55-.098-.366.195-.732.488-1.098 1.464-1.83 2.148-3.387 4.59-4.12.976-.274 2.928-.365 3.905-.457 6.25-.274 12.792-.64 19.139-1.19 2.636-.275 7.812-.366 7.42 1.007-.487 2.655-1.269 5.035-2.44 7.598-.39.915-1.074 2.014-2.246 2.105-4.297.183-8.495.367-12.792.55-3.222.183-6.445.274-9.57-.183-3.026-.458-6.151-1.648-8.104-3.662zM48.07 27.836c-1.367 1.19-2.832 2.471-4.785 3.02-1.172.367-2.441.367-3.71.458-9.082.275-18.26.55-27.342.824-.585 0-1.367-.092-1.367-.64.098-2.38.098-4.76.196-7.233 0-.549.097-1.281.683-1.647.39-.183.88-.275 1.27-.275l26.657-.824c3.613-.091 6.347 2.563 8.495 5.035.196.183.391.458.293.732 0 .183-.195.366-.39.55z" fill="#005A7F"/></svg>