<svg width="54" height="54" fill="none" xmlns="http://www.w3.org/2000/svg"><path fill-rule="evenodd" clip-rule="evenodd" d="M24.438 23.326C20.707 17.63 10.721 6.21 1.889 11.102c-3.386 1.876-2.909 6.024 7.18 13.914 3.815 2.983 11.705-.094 15.032-.902l.337-.788zM27.821 14.878c6.766-4.941 9.328-8.514 17.052-9.745 2.846-.453 7.477-2.986 8.638-.338 2.614 5.96-5.72 20.625-13.967 17.744-4.055-1.417-7.366-4.431-11.05-6.647l-.673-1.014z" fill="#66D9F0" fill-opacity=".5"/><path fill-rule="evenodd" clip-rule="evenodd" d="M11.48 14.623c.266-.194.615-.118.921-.028 4.136 1.209 7.977 3.677 11.008 7.073.477.534.943 1.098 1.527 1.471-1.03-3.618-3.569-6.4-6.103-8.903-.787-.778-1.59-1.55-2.501-2.128-1.6-1.014-3.448-1.38-5.26-1.709-2.619-.474-5.295-.898-7.914-.421-.3.054-.484.43-.472.773.012.342.17.653.327.946 1.267 2.359 2.8 4.56 4.69 6.312 1.89 1.75 4.15 3.04 6.567 3.464.817.143 1.645.188 2.466.3.669.093 1.332.23 1.995.367l2.833.585c-2.462-2.872-5.78-4.585-9.077-6.042-.404-.179-.83-.372-1.094-.76-.264-.387-.277-1.036.087-1.3zm30.716-4.076c-4.23.33-8.386 1.802-12.022 4.261 2.362 1.705 4.873 3.466 7.675 3.581 2.883.12 5.641-1.576 7.663-3.897 2.02-2.322 3.415-5.231 4.737-8.123.38-.832.76-1.675.974-2.579.034-.143.063-.292.035-.437-.11-.564-.837-.484-1.327-.315-2.428.837-5.037.393-7.574.526-5.771.303-11.482 4.018-13.988 9.89 3.86-2.516 8.143-4.36 12.594-4.662.523-.035 1.109-.025 1.49.382.38.408.266 1.332-.258 1.373zm-17.187 17.03c-.722-1.492-2.317-2.115-3.793-2.466-3.177-.755-6.487-.843-9.566-2.006C6.593 21.194 2.617 16.465.385 11-.037 9.969-.287 8.483.588 7.92c.294-.19.648-.21.986-.224 5.016-.223 10.252-.399 14.807 1.982 3.905 2.042 6.915 5.783 9.363 9.777-.483-5.282 2.03-10.57 5.79-13.767 3.758-3.197 8.589-4.487 13.296-4.465 1.716.008 3.495.167 5.088-.55.618-.28 1.222-.692 1.887-.672 1.166.034 1.993 1.45 1.991 2.766-.002 1.316-.595 2.527-1.171 3.67-.842 1.67-1.685 3.342-2.584 4.974-1.995 3.62-4.473 7.221-8.02 8.69-4.407 1.824-9.39-.128-13.27-3.109-.507-.389-.963.573-.993 1.263L26.816 40.1c-.041.959.07 2.182.88 2.474.997.359 1.492 1.61 2.328 2.32 1.166.992 2.777.795 4.235.89 2.966.195 5.885 1.928 7.468 4.764.481.862.833 1.99.378 2.87-.455.88-1.989.74-1.978-.278.021-2.11-1.638-3.79-3.374-4.573a8.583 8.583 0 0 0-5.817-.457c-.34.094-.69.21-1.035.14-.806-.164-1.168-1.19-1.594-1.978-.84-1.553-2.443-2.539-4.055-2.494-1.611.044-3.17 1.119-3.94 2.716-.365.755-.66 1.713-1.396 1.944-.53.167-1.077-.132-1.6-.33-2.804-1.07-6.214 1.224-6.713 4.516-.078.51-.814.52-1.069.089-.254-.43-.154-1.007-.004-1.496 1.076-3.515 4.467-5.927 7.743-5.51.562.073 1.267.147 1.559-.4 1.107-2.07 3.199-3.425 5.343-3.459.715-.01.955-1.072.981-1.878l.287-8.96c.038-1.17.063-2.404-.434-3.432z" fill="#007398"/></svg>