<svg width="55" height="48" fill="none" xmlns="http://www.w3.org/2000/svg"><path fill-rule="evenodd" clip-rule="evenodd" d="M49.534 3.29C43.694-1.683 34.962-.858 29.54 4.735L27.43 6.92l-2.11-2.175C20.947.225 12.13-2.497 5.325 3.29c-6.728 5.743-7.082 16.05-1.06 22.265L24.998 46.96A3.371 3.371 0 0 0 27.419 48a3.33 3.33 0 0 0 2.422-1.04l20.732-21.407c6.043-6.214 5.69-16.521-1.04-22.264zM48.13 23.174L27.473 44.582 6.73 23.175c-4.114-4.243-4.972-12.332.825-17.272 5.871-5.014 12.771-1.382 15.3 1.233l4.575 4.724 4.575-4.724c2.486-2.572 9.45-6.215 15.3-1.233 5.786 4.929 4.94 13.018.825 17.272zm-22.416-6.032a1.714 1.714 0 1 1 3.43 0v3.428h3.428a1.714 1.714 0 1 1 0 3.43h-3.429v6.856a1.714 1.714 0 1 1-3.428 0V24h-3.43a1.714 1.714 0 1 1 0-3.428h3.43v-3.43z" fill="#007398"/></svg>