<svg xmlns="http://www.w3.org/2000/svg" width="380" height="90" fill="none" viewBox="0 0 203 42"><g stroke="#3CC8E6" stroke-linecap="round" stroke-linejoin="round" stroke-width="2"><path d="M17.55 25.69a7.03 7.03 0 100-14.06 7.03 7.03 0 000 14.06z"/><path d="M24.05 40.33a19.33 19.33 0 100-38.66 19.33 19.33 0 000 38.66zM29.18 39.64a11.6 11.6 0 00-20.42-6.81"/><path d="M33.43 25.69a4.69 4.69 0 100-9.38 4.69 4.69 0 000 9.38zM39.99 31.94a7.73 7.73 0 00-13.27 1.22"/></g><path fill="#3CC8E6" d="M59.4 26.02a4.42 4.42 0 01-4.31-2.92 6.27 6.27 0 01-.37-2.25 6 6 0 01.39-2.22c.26-.66.6-1.22 1.04-1.67.43-.46.93-.8 1.51-1.04a4.76 4.76 0 011.83-.36c.65 0 1.23.14 1.74.4.52.26.95.57 1.29.92l-1.2 1.45a3.57 3.57 0 00-.83-.57 2.15 2.15 0 00-1.93 0c-.3.14-.56.36-.79.63-.22.28-.4.62-.53 1.03-.12.4-.18.85-.18 1.36 0 1.04.22 1.85.66 2.42.45.57 1.04.85 1.78.85.41 0 .78-.08 1.1-.26.33-.18.62-.41.87-.68l1.2 1.42a4.1 4.1 0 01-3.26 1.49zm8.14-5.29l-.25.93h2.15l-.23-.93c-.15-.5-.29-1.04-.42-1.6a96.4 96.4 0 00-.4-1.65h-.07a316.66 316.66 0 01-.78 3.25zm-3.65 5.1l3.15-10.08h2.74l3.15 10.08h-2.41l-.62-2.4h-3.08l-.61 2.4zm11.11 0V15.75h2.49l1.62 4.48.3.93.3.93h.05c.1-.3.2-.62.28-.93l.3-.93 1.59-4.48h2.47v10.08h-2.07v-3.7a11.94 11.94 0 01.1-1.71 127.87 127.87 0 01.2-1.72h-.07l-.82 2.4-1.44 3.85h-1.25l-1.44-3.85-.8-2.4h-.06a39.06 39.06 0 01.18 1.72 26.48 26.48 0 01.11 1.72v3.7zm12.75 0V15.75h3.46c.56 0 1.08.06 1.56.17.49.1.9.28 1.27.54.36.25.64.58.85 1 .22.42.32.93.32 1.54 0 .59-.1 1.1-.32 1.53-.2.43-.5.79-.85 1.07-.36.27-.78.48-1.25.61-.48.14-.98.2-1.52.2h-1.25v3.42zm2.27-5.22h1.11c1.24 0 1.86-.54 1.86-1.61 0-.53-.17-.9-.5-1.12a2.6 2.6 0 00-1.42-.32h-1.05zM101.9 26c-1.31 0-2.31-.38-3-1.15-.7-.78-1.04-2-1.04-3.7v-5.41h2.29v5.64c0 1 .15 1.68.45 2.08.3.39.73.58 1.3.58.56 0 1-.2 1.31-.58s.47-1.09.47-2.08v-5.64h2.2v5.41c0 1.7-.35 2.92-1.03 3.7-.67.77-1.65 1.16-2.95 1.16zm10.2 0a5.27 5.27 0 01-3.73-1.45l1.3-1.56c.36.31.76.56 1.2.76.44.2.87.3 1.3.3.47 0 .82-.1 1.04-.27a.84.84 0 00.36-.71.8.8 0 00-.4-.7 19.31 19.31 0 00-1.05-.51l-1.32-.55a3.75 3.75 0 01-1.4-.97 2.8 2.8 0 01.39-3.9c.31-.28.69-.5 1.12-.65a4.63 4.63 0 014.7 1.1l-1.16 1.43a4.18 4.18 0 00-.99-.59c-.33-.14-.7-.21-1.1-.21-.39 0-.7.08-.94.25a.76.76 0 00-.34.66c0 .16.04.29.1.4.09.1.2.2.33.3a5.48 5.48 0 001.1.5l1.3.52c.62.24 1.1.58 1.45 1.02.36.43.54 1 .54 1.71a2.85 2.85 0 01-1 2.2c-.32.28-.72.5-1.2.68-.47.17-1 .25-1.6.25zm14.75 0a4.43 4.43 0 01-4.31-2.92 6.27 6.27 0 01-.38-2.24c0-.83.13-1.57.39-2.22.26-.66.6-1.22 1.04-1.67.43-.46.93-.8 1.51-1.04a4.76 4.76 0 011.83-.36c.65 0 1.23.14 1.74.4.52.26.95.57 1.29.92l-1.2 1.45a3.55 3.55 0 00-.83-.57 2.15 2.15 0 00-1.93 0c-.3.14-.56.36-.79.63-.22.28-.4.62-.53 1.02-.12.4-.18.86-.18 1.37 0 1.04.22 1.85.66 2.42.45.57 1.04.85 1.78.85.41 0 .78-.08 1.1-.26.33-.18.62-.41.87-.68l1.2 1.42a4.1 4.1 0 01-3.26 1.49zm9.28 0a4.15 4.15 0 01-3.3-1.4c-.4-.45-.72-1-.95-1.65-.21-.65-.32-1.39-.32-2.22s.1-1.55.32-2.2c.23-.64.54-1.18.94-1.61.4-.45.89-.78 1.44-1.01a4.8 4.8 0 011.87-.36c.68 0 1.3.12 1.86.36.57.23 1.05.56 1.45 1 .4.45.71 1 .93 1.64.23.64.34 1.37.34 2.18 0 .83-.11 1.57-.34 2.22a4.23 4.23 0 01-4.24 3.06zm0-1.96c.7 0 1.24-.29 1.64-.88.4-.6.6-1.4.6-2.43 0-1-.2-1.8-.6-2.36s-.94-.85-1.64-.85c-.69 0-1.23.28-1.64.85s-.6 1.35-.6 2.36c0 1.03.2 1.83.6 2.43.4.59.95.88 1.64.88zm7.44 1.78V15.75h2.34l2.63 5.01.99 2.23h.06c-.05-.54-.11-1.14-.19-1.8-.06-.66-.09-1.29-.09-1.88v-3.56h2.16v10.08h-2.33l-2.63-5.02-.99-2.2h-.06l.17 1.8c.07.63.1 1.25.1 1.85v3.57zm13.22 0v-8.16h-2.77v-1.92h7.82v1.92h-2.76v8.16zm9.34-5.1l-.25.93h2.15l-.23-.93-.42-1.6-.4-1.65h-.06a288.87 288.87 0 01-.79 3.25zm-3.65 5.1l3.16-10.08h2.73l3.16 10.08h-2.42l-.61-2.4h-3.08l-.62 2.4zm15.17.19a4.42 4.42 0 01-4.31-2.92 6.27 6.27 0 01-.38-2.25 6 6 0 01.4-2.22c.25-.66.6-1.22 1.03-1.67s.94-.8 1.51-1.04a4.75 4.75 0 011.83-.36c.65 0 1.23.14 1.75.4.51.26.94.57 1.28.92l-1.2 1.45a3.59 3.59 0 00-.83-.57 2.15 2.15 0 00-1.93 0c-.3.14-.56.36-.79.63-.22.28-.4.62-.52 1.02-.13.4-.19.86-.19 1.37 0 1.04.22 1.85.66 2.42.45.57 1.04.85 1.78.85.41 0 .78-.08 1.1-.26.33-.18.62-.41.87-.68l1.2 1.42a4.1 4.1 0 01-3.26 1.49zm7.54-.19v-8.16h-2.76v-1.92h7.82v1.92h-2.77v8.16zm10.28.19a5.27 5.27 0 01-3.73-1.45l1.3-1.57c.37.31.76.56 1.2.76.44.2.87.3 1.3.3.47 0 .82-.1 1.05-.27a.84.84 0 00.35-.71.8.8 0 00-.4-.7 18.3 18.3 0 00-1.05-.51l-1.32-.55a3.83 3.83 0 01-1.4-.97 2.86 2.86 0 01-.45-.78 2.82 2.82 0 01.83-3.12c.32-.28.7-.5 1.13-.65a4.63 4.63 0 014.7 1.1l-1.16 1.43a4.16 4.16 0 00-.99-.59c-.33-.14-.7-.21-1.1-.21-.39 0-.7.08-.94.25a.76.76 0 00-.34.66c0 .16.04.29.11.4.08.1.2.2.32.3a5.48 5.48 0 001.1.5l1.3.52c.62.24 1.1.58 1.46 1.02.36.43.54 1 .54 1.71a2.86 2.86 0 01-1 2.2c-.33.28-.72.5-1.2.68-.47.17-1 .25-1.6.25z"/></svg>