<?xml version="1.0" encoding="UTF-8"?>
<svg width="380" height="90" fill="none" version="1.1" viewBox="0 0 203 42" xmlns="http://www.w3.org/2000/svg">
 <g stroke="#3CC8E6" stroke-linecap="round" stroke-linejoin="round" stroke-width="2">
  <path d="m17.55 25.686c3.8819 0 7.0289-3.1469 7.0289-7.0288 0-3.8819-3.147-7.0288-7.0289-7.0288-3.8819 0-7.0288 3.1469-7.0288 7.0288 0 3.8819 3.1469 7.0288 7.0288 7.0288z"/>
  <path d="m24.052 40.329c10.675 0 19.329-8.654 19.329-19.329s-8.654-19.329-19.329-19.329-19.329 8.654-19.329 19.329 8.654 19.329 19.329 19.329z"/>
  <path d="m29.185 39.639c-0.13676-2.3127-0.96299-4.5314-2.3724-6.3701-1.4094-1.8388-3.3372-3.2132-5.535-3.9461-2.1977-0.73287-4.5647-0.79067-6.7956-0.16585-2.2308 0.62472-4.2234 1.9035-5.7209 3.6712"/>
  <path d="m33.426 25.686c2.5879 0 4.6859-2.098 4.6859-4.6859 0-2.588-2.098-4.6859-4.6859-4.6859s-4.6859 2.0979-4.6859 4.6859c0 2.5879 2.098 4.6859 4.6859 4.6859z"/>
  <path d="m39.987 31.941c-0.78641-1.0909-1.8438-1.9579-3.0678-2.5152-1.224-0.55726-2.5722-0.78574-3.9114-0.66271-1.3391 0.12303-2.6232 0.59322-3.7251 1.3642-1.102 0.77095-1.9838 1.816-2.5583 3.0319"/>
 </g>
 <path d="m59.409 26.018c-0.63912 0-1.2422-0.10824-1.8092-0.32473-0.56703-0.22683-1.067-0.55668-1.5-0.98966-0.42264-0.43298-0.75771-0.96908-1.0051-1.6082-0.24742-0.64947-0.37112-1.3968-0.37112-2.2422 0-0.83503 0.12883-1.5773 0.38659-2.2267 0.25776-0.65981 0.60308-1.2165 1.0361-1.6701 0.43298-0.45356 0.93815-0.79898 1.5154-1.0361 0.57727-0.23707 1.1856-0.35566 1.8247-0.35566 0.64947 0 1.232 0.13405 1.7474 0.40205 0.51542 0.25776 0.94327 0.56181 1.2835 0.91234l-1.2062 1.4536c-0.25776-0.23707-0.53088-0.42786-0.81956-0.57215-0.27834-0.15464-0.59795-0.23195-0.95874-0.23195-0.3402 0-0.66493 0.07732-0.9742 0.23195-0.29893 0.14429-0.56181 0.35566-0.78864 0.634-0.21649 0.27834-0.39171 0.61854-0.52576 1.0206-0.12371 0.40205-0.18556 0.85561-0.18556 1.3608 0 1.0412 0.22161 1.8505 0.66493 2.4278 0.44332 0.56703 1.0361 0.85049 1.7783 0.85049 0.41239 0 0.7783-0.08766 1.0979-0.26288 0.32986-0.18556 0.61854-0.41239 0.86595-0.68039l1.2062 1.4226c-0.84537 0.98966-1.9329 1.4845-3.2628 1.4845zm8.1265-5.2885-0.24742 0.92781h2.1494l-0.23195-0.92781c-0.14429-0.50517-0.28346-1.0412-0.41751-1.6082-0.13405-0.56703-0.268-1.1134-0.40205-1.6391h-0.06185c-0.12371 0.5361-0.25254 1.0876-0.38659 1.6546-0.12371 0.55668-0.25776 1.0876-0.40205 1.5927zm-3.6494 5.1029 3.1545-10.082h2.737l3.1545 10.082h-2.4123l-0.61854-2.3968h-3.0772l-0.61854 2.3968zm11.114 0v-10.082h2.4896l1.6237 4.4844c0.10303 0.29893 0.20103 0.6082 0.29381 0.92781 0.09278 0.30927 0.19068 0.61854 0.29381 0.92781h0.06185c0.10302-0.30927 0.19581-0.61854 0.27834-0.92781 0.09278-0.31961 0.19068-0.62888 0.2938-0.92781l1.5927-4.4844h2.4742v10.082h-2.0721v-3.6958c0-0.24742 0.01024-0.52064 0.03093-0.81956 0.02058-0.29893 0.04639-0.59795 0.07732-0.89688 0.03093-0.30927 0.06185-0.6082 0.09278-0.89688 0.03093-0.29893 0.06185-0.57215 0.09278-0.81956h-0.06185l-0.81956 2.3968-1.4381 3.8504h-1.2525l-1.4381-3.8504-0.8041-2.3968h-0.06185c0.03093 0.24742 0.06185 0.52064 0.09278 0.81956 0.03093 0.28868 0.06185 0.58761 0.09278 0.89688 0.03093 0.29893 0.05663 0.59795 0.07732 0.89688 0.02059 0.29893 0.03093 0.57215 0.03093 0.81956v3.6958zm12.745 0v-10.082h3.4638c0.55668 0 1.0772 0.05673 1.5618 0.1701 0.48449 0.10312 0.90713 0.28346 1.268 0.54122 0.36078 0.24742 0.64425 0.58249 0.85049 1.0051 0.21649 0.41239 0.32473 0.92268 0.32473 1.5309 0 0.58761-0.10824 1.0979-0.32473 1.5309-0.20624 0.43298-0.48971 0.78864-0.85049 1.067-0.36088 0.27834-0.77839 0.48449-1.2525 0.61854-0.47425 0.13405-0.97942 0.20102-1.5154 0.20102h-1.2525v3.4174zm2.2731-5.2267h1.1134c1.2371 0 1.8556-0.5361 1.8556-1.6082 0-0.52576-0.16498-0.89688-0.49483-1.1134-0.32995-0.21649-0.8041-0.32473-1.4226-0.32473h-1.0515zm11.879 5.4122c-1.3096 0-2.3091-0.38659-2.9998-1.1598-0.69064-0.77317-1.0361-2.0051-1.0361-3.6958v-5.4122h2.2886v5.6442c0 0.98966 0.14951 1.6804 0.44834 2.0721 0.29864 0.39171 0.73162 0.58761 1.2989 0.58761 0.56732 0 1.0051-0.1959 1.3144-0.58761s0.4639-1.0824 0.4639-2.0721v-5.6442h2.1958v5.4122c0 1.6906-0.34019 2.9226-1.0206 3.6958-0.66976 0.77317-1.6546 1.1598-2.9535 1.1598zm10.203 0c-0.6601 0-1.3202-0.11858-1.9793-0.35566-0.64947-0.24742-1.2322-0.61342-1.7474-1.0979l1.2989-1.5618c0.36049 0.30927 0.75771 0.56181 1.1907 0.75771 0.44264 0.1959 0.87562 0.29381 1.2989 0.29381 0.47357 0 0.8244-0.08766 1.0515-0.26288 0.23678-0.17522 0.35566-0.41239 0.35566-0.71132 0-0.15463-0.0367-0.28868-0.10824-0.40205-0.0619-0.11337-0.16044-0.21137-0.29381-0.29381-0.12371-0.09278-0.27834-0.17522-0.4639-0.24742-0.1759-0.08244-0.37113-0.1701-0.58762-0.26288l-1.3144-0.55668c-0.25805-0.10312-0.5103-0.23707-0.75771-0.40205-0.23775-0.16498-0.45424-0.35566-0.64947-0.57215-0.18556-0.22683-0.33536-0.48449-0.44844-0.77317-0.11404-0.29893-0.1701-0.634-0.1701-1.0051 0-0.41239 0.087-0.79898 0.26288-1.1598 0.17493-0.37112 0.42235-0.69073 0.74225-0.95874 0.31893-0.27834 0.69586-0.49483 1.1288-0.64947 0.44265-0.15464 0.92781-0.23195 1.4536-0.23195 0.58761 0 1.1646 0.11337 1.7319 0.3402 0.57698 0.22683 1.0824 0.55668 1.5154 0.98966l-1.1598 1.4381c-0.33053-0.25776-0.6601-0.45356-0.98966-0.58761-0.33054-0.14429-0.69586-0.21649-1.0979-0.21649-0.39239 0-0.70649 0.08244-0.94327 0.24742-0.22712 0.15464-0.3402 0.37624-0.3402 0.66493 0 0.15464 0.0358 0.28868 0.10825 0.40205 0.0821 0.10312 0.19039 0.20102 0.32473 0.29381 0.144 0.08244 0.30927 0.16498 0.49483 0.24742 0.18556 0.0722 0.38659 0.15463 0.60307 0.24742l1.2989 0.52576c0.61853 0.24742 1.1027 0.58761 1.4536 1.0206 0.36049 0.43298 0.54122 1.0051 0.54122 1.7164 0 0.42264-0.0879 0.82469-0.26384 1.2062-0.1643 0.37112-0.41172 0.70098-0.74128 0.98966-0.3199 0.27834-0.71712 0.50517-1.1907 0.68039-0.47453 0.16498-1.0109 0.24742-1.6082 0.24742zm14.749 0c-0.63884 0-1.2419-0.10824-1.8092-0.32473-0.56635-0.22683-1.067-0.55668-1.5-0.98966-0.42235-0.43298-0.75771-0.96908-1.0051-1.6082-0.24741-0.64947-0.37112-1.3968-0.37112-2.2422 0-0.83503 0.12951-1.5773 0.38659-2.2267 0.25804-0.65981 0.60307-1.2165 1.036-1.6701 0.43297-0.45356 0.93844-0.79898 1.5154-1.0361 0.57794-0.23707 1.1858-0.35566 1.8247-0.35566 0.64946 0 1.2322 0.13405 1.7474 0.40205 0.51609 0.25776 0.94327 0.56181 1.2835 0.91234l-1.2062 1.4536c-0.25708-0.23707-0.53059-0.42786-0.81957-0.57215-0.27834-0.15464-0.59727-0.23195-0.95873-0.23195-0.3402 0-0.66493 0.07732-0.9742 0.23195-0.29864 0.14429-0.56152 0.35566-0.78864 0.634-0.21649 0.27834-0.39142 0.61854-0.52576 1.0206-0.1237 0.40205-0.18556 0.85561-0.18556 1.3608 0 1.0412 0.22229 1.8505 0.66493 2.4278 0.44361 0.56703 1.036 0.85049 1.7783 0.85049 0.41268 0 0.77897-0.08766 1.0979-0.26288 0.33053-0.18556 0.61853-0.41239 0.86595-0.68039l1.2062 1.4226c-0.84469 0.98966-1.9329 1.4845-3.2628 1.4845zm9.2848 0c-0.6804 0-1.3038-0.11858-1.8711-0.35566-0.55669-0.24742-1.0361-0.59795-1.4381-1.0515s-0.71615-1.0051-0.94327-1.6546c-0.21649-0.64947-0.32473-1.3866-0.32473-2.2113s0.10824-1.5567 0.32473-2.1958c0.22712-0.64946 0.54122-1.1907 0.94327-1.6237 0.40205-0.44332 0.88142-0.7783 1.4381-1.0051 0.56731-0.23707 1.1907-0.35566 1.8711-0.35566 0.68039 0 1.2989 0.11859 1.8556 0.35566 0.56732 0.22683 1.0515 0.56181 1.4536 1.0051 0.40205 0.44332 0.71132 0.98966 0.92781 1.6391 0.22712 0.63912 0.34019 1.3659 0.34019 2.1803 0 0.82469-0.11307 1.5618-0.34019 2.2113-0.21649 0.64946-0.52576 1.201-0.92781 1.6546s-0.88625 0.8041-1.4536 1.0515c-0.55668 0.23707-1.1752 0.35566-1.8556 0.35566zm0-1.9639c0.69102 0 1.2371-0.29381 1.6391-0.88142 0.40205-0.59795 0.60308-1.4072 0.60308-2.4278 0-1.0102-0.20103-1.7989-0.60308-2.3659s-0.9481-0.85049-1.6391-0.85049c-0.69103 0-1.2371 0.28346-1.6391 0.85049s-0.60308 1.3557-0.60308 2.3659c0 1.0206 0.20103 1.8298 0.60308 2.4278 0.40205 0.58761 0.9481 0.88142 1.6391 0.88142zm7.4399 1.7783v-10.082h2.335l2.6288 5.0102 0.98966 2.2267h0.0619c-0.0522-0.5361-0.11405-1.134-0.18557-1.7938-0.0618-0.65981-0.0928-1.2886-0.0928-1.8865v-3.5566h2.1639v10.082h-2.334l-2.6288-5.0256-0.98966-2.1958h-0.0618c0.0512 0.55668 0.10824 1.1546 0.1701 1.7938 0.0715 0.63912 0.10824 1.2577 0.10824 1.8556v3.5721zm13.214 0v-8.1647h-2.768v-1.9175h7.8245v1.9175h-2.768v8.1647zm9.3419-5.1029-0.24742 0.92781h2.1494l-0.23195-0.92781c-0.144-0.50517-0.28317-1.0412-0.41751-1.6082s-0.26771-1.1134-0.40205-1.6391h-0.0619c-0.1237 0.5361-0.25224 1.0876-0.38658 1.6546-0.12371 0.55668-0.25805 1.0876-0.40205 1.5927zm-3.6494 5.1029 3.1546-10.082h2.737l3.1546 10.082h-2.4123l-0.61854-2.3968h-3.0772l-0.61854 2.3968zm15.17 0.18556c-0.6398 0-1.2429-0.10824-1.8092-0.32473-0.56731-0.22683-1.067-0.55668-1.5-0.98966-0.42331-0.43298-0.75771-0.96908-1.0051-1.6082-0.24741-0.64947-0.37112-1.3968-0.37112-2.2422 0-0.83503 0.12854-1.5773 0.38659-2.2267 0.25708-0.65981 0.60307-1.2165 1.036-1.6701s0.93747-0.79898 1.5154-1.0361c0.57698-0.23707 1.1849-0.35566 1.8247-0.35566 0.64946 0 1.2313 0.13405 1.7474 0.40205 0.51513 0.25776 0.94327 0.56181 1.2835 0.91234l-1.2062 1.4536c-0.25805-0.23707-0.53156-0.42786-0.81957-0.57215-0.27834-0.15464-0.59824-0.23195-0.95873-0.23195-0.3402 0-0.66493 0.07732-0.9742 0.23195-0.29961 0.14429-0.56248 0.35566-0.78864 0.634-0.21649 0.27834-0.39238 0.61854-0.52576 1.0206-0.1237 0.40205-0.18556 0.85561-0.18556 1.3608 0 1.0412 0.22132 1.8505 0.66493 2.4278 0.44264 0.56703 1.036 0.85049 1.7783 0.85049 0.41172 0 0.77801-0.08766 1.0979-0.26288 0.32956-0.18556 0.61854-0.41239 0.86595-0.68039l1.2062 1.4226c-0.84566 0.98966-1.9329 1.4845-3.2628 1.4845zm7.5433-0.18556v-8.1647h-2.768v-1.9175h7.8245v1.9175h-2.768v8.1647zm10.279 0.18556c-0.66009 0-1.3192-0.11858-1.9793-0.35566-0.64947-0.24742-1.2322-0.61342-1.7474-1.0979l1.2989-1.5618c0.36049 0.30927 0.75771 0.56181 1.1907 0.75771 0.4436 0.1959 0.87658 0.29381 1.2989 0.29381 0.47453 0 0.82439-0.08766 1.0515-0.26288 0.23679-0.17522 0.35566-0.41239 0.35566-0.71132 0-0.15463-0.0358-0.28868-0.10824-0.40205-0.0619-0.11337-0.15947-0.21137-0.29381-0.29381-0.12371-0.09278-0.27834-0.17522-0.4639-0.24742-0.17493-0.08244-0.37112-0.1701-0.58761-0.26288l-1.3144-0.55668c-0.25804-0.10312-0.51029-0.23707-0.75771-0.40205-0.23678-0.16498-0.45327-0.35566-0.64946-0.57215-0.18557-0.22683-0.33537-0.48449-0.44844-0.77317-0.11308-0.29893-0.1701-0.634-0.1701-1.0051 0-0.41239 0.088-0.79898 0.26288-1.1598 0.17493-0.37112 0.42234-0.69073 0.74224-0.95874 0.3199-0.27834 0.69586-0.49483 1.1288-0.64947 0.4436-0.15464 0.9278-0.23195 1.4536-0.23195 0.58761 0 1.1646 0.11337 1.7319 0.3402 0.57698 0.22683 1.0824 0.55668 1.5154 0.98966l-1.1598 1.4381c-0.32956-0.25776-0.6601-0.45356-0.98966-0.58761-0.32957-0.14429-0.69586-0.21649-1.0979-0.21649-0.39142 0-0.70648 0.08244-0.94327 0.24742-0.22712 0.15464-0.3402 0.37624-0.3402 0.66493 0 0.15464 0.0358 0.28868 0.10825 0.40205 0.0821 0.10312 0.19039 0.20102 0.32473 0.29381 0.14401 0.08244 0.30927 0.16498 0.49483 0.24742 0.18556 0.0722 0.38659 0.15463 0.60308 0.24742l1.2989 0.52576c0.61854 0.24742 1.1027 0.58761 1.4536 1.0206 0.3605 0.43298 0.54123 1.0051 0.54123 1.7164 0 0.42264-0.0879 0.82469-0.26288 1.2062-0.16527 0.37112-0.41268 0.70098-0.74225 0.98966-0.3199 0.27834-0.71615 0.50517-1.1907 0.68039-0.47453 0.16498-1.01 0.24742-1.6082 0.24742z" fill="#3CC8E6" stroke-width=".96647"/>
</svg>
