<svg width="120" height="120" viewBox="0 0 120 120" fill="none" xmlns="http://www.w3.org/2000/svg">
    <path fill-rule="evenodd" clip-rule="evenodd" d="M60 5.71429C30.0188 5.71429 5.71429 30.0188 5.71429 60C5.71429 71.3013 9.1677 81.7961 15.0768 90.4865C19.5067 86.1831 24.9551 83.0384 30.9388 81.3626C38.0836 79.3616 45.664 79.5467 52.7026 81.8939C58.2867 83.756 63.3267 86.9113 67.4251 91.0763C69.1544 88.5781 71.3193 86.3968 73.827 84.6424C77.4918 82.0783 81.7621 80.5145 86.2161 80.1054C90.6701 79.6963 95.1537 80.456 99.2243 82.3096C102.048 83.5954 104.605 85.3768 106.78 87.5586C111.549 79.4807 114.286 70.0599 114.286 60C114.286 30.0188 89.9811 5.71429 60 5.71429ZM103.53 92.4406C101.68 90.3542 99.408 88.672 96.8563 87.5101C93.6902 86.0684 90.2029 85.4775 86.7387 85.7957C83.2745 86.1139 79.9532 87.3302 77.1028 89.3245C74.7147 90.9953 72.7263 93.1638 71.2701 95.673C74.5781 100.348 76.7545 105.717 77.6411 111.355C88.0695 107.773 97.063 101.105 103.53 92.4406ZM65.5377 97.5518C65.6125 97.6622 65.6953 97.7677 65.7858 97.8675C65.822 97.9142 65.8581 97.961 65.8941 98.0079C69.2358 102.368 71.3679 107.516 72.0969 112.933C68.2069 113.818 64.158 114.286 60 114.286C43.3905 114.286 28.5232 106.826 18.5655 95.0748C22.3992 91.1821 27.1925 88.3459 32.4798 86.8652C38.5253 85.1721 44.9393 85.3287 50.8949 87.3147C56.6674 89.2397 61.7528 92.7978 65.5377 97.5518ZM12.6352 96.8362C23.6142 110.933 40.7482 120 60 120C93.1371 120 120 93.1371 120 60C120 26.8629 93.1371 0 60 0C26.8629 0 0 26.8629 0 60C0 73.7727 4.6405 86.4616 12.4432 96.5884C12.5022 96.6738 12.5662 96.7566 12.6352 96.8362ZM40.7794 35.1513C30.8813 35.1513 22.8573 43.1753 22.8573 53.0734C22.8573 62.9715 30.8813 70.9955 40.7794 70.9955C50.6775 70.9955 58.7015 62.9715 58.7015 53.0734C58.7015 43.1753 50.6775 35.1513 40.7794 35.1513ZM17.143 53.0734C17.143 40.0194 27.7254 29.437 40.7794 29.437C53.8334 29.437 64.4157 40.0194 64.4157 53.0734C64.4157 66.1274 53.8334 76.7098 40.7794 76.7098C27.7254 76.7098 17.143 66.1274 17.143 53.0734ZM87.7119 49.0041C81.6392 49.0041 76.7163 53.927 76.7163 59.9997C76.7163 66.0725 81.6392 70.9954 87.7119 70.9954C93.7847 70.9954 98.7076 66.0725 98.7076 59.9997C98.7076 53.927 93.7847 49.0041 87.7119 49.0041ZM71.002 59.9997C71.002 50.7711 78.4833 43.2898 87.7119 43.2898C96.9406 43.2898 104.422 50.7711 104.422 59.9997C104.422 69.2284 96.9406 76.7097 87.7119 76.7097C78.4833 76.7097 71.002 69.2284 71.002 59.9997Z" fill="#3CC8E6"/>
</svg>
