<svg xmlns="http://www.w3.org/2000/svg" fill="none" viewBox="0 0 120 120"><path fill="#3CC8E6" fill-rule="evenodd" d="M60 5.71A54.29 54.29 0 0015.08 90.5a37.14 37.14 0 0152.35.59 25.71 25.71 0 0139.35-3.52A54.29 54.29 0 0060 5.72zm43.53 86.73a20 20 0 00-32.26 3.23 37.14 37.14 0 016.37 15.69 54.4 54.4 0 0025.89-18.92zm-38 5.11l.26.32.1.14a31.43 31.43 0 016.2 14.92A54.48 54.48 0 0160 114.3a54.17 54.17 0 01-41.43-19.22 31.42 31.42 0 0146.97 2.48zm-52.9-.71a60 60 0 1094.73-73.67 60 60 0 00-94.72 73.67zm28.15-61.69a17.92 17.92 0 100 35.85 17.92 17.92 0 000-35.85zM17.14 53.07a23.64 23.64 0 1147.28 0 23.64 23.64 0 01-47.28 0zM87.71 49a11 11 0 100 22 11 11 0 000-22zm-16.7 11a16.71 16.71 0 1133.41 0A16.71 16.71 0 0171 60z" clip-rule="evenodd"/></svg>