<svg width="72" height="72" viewBox="0 0 72 72" fill="none" xmlns="http://www.w3.org/2000/svg">
<path fill-rule="evenodd" clip-rule="evenodd" d="M61.3914 2.58447C64.7735 2.0083 68.318 3.94003 70.0993 6.9483C71.8806 9.95648 71.9935 13.834 70.78 17.1269C70.3693 18.2411 69.8198 19.2954 69.2419 20.3284C67.6209 23.2269 65.7644 25.9866 63.6983 28.5693C63.1926 29.2014 62.534 29.8834 61.7434 29.7834C60.9662 29.6851 60.4899 28.8864 60.1129 28.1815C59.3088 26.6779 58.4349 25.2136 57.495 23.7954C57.2629 23.4451 57.0261 23.0963 56.7889 22.7471C55.5796 20.9659 54.3625 19.1733 53.72 17.1155C52.9572 14.6726 53.0762 11.9626 53.984 9.57262C54.8919 7.18271 56.5719 5.12167 58.6646 3.72083C59.1255 3.41234 59.608 3.13368 60.1216 2.93133C60.5313 2.77005 60.9586 2.6582 61.3914 2.58447ZM61.6906 7.90282C62.1084 7.79549 62.5347 7.71552 62.9648 7.70763C64.6812 7.67615 66.3459 8.92015 66.8939 10.6276C67.4419 12.335 66.8411 14.3726 65.4796 15.47C64.794 16.0227 63.9621 16.3396 63.1244 16.5641C62.0482 16.8524 60.845 16.9844 59.8789 16.4091C59.5936 16.2392 59.3408 16.0133 59.1162 15.7623C58.176 14.7117 57.7407 13.1869 57.9756 11.7669C58.2105 10.347 59.1101 9.06527 60.3327 8.40886C60.7613 8.17877 61.223 8.02295 61.6906 7.90282Z" fill="#B2ECF7"/>
<path fill-rule="evenodd" clip-rule="evenodd" d="M26.0008 17.5518C31.9294 18.4639 36.9709 23.3874 39.122 29.3939C41.2729 35.4004 40.7508 42.2777 38.4703 48.2288C37.0453 51.9479 34.9912 55.3171 32.9346 58.6904C31.3587 61.2753 29.7814 63.8626 28.4845 66.6115C28.4239 66.74 28.3637 66.869 28.3036 66.9981C27.9483 67.7605 27.5921 68.5249 27.1166 69.2055C26.6693 69.8456 26.1241 70.3997 25.5577 70.9197C24.9771 71.4522 24.3138 71.9764 23.5508 71.9993C22.3948 72.0337 21.5152 70.9429 20.8177 69.9518L9.56929 53.9672C6.87715 50.1416 4.07658 46.0158 3.78288 41.2298C3.70989 40.0388 3.7975 38.8428 3.92396 37.657C4.3108 34.0275 5.07685 30.4007 6.63773 27.1554C8.1986 23.91 10.6089 21.056 13.6913 19.5154C15.1655 18.7786 16.7573 18.3542 18.3525 18.0172C20.87 17.4854 23.4608 17.161 26.0008 17.5518ZM23.6831 27.114C24.1876 27.1441 24.6967 27.2209 25.1474 27.4154C25.7431 27.6721 26.1945 28.1133 26.6241 28.5479C28.6371 30.5842 30.6084 32.9166 30.6483 35.5763C30.6651 36.7083 30.3227 37.8261 29.839 38.8809C28.6566 41.4598 26.4703 43.8272 23.4407 44.8416C20.4115 45.8559 16.522 45.2028 14.6818 42.9194C14.0705 42.1606 13.7091 41.2797 13.3691 40.4066C12.7537 38.8261 12.1796 37.1895 12.2997 35.5279C12.5126 32.5811 14.936 29.9982 17.9137 28.4788C19.6523 27.5915 21.6603 26.9932 23.6831 27.114Z" fill="#B2ECF7"/>
<path fill-rule="evenodd" clip-rule="evenodd" d="M21.1751 34.4873C20.2454 36.0478 18.5446 37.2633 16.5761 37.7736C15.8591 37.9594 15.0069 38.0342 14.4246 37.6329C14.133 37.4319 13.9534 37.1391 13.7904 36.8516C13.1545 35.73 12.6409 34.5319 12.5814 33.2879C12.4878 31.3279 13.6106 29.3549 15.4767 28.2007C16.2492 27.7229 17.1565 27.3766 18.1098 27.3229C19.0631 27.2692 20.0622 27.5333 20.7218 28.121C21.12 28.476 21.379 28.9282 21.5699 29.3911C22.2508 31.0419 22.1049 32.9267 21.1751 34.4873ZM21.3911 23.6914C20.9404 23.4968 20.4313 23.4201 19.9268 23.39C17.904 23.2692 15.896 23.8675 14.1574 24.7547C11.1796 26.2742 8.75627 28.8571 8.54339 31.8039C8.42325 33.4654 8.99741 35.1021 9.61283 36.6825C9.95279 37.5557 10.3142 38.4366 10.9255 39.1954C12.7657 41.4788 16.6552 42.1319 19.6844 41.1176C22.714 40.1031 24.9003 37.7357 26.0827 35.1569C26.5664 34.102 26.9088 32.9843 26.892 31.8522C26.8521 29.1926 24.8808 26.8601 22.8678 24.8239C22.4382 24.3893 21.9868 23.9481 21.3911 23.6914Z" fill="#007398"/>
<path fill-rule="evenodd" clip-rule="evenodd" d="M29.4731 45.7298C28.6205 47.4779 27.6308 49.1439 26.6424 50.8071C24.4316 54.5279 22.2209 58.2487 20.01 61.9693C19.9554 62.0615 19.8959 62.1583 19.8042 62.2053C19.5786 62.3209 19.3419 62.0812 19.191 61.8675C15.5475 56.7016 11.9038 51.5358 8.26015 46.3702C6.78835 44.2836 5.29087 42.1453 4.53993 39.6543C3.49822 36.1988 4.00697 32.4026 5.08298 28.9594C6.16143 25.5091 7.93864 22.102 10.8683 20.2755C12.7407 19.108 14.929 18.6822 17.0807 18.4265C18.4407 18.2647 19.8169 18.1633 21.1754 18.3374C26.3993 19.0071 30.6258 23.87 31.9076 29.3531C33.1892 34.8359 31.9149 40.7224 29.4731 45.7298ZM35.3656 25.6698C33.2146 19.6633 28.1731 14.7398 22.2444 13.8276C19.7044 13.4369 17.1137 13.7613 14.5961 14.2931C13.0009 14.6301 11.4092 15.0545 9.93496 15.7913C6.85255 17.3318 4.44225 20.1859 2.88138 23.4313C1.32051 26.6766 0.554457 30.3034 0.167612 33.9329C0.0411561 35.1187 -0.0464529 36.3147 0.0265275 37.5057C0.320237 42.2916 3.1208 46.4175 5.81295 50.2431C9.56242 55.5713 13.3119 60.8994 17.0614 66.2277C17.7588 67.2188 18.6385 68.3096 19.7945 68.2752C20.5574 68.2523 21.2207 67.7281 21.8013 67.1955C22.3678 66.6756 22.913 66.1215 23.3603 65.4813C23.9163 64.6856 24.3092 63.7752 24.7282 62.8873C27.7175 56.5512 32.1969 51.0736 34.714 44.5047C36.9944 38.5536 37.5165 31.6763 35.3656 25.6698Z" fill="#007398"/>
<path fill-rule="evenodd" clip-rule="evenodd" d="M46.1749 30.8802C47.0196 31.1594 47.9759 30.9562 48.838 30.7503L50.6092 30.327C52.5572 29.8616 54.533 29.3862 56.2243 28.5374C56.7406 28.2784 56.4575 27.596 55.8829 27.3895C55.3083 27.183 54.6422 27.2973 54.0374 27.4153L47.4535 28.7012C46.9108 28.8071 46.3513 28.9192 45.9159 29.1798C45.4804 29.4406 45.1987 29.892 45.3904 30.2958C45.517 30.5627 45.8292 30.7659 46.1749 30.8802ZM34.0098 37.4801C34.7413 37.5901 35.535 37.3629 36.0124 36.9412C36.2238 36.7543 36.3747 36.5373 36.5258 36.3201L36.5258 36.3201C36.5978 36.2165 36.6699 36.1128 36.7486 36.0123C37.4632 35.1005 38.6688 34.5006 39.8716 33.9021C40.2856 33.696 40.6993 33.4902 41.0926 33.2718C41.6066 32.9864 42.1417 32.5055 41.8241 32.0938C41.6762 31.9023 41.3803 31.7998 41.0905 31.7437C40.2564 31.5825 39.3576 31.7159 38.5773 31.9857C37.797 32.2554 37.1143 32.6536 36.4396 33.0481L34.3292 34.282C33.4142 34.8169 32.4034 35.5148 32.5572 36.3663C32.6555 36.9101 33.2785 37.3702 34.0098 37.4801ZM40.9998 44.3884C39.6408 44.4288 38.3468 44.0063 37.1144 43.5906C35.4753 43.0377 33.6922 42.3695 33.0569 41.1462C32.8254 40.7001 32.7723 40.2064 32.9057 39.7397C33.0066 39.3874 33.2234 39.0402 33.6034 38.8074C33.9833 38.5748 34.5456 38.4785 34.9969 38.631C35.4999 38.8009 35.7266 39.1984 35.944 39.5796L35.944 39.5796L35.944 39.5796C35.9831 39.6481 36.0218 39.7161 36.0618 39.7821C36.7099 40.8508 38.0753 41.678 39.6451 41.9528C39.892 41.996 40.144 42.0265 40.3957 42.057L40.3957 42.057L40.3957 42.057C40.8575 42.1129 41.3184 42.1687 41.7458 42.3028C42.4065 42.5101 42.9899 42.9896 42.8643 43.5018C42.7239 44.0747 41.8046 44.3645 40.9998 44.3884ZM67.6957 54.1636C67.3372 53.5753 66.732 53.0862 66.0653 52.6697C65.3996 52.2537 64.6631 51.8994 63.8789 51.6179C63.3718 51.436 62.8193 51.2816 62.2585 51.3228C61.6978 51.3641 61.136 51.6551 61.0569 52.0676C60.9716 52.5128 61.4375 52.9013 61.8685 53.2185L62.7359 53.8567L63.3892 54.3376C64.0245 54.8048 64.1538 55.5525 63.9266 56.1934C63.6995 56.8342 63.1706 57.391 62.6254 57.9168C62.0927 58.4305 61.5004 59.0424 61.7378 59.6654C61.9956 60.3418 63.1767 60.6283 64.0816 60.4132C64.9866 60.1979 65.6507 59.6331 66.2096 59.0648C66.908 58.3545 67.5267 57.5868 67.8507 56.7419C68.1745 55.8971 68.1838 54.9642 67.6957 54.1636ZM41.7497 64.7085C41.2233 64.4803 40.5751 64.5632 39.9907 64.6533L35.1445 65.4002L30.7978 66.0701C29.3425 66.2942 27.772 66.5694 26.855 67.4302C26.6325 67.6391 26.8242 67.981 27.1427 68.1182C27.4613 68.2555 27.8471 68.2458 28.2084 68.2286C32.9339 68.0037 37.582 67.1765 41.8931 65.7937C42.4386 65.6185 42.2762 64.9367 41.7497 64.7085ZM56.063 60.8988C56.2906 60.8655 56.5324 60.8423 56.7595 60.9041C57.2869 61.0475 57.4753 61.6 57.2628 61.9724C57.0504 62.3448 56.5739 62.5728 56.1128 62.7708C54.0733 63.6471 51.8746 64.3244 49.5808 64.7829C49.131 64.8729 48.6652 64.9551 48.1907 64.9077C47.7161 64.8604 47.2249 64.6578 47.0091 64.3221C46.7922 63.985 46.9003 63.5813 47.1783 63.302C47.4563 63.0227 47.878 62.8492 48.3102 62.7205C48.9599 62.5273 49.6515 62.4212 50.3438 62.3149C50.8375 62.2392 51.3316 62.1634 51.811 62.0559C52.4254 61.9181 53.014 61.7288 53.6021 61.5396C54.4025 61.2821 55.2018 61.025 56.063 60.8988ZM56.8915 49.2729C55.8045 49.9089 53.6538 49.4111 53.4187 49.33L50.7235 48.4016C49.7109 48.0527 48.6959 47.703 47.7359 47.2792C47.4229 47.141 47.1081 46.9896 46.8933 46.7744C46.6786 46.5592 46.5834 46.2647 46.7456 46.0388C47.0526 45.6111 47.936 45.7072 48.5916 45.8615L55.2149 47.4208C55.8191 47.563 56.4563 47.7205 56.8806 48.0682C57.3049 48.4157 57.3922 49.017 56.8915 49.2729Z" fill="#007398"/>
<path fill-rule="evenodd" clip-rule="evenodd" d="M58.6939 11.3729C58.3543 10.9363 58.2843 10.3612 58.32 9.82614C58.3721 9.04566 58.6797 8.21829 59.3856 7.85381C59.654 7.76994 59.9536 7.77393 60.2255 7.86499C60.7046 8.02562 61.0663 8.44454 61.236 8.9062C61.4056 9.36798 61.4039 9.86854 61.3337 10.3462C61.2565 10.8717 61.0731 11.4199 60.6318 11.7265C60.0528 12.129 59.1366 11.9416 58.6939 11.3729ZM63.9718 12.0402C64.1255 11.6385 64.2111 11.2133 64.2681 10.7857C64.3319 10.3071 64.3603 9.82074 64.3076 9.33712C64.1569 7.95767 63.3056 6.64341 62.0771 5.89373C60.8485 5.14395 59.2716 4.97635 57.9453 5.4545C57.6284 5.56878 57.3243 5.71851 57.0598 5.91942C56.1646 6.59965 55.8362 7.76467 55.7004 8.87049C55.5947 9.73131 55.5769 10.6213 55.8325 11.4641C56.3401 13.1375 58.0042 14.4579 59.7926 14.5894C61.5809 14.7209 63.3579 13.6435 63.9718 12.0402Z" fill="#007398"/>
<path fill-rule="evenodd" clip-rule="evenodd" d="M65.9819 12.9383C65.8796 13.1928 65.7648 13.4422 65.6479 13.6905C64.307 16.5396 62.6824 19.2581 60.8052 21.794C60.4866 22.2244 60.1022 22.6846 59.5667 22.7505C58.8138 22.8431 58.2377 22.1303 57.8273 21.4997C57.2397 20.5968 56.652 19.694 56.0645 18.791C55.1893 17.4463 54.3098 16.0936 53.6777 14.6219C53.0456 13.1502 52.6673 11.5394 52.8432 9.95013C53.1055 7.58101 54.5777 5.47942 56.3912 3.90842C57.0237 3.36049 57.7134 2.8575 58.5009 2.56527C59.8272 2.07305 61.3559 2.23213 62.6197 2.86494C63.8835 3.49785 64.8897 4.57409 65.5621 5.80661C66.7425 7.97074 66.9004 10.6535 65.9819 12.9383ZM67.3864 4.46539C65.6051 1.45712 62.0606 -0.47461 58.6785 0.101563C58.2458 0.175291 57.8184 0.287138 57.4088 0.448425C56.8951 0.650768 56.4126 0.929433 55.9517 1.23792C53.859 2.63876 52.179 4.6998 51.2711 7.08971C50.3633 9.47972 50.2443 12.1897 51.0071 14.6326C51.7756 17.0938 53.3661 19.1758 54.7821 21.3125C55.722 22.7307 56.5959 24.1949 57.4 25.6986C57.777 26.4035 58.2533 27.2022 59.0305 27.3005C59.8211 27.4005 60.4797 26.7185 60.9854 26.0864C63.0515 23.5036 64.908 20.744 66.529 17.8455C67.1069 16.8125 67.6565 15.7582 68.0671 14.644C69.2806 11.3511 69.1677 7.47357 67.3864 4.46539Z" fill="#007398"/>
</svg>