<svg width="66" height="72" viewBox="0 0 66 72" fill="none" xmlns="http://www.w3.org/2000/svg">
<path fill-rule="evenodd" clip-rule="evenodd" d="M65.6009 56.5483C65.9093 56.3085 66.0077 55.8093 65.9987 55.5337C65.9898 55.2759 65.7871 55.0405 65.3759 54.8155C65.0854 54.6591 64.7859 54.5772 64.4939 54.4982C64.3434 54.458 64.1929 54.4177 64.0499 54.3671C63.2408 54.0721 62.8058 54.0274 62.2039 53.9633C62.0266 53.9454 61.8299 53.9246 61.6004 53.8948C60.8555 53.8009 60.103 53.8143 59.3715 53.8292L59.0809 53.8337C58.7845 53.8396 58.4865 53.8709 58.19 53.9022C57.9084 53.932 57.6298 53.9618 57.3496 53.9663C55.97 53.9901 54.5858 53.9812 53.2032 53.9767H53.0989C53.0586 53.9767 52.9946 53.9588 52.9305 53.9424C52.8038 53.9082 52.64 53.8665 52.4671 53.8933C52.1408 53.9395 52.0455 53.929 52.0455 53.9424C52.0321 53.9201 52.0008 53.8292 51.9948 53.4701C51.9754 52.2841 51.962 51.0982 51.971 49.9122C51.9754 49.4548 52.0112 48.9973 52.0485 48.5414L52.0753 48.1824C52.0991 47.8814 52.1125 47.4091 52.1274 46.8831C52.1572 45.9147 52.1915 44.7108 52.2973 44.1834C52.4478 43.4205 52.2198 42.835 52.0008 42.2703L51.9605 42.1705C51.7639 41.6594 51.1739 41.3823 50.4632 41.4717C49.9804 41.5283 49.6541 41.9023 49.5915 42.4714C49.5886 42.5057 49.5454 42.5817 49.5111 42.6428C49.4724 42.7113 49.4351 42.7813 49.4053 42.8514L49.3219 43.0346C49.234 43.2194 49.1356 43.428 49.1014 43.6649C48.9747 44.5469 48.8436 46.8861 48.8138 47.6683C48.7617 49.0555 48.7482 50.4456 48.7363 51.8342L48.7289 52.5806C48.7259 52.8801 48.7438 53.1796 48.7631 53.4791L48.7855 53.9126C48.787 53.9395 48.7885 53.9693 48.7885 54.0005C47.8811 54.008 46.9737 54.0467 46.0664 54.0855L45.2543 54.1197C44.4826 54.151 43.7093 54.1823 42.939 54.2419C42.4786 54.2777 42.1419 54.3328 41.826 54.385C41.4103 54.4535 41.0512 54.5131 40.4806 54.5146C39.3214 54.5146 38.0878 54.5354 36.8735 54.7664C36.8213 54.7753 36.7409 54.7723 36.6559 54.7708C36.3609 54.7619 35.8737 54.741 35.5772 55.2938L35.5593 55.3296C35.318 55.9226 35.5161 57.0311 35.9437 57.4855C36.0793 57.6285 36.2522 57.7135 36.4056 57.776C37.1044 58.0621 37.8032 58.0457 38.4751 58.0278C38.6852 58.0219 38.8938 58.0144 39.0979 58.0219C39.8042 58.0368 40.5327 57.9921 41.2315 57.9504L41.9601 57.9087C42.489 57.8818 42.8913 57.8476 43.2787 57.8163C43.7748 57.7746 44.2427 57.7358 44.9206 57.7179C46.1572 57.6837 47.3805 57.6881 48.7944 57.6911C48.8779 58.965 48.9434 60.2404 48.9866 61.5173C49.0015 61.9359 48.9896 62.3531 48.9762 62.7718L48.9524 63.8684C48.9449 64.2513 48.9375 64.6357 48.9375 65.0186C48.939 65.5759 48.9434 65.9826 48.9479 66.3774C48.9539 66.8408 48.9598 67.2863 48.9583 67.9404C48.9583 68.2443 48.9494 68.5483 48.9404 68.8507C48.927 69.3856 48.9106 69.9369 48.939 70.4852C48.9613 70.9173 49.1669 71.4075 49.4426 71.6757C49.6586 71.8887 49.9536 72.0005 50.2844 72.0005C50.3604 72.0005 50.4363 71.996 50.5138 71.9841C51.0562 71.9051 51.5687 71.5565 51.8205 71.0976C52.0485 70.6863 52.0261 70.2855 51.9859 69.9116C51.9531 69.6151 51.9859 69.3007 52.0172 68.9655C52.041 68.7435 52.0634 68.52 52.0663 68.298C52.108 66.3938 52.1319 65.2064 52.1617 63.3037L52.1736 62.7182C52.184 62.228 52.193 61.7378 52.1915 61.2476C52.19 60.6129 52.187 59.9782 52.1811 59.342L52.1691 57.785C52.1691 57.6732 52.1751 57.6107 52.1676 57.5898C52.196 57.5868 52.2451 57.5853 52.3256 57.5838L53.1391 57.6002C53.7068 57.6122 54.2744 57.6583 54.8421 57.5838C54.9523 57.5704 55.0626 57.5555 55.1743 57.5555C55.2757 57.554 55.377 57.5749 55.4783 57.5943C55.6198 57.6211 55.7822 57.6494 55.9551 57.6449C56.2992 57.6315 56.6449 57.6047 56.9891 57.5779C57.3035 57.5526 57.6193 57.5287 57.9352 57.5138C58.3613 57.4959 58.7874 57.4885 59.215 57.481C59.525 57.4751 59.8349 57.4706 60.1448 57.4617C60.4189 57.4527 60.6945 57.4363 60.9687 57.42L61.3874 57.3961C61.7867 57.3767 62.0489 57.3544 62.2992 57.335C62.5912 57.3112 62.8669 57.2888 63.3332 57.2724C63.4196 57.265 63.512 57.2844 63.6029 57.2978C63.8085 57.332 64.0454 57.3678 64.2868 57.2799C64.7487 57.113 65.2031 56.8597 65.6009 56.5483Z" fill="#007398"/>
<path fill-rule="evenodd" clip-rule="evenodd" d="M10.1815 58.3004C10.2348 58.0952 10.2958 57.8861 10.3606 57.6828C10.6463 56.7911 10.9911 55.8994 11.3226 55.0707C11.3416 55.0056 11.395 54.9366 11.4769 54.832C11.5817 54.6998 11.6922 54.5598 11.7512 54.3901C11.8674 54.0527 11.9646 53.7094 12.0579 53.3681C12.1932 52.9025 12.2998 52.5218 12.4389 52.1489C12.6808 51.4978 12.9399 50.8547 13.2085 50.2095C13.4105 49.7124 13.6162 49.2132 13.8086 48.7082C14.0753 48.0236 14.3172 47.3272 14.5573 46.6386L14.7401 46.1276C14.8373 45.8435 14.9306 45.5516 15.024 45.2635L15.2278 44.6164C15.4831 43.7878 15.725 43.0006 16.0089 42.2292C16.1384 41.8583 16.2889 41.4933 16.4413 41.1283C16.5842 40.7772 16.7137 40.4615 16.8318 40.1478C16.9347 39.8815 17.0204 39.6092 17.1023 39.3409C17.1538 39.1752 17.2071 39.0055 17.2623 38.8398C17.3004 38.7254 17.3443 38.6129 17.3862 38.5024C17.5367 38.1098 17.6414 37.8395 17.7119 37.5613C17.8281 37.1313 17.9177 36.6952 18.0072 36.2632L18.1672 35.5273C18.1901 35.4346 18.2187 35.3537 18.2644 35.2215L18.3615 34.9394C18.5558 34.3672 18.7578 33.7754 18.7806 33.1243C18.794 32.6883 18.5673 32.3253 18.1101 32.0471L17.9996 31.9781C17.5767 31.7157 17.0014 31.402 16.3632 31.6151C16.247 31.6387 16.1555 31.6269 16.0184 31.6111C15.8126 31.5776 15.6774 31.5657 15.5345 31.5578C14.5001 31.5914 13.439 31.6407 12.3837 31.6979C12.0846 31.7098 11.7912 31.7315 11.494 31.7512L11.3854 31.7591C10.9911 31.7887 10.5968 31.8163 10.2005 31.8301C8.83467 31.8853 7.46688 31.9327 6.04576 31.9741C5.51808 31.9879 5.02468 32.0017 4.54463 31.9643C4.4189 31.9544 4.15029 31.9366 4.09695 31.6782L4.04742 31.4513C4.15029 30.528 4.31031 29.6165 4.60749 28.563C4.66464 28.3657 4.69131 28.1605 4.71989 27.9534C4.74275 27.7857 4.75799 27.6752 4.78085 27.5608C4.82085 27.3674 4.86467 27.1682 4.90848 26.9689L4.98087 26.6532C5.01706 26.4855 5.05516 26.3178 5.08755 26.1502C5.15613 25.8187 5.20947 25.4853 5.26281 25.1519L6.05528 20.3005C6.09719 20.0085 6.14291 19.7126 6.19435 19.4187C6.24388 19.1444 6.29912 18.8702 6.35437 18.596L6.38675 18.4342C6.46676 18.0376 6.54487 17.6411 6.61345 17.2406C6.64583 17.0512 6.65536 16.8578 6.66869 16.6665C6.68774 16.4218 6.69727 16.2896 6.72013 16.1575C6.83824 15.4097 6.97159 14.66 7.11827 13.9143C7.19256 13.5177 7.27448 13.1192 7.35639 12.7187L7.95266 9.64101C8.03457 9.19316 8.11458 8.76505 8.20221 8.33693C8.3889 7.42545 8.4651 6.50609 8.43081 5.6025C8.41557 5.24936 8.72799 5.08758 9.20423 4.88043C9.53761 4.73443 9.9167 4.56871 10.2653 4.55885C10.9911 4.54306 11.7741 4.59633 12.5151 4.65157L12.9152 4.68116C13.3685 4.71273 13.8238 4.76008 14.2772 4.80743L16.2832 4.98696C16.9175 5.03826 17.5576 5.0935 18.1939 5.17241C19.3769 5.31841 20.5713 5.50978 21.7276 5.69523L22.0172 5.74455H22.3029L22.301 6.04246C22.3049 6.13518 22.2953 6.25356 22.2744 6.39561C22.0877 7.5458 21.6667 8.72756 20.9485 10.1184C20.5408 10.9135 20.2075 11.7441 19.8817 12.5471L19.6245 13.1823C19.5064 13.4743 19.3826 13.7624 19.2607 14.0524L19.1521 14.3069C18.874 14.952 18.6016 15.6011 18.3501 16.2561C18.0186 17.1222 17.7081 18.0376 17.3728 19.1405C17.1766 19.7718 17.1976 20.3124 17.4357 20.8431L17.5252 21.0542C17.6833 21.4468 17.8586 21.8848 18.3691 22.0978C18.7044 22.2419 19.1045 22.3425 19.5579 22.3997C20.5046 22.5161 21.4571 22.6009 22.4153 22.6858C22.6268 22.7015 22.8421 22.7114 23.0611 22.7213L23.2288 22.7292C23.4078 22.7371 23.5888 22.7449 23.7717 22.7588C24.1203 22.7883 24.4727 22.8298 24.8233 22.8732L25.309 22.9363C25.3871 22.9521 25.4481 22.962 25.5129 22.9679L26.0996 23.0034C26.652 23.0389 27.2026 23.0764 27.7531 23.102C27.8922 23.1119 28.0389 23.108 28.1779 23.106C28.4008 23.102 28.5647 23.0961 28.7285 23.108L29.1895 23.1356C30.0601 23.1869 30.9287 23.2382 31.7917 23.321C32.0508 23.3467 32.3118 23.3546 32.5728 23.3605C33.2376 23.3802 33.7843 23.396 34.3158 23.5795L34.7387 23.7117L34.6892 24.0017C34.4358 24.8895 34.0377 25.5425 33.6167 26.235L33.3995 26.5901C33.0033 27.255 32.5899 27.9159 32.1765 28.5748L31.9403 28.9497C31.506 29.6402 31.0697 30.3307 30.624 31.0192C30.0696 31.8834 29.5133 32.7495 28.9457 33.6077C28.2103 34.7164 27.4655 35.8232 26.7149 36.9241C26.1186 37.7961 25.5148 38.6662 24.9014 39.5283C24.2327 40.4654 23.5621 41.4065 22.8783 42.3338C22.4706 42.8822 22.0629 43.4248 21.6514 43.9653L21.5505 44.1015C21.2209 44.5355 20.8914 44.9755 20.5675 45.4134C20.3275 45.739 20.0894 46.0684 19.8531 46.3959L19.6684 46.6544C19.4436 46.9681 19.2169 47.2798 18.9845 47.5876C18.4149 48.3452 17.8357 49.0949 17.2566 49.8446L15.9346 51.5531C15.5612 52.0285 15.1897 52.504 14.824 52.9874C14.2467 53.739 13.6829 54.4966 13.1247 55.2601L9.7624 59.8688L10.1815 58.3004ZM6.25095 63.3139C6.42926 63.9602 6.94635 64.3069 7.50703 64.6311C8.56895 65.2508 9.89436 65.0723 10.6433 64.2269C10.9266 63.9089 11.2237 63.5991 11.5189 63.2933L12.1272 62.6696C12.9712 61.5247 13.8369 60.3511 14.7007 59.1754L15.5309 58.0366C16.046 57.3308 16.5571 56.625 17.0841 55.9294C17.833 54.9384 18.6017 53.9556 19.3724 52.9789C19.5883 52.706 19.8122 52.4372 20.0361 52.1684L20.2263 51.9407C20.4541 51.6616 20.682 51.3847 20.8979 51.1015C21.2941 50.5844 21.6726 50.0653 22.051 49.5421L22.7662 48.5593C23.0951 48.1161 23.4279 47.6832 23.7687 47.2421L26.2868 43.9551C26.7028 43.4236 27.1169 42.8963 27.5072 42.3567C27.8222 41.9197 28.1154 41.4724 28.4106 41.0251C28.6404 40.6722 28.8544 40.3439 29.0783 40.0238C29.3695 39.6032 29.6667 39.1867 29.9639 38.7763C30.2907 38.3208 30.6137 37.8653 30.9327 37.4036C31.1526 37.0794 31.3586 36.7491 31.5647 36.4167C31.7271 36.152 31.8361 35.9715 31.949 35.7971L32.9455 34.289C33.318 33.7206 33.6905 33.1564 34.053 32.5839C34.5662 31.7776 35.0575 30.9671 35.5488 30.1546L36.5137 28.5583C36.686 28.2649 36.8604 27.9735 37.0427 27.6842C37.1219 27.5632 37.2071 27.4483 37.2923 27.3354C37.4825 27.0912 37.6271 26.9004 37.7361 26.6993C37.8728 26.4408 37.9976 26.172 38.1145 25.9012C38.269 25.5544 38.3859 25.2959 38.5266 25.0517C38.8 24.5757 39.1388 23.9807 38.9406 23.201C38.7881 22.5916 38.582 21.7647 37.7598 21.3216C36.9971 20.903 36.1709 20.4885 35.2041 20.4147C34.7682 20.3818 34.3304 20.3326 33.8945 20.2833C33.3735 20.2238 32.902 20.1725 32.4324 20.1397C31.9748 20.1028 31.5131 20.0905 31.0535 20.0782L30.2174 20.0556C29.7875 20.0412 29.3636 20.0166 28.9396 19.9838L25.4309 19.6965C25.2882 19.6842 25.1396 19.676 24.993 19.6719C24.7276 19.6596 24.5195 19.6493 24.3115 19.6186C23.2833 19.4729 22.1679 19.3067 21.0089 19.0851L20.8563 19.1364L20.7533 19.0358V18.7671C20.7533 18.6275 20.779 18.486 20.8266 18.3711C20.9256 18.1125 21.0485 17.8581 21.1674 17.6078C21.3358 17.261 21.4685 16.9881 21.5814 16.7029C21.7043 16.4013 21.8093 16.0894 21.9083 15.7796C22.0014 15.4924 22.0985 15.199 22.2134 14.9138C22.5819 13.974 22.9366 13.1287 23.2932 12.3367C23.4061 12.0761 23.5468 11.8237 23.6835 11.5734C23.8122 11.3395 23.941 11.1036 24.054 10.8594C24.4522 10.0038 24.8405 9.14408 25.2308 8.28232L25.8212 6.97532C25.8945 6.81733 25.9698 6.67165 26.045 6.52597C26.3402 5.96377 26.6711 5.32976 26.5007 4.52135C26.366 3.8935 26.0252 3.36618 25.4566 2.91273C25.0247 2.56598 24.4779 2.33618 24.0381 2.14946C23.103 1.75141 22.0946 1.6242 21.1436 1.54623L20.363 1.48468C20.0381 1.458 19.7132 1.43133 19.3902 1.3985L18.1599 1.26718C17.6844 1.21179 17.2069 1.15844 16.7334 1.1133C16.5195 1.09278 16.3035 1.08457 16.0876 1.07842C15.8478 1.07021 15.6121 1.05995 15.3783 1.03328C14.4036 0.916325 13.2505 0.776802 12.0935 0.598295C11.6358 0.526482 11.1821 0.436202 10.7265 0.343871L9.52586 0.105861C8.78886 -0.05418 8.09148 -0.0336619 7.18607 0.173571C6.43718 0.343871 5.66848 1.03328 5.67838 1.89299C5.65065 2.04687 5.61499 2.11458 5.55951 2.21922L5.39904 2.46954C5.28017 2.61933 5.17516 2.74654 5.15535 2.92505C5.11573 3.34567 5.08403 3.77039 5.05233 4.19306L5.02855 4.5152C4.99289 5.01994 4.95921 5.52674 4.9077 6.02738C4.85223 6.57726 4.74722 7.11894 4.66203 7.53136C4.61845 7.74474 4.56892 7.95813 4.51542 8.16947L4.46788 8.37875C4.37872 8.73166 4.29551 9.08047 4.22617 9.43543C4.14296 9.88273 4.06966 10.3362 3.99635 10.7896L3.96267 11.0092C3.89729 11.4175 3.82993 11.8237 3.75068 12.23C3.66351 12.6937 3.56049 13.1554 3.45351 13.617C3.33661 14.1443 3.23557 14.608 3.14444 15.0738C3.02755 15.6934 2.92849 16.3172 2.83141 16.9451L2.67291 17.9463C2.5897 18.4572 2.49263 18.9599 2.39357 19.4647L2.22913 20.2936C2.13997 20.7265 2.05082 21.1595 1.98346 21.5965C1.9478 21.8201 1.93987 22.0479 1.92997 22.2715C1.92601 22.4931 1.91808 22.6696 1.89034 22.8461C1.83883 23.2297 1.76157 23.6155 1.68232 24.0012L1.53769 24.7194C1.45844 25.1297 1.37523 25.5442 1.28212 25.9545C1.21872 26.2172 1.15532 26.4736 1.08598 26.7301C1.0206 26.9784 0.95522 27.2226 0.897766 27.4729C0.85418 27.6637 0.818518 27.8545 0.782857 28.0453L0.200386 30.9527C0.17463 31.0882 0.150856 31.2318 0.133025 31.3734C0.111232 31.5519 0.0854765 31.7263 0.0418903 31.8945C-0.150285 32.6906 0.339069 33.7104 1.0939 34.0756C2.06667 34.5434 3.12265 34.7835 4.23806 34.7896C5.79329 34.7978 7.34061 34.7958 8.89188 34.7896C9.09792 34.7876 9.30397 34.7691 9.51001 34.7527C9.64275 34.7404 9.77946 34.7281 9.91616 34.724C9.97163 34.7137 10.0647 34.7158 10.1539 34.724C10.3124 34.7301 10.4154 34.7281 10.5105 34.7301L12.7651 34.6275C13.1019 34.6173 13.4348 34.605 13.7676 34.5824C13.8568 34.5742 13.9538 34.5639 14.045 34.5516C14.1539 34.5352 14.2669 34.5208 14.3798 34.5208C14.465 34.5208 14.5482 34.529 14.6334 34.5516L14.9325 34.6357L14.8533 34.9456C14.6472 35.7519 14.4273 36.5583 14.2054 37.3564C14.0707 37.8325 13.9261 38.3393 13.7478 38.8214C13.6705 39.0225 13.5814 39.2133 13.4902 39.4062C13.3456 39.714 13.2307 39.9663 13.1376 40.2228C12.8919 40.9143 12.6621 41.6037 12.4323 42.2972L11.194 46.011C11.1108 46.2613 11.0316 46.5116 10.9523 46.7619C10.6908 47.5888 10.4947 48.2167 10.2609 48.8281C10.0588 49.3513 9.827 49.8643 9.59719 50.3772C9.38124 50.8512 9.17123 51.3272 8.97905 51.8094C8.67593 52.587 8.39262 53.3708 8.11525 54.1546L7.68731 55.3405C7.25145 56.5306 6.81559 57.7124 6.37775 58.8943C6.06076 59.7294 5.7715 60.7306 5.99934 61.8263C6.04094 62.0253 6.0667 62.2244 6.09444 62.4295C6.12812 62.7024 6.16972 63.0184 6.25095 63.3139Z" fill="#007398"/>
</svg>
