<svg width="109" height="61" viewBox="0 0 109 61" fill="none" xmlns="http://www.w3.org/2000/svg">
<path fill-rule="evenodd" clip-rule="evenodd" d="M108.601 45.5483C108.909 45.3085 109.008 44.8093 108.999 44.5337C108.99 44.2759 108.787 44.0405 108.376 43.8155C108.085 43.6591 107.786 43.5772 107.494 43.4982C107.343 43.458 107.193 43.4177 107.05 43.3671C106.241 43.0721 105.806 43.0274 105.204 42.9633C105.027 42.9454 104.83 42.9246 104.6 42.8948C103.855 42.8009 103.103 42.8143 102.371 42.8292L102.081 42.8337C101.784 42.8396 101.486 42.8709 101.19 42.9022C100.908 42.932 100.63 42.9618 100.35 42.9663C98.97 42.9901 97.5858 42.9812 96.2032 42.9767H96.0989C96.0586 42.9767 95.9946 42.9588 95.9305 42.9424C95.8038 42.9082 95.64 42.8665 95.4671 42.8933C95.1408 42.9395 95.0455 42.929 95.0455 42.9424C95.0321 42.9201 95.0008 42.8292 94.9948 42.4701C94.9754 41.2841 94.962 40.0982 94.971 38.9122C94.9754 38.4548 95.0112 37.9973 95.0485 37.5414L95.0753 37.1824C95.0991 36.8814 95.1125 36.4091 95.1274 35.8831C95.1572 34.9147 95.1915 33.7108 95.2973 33.1834C95.4478 32.4205 95.2198 31.835 95.0008 31.2703L94.9605 31.1705C94.7639 30.6594 94.1739 30.3823 93.4632 30.4717C92.9804 30.5283 92.6541 30.9023 92.5915 31.4714C92.5886 31.5057 92.5454 31.5817 92.5111 31.6428C92.4724 31.7113 92.4351 31.7813 92.4053 31.8514L92.3219 32.0346C92.234 32.2194 92.1356 32.428 92.1014 32.6649C91.9747 33.5469 91.8436 35.8861 91.8138 36.6683C91.7617 38.0555 91.7482 39.4456 91.7363 40.8342L91.7289 41.5806C91.7259 41.8801 91.7438 42.1796 91.7631 42.4791L91.7855 42.9126C91.787 42.9395 91.7885 42.9693 91.7885 43.0005C90.8811 43.008 89.9737 43.0467 89.0664 43.0855L88.2543 43.1197C87.4826 43.151 86.7093 43.1823 85.939 43.2419C85.4786 43.2777 85.1419 43.3328 84.826 43.385C84.4103 43.4535 84.0512 43.5131 83.4806 43.5146C82.3214 43.5146 81.0878 43.5354 79.8735 43.7664C79.8213 43.7753 79.7409 43.7723 79.6559 43.7708C79.3609 43.7619 78.8737 43.741 78.5772 44.2938L78.5593 44.3296C78.318 44.9226 78.5161 46.0311 78.9437 46.4855C79.0793 46.6285 79.2522 46.7135 79.4056 46.776C80.1044 47.0621 80.8032 47.0457 81.4751 47.0278C81.6852 47.0219 81.8938 47.0144 82.0979 47.0219C82.8042 47.0368 83.5327 46.9921 84.2315 46.9504L84.9601 46.9087C85.489 46.8818 85.8913 46.8476 86.2787 46.8163C86.7748 46.7746 87.2427 46.7358 87.9206 46.7179C89.1572 46.6837 90.3805 46.6881 91.7944 46.6911C91.8779 47.965 91.9434 49.2404 91.9866 50.5173C92.0015 50.9359 91.9896 51.3531 91.9762 51.7718L91.9524 52.8684C91.9449 53.2513 91.9375 53.6357 91.9375 54.0186C91.939 54.5759 91.9434 54.9826 91.9479 55.3774C91.9539 55.8408 91.9598 56.2863 91.9583 56.9404C91.9583 57.2443 91.9494 57.5483 91.9404 57.8507C91.927 58.3856 91.9106 58.9369 91.939 59.4852C91.9613 59.9173 92.1669 60.4075 92.4426 60.6757C92.6586 60.8887 92.9536 61.0005 93.2844 61.0005C93.3604 61.0005 93.4363 60.996 93.5138 60.9841C94.0562 60.9051 94.5687 60.5565 94.8205 60.0976C95.0485 59.6863 95.0261 59.2855 94.9859 58.9116C94.9531 58.6151 94.9859 58.3007 95.0172 57.9655C95.041 57.7435 95.0634 57.52 95.0663 57.298C95.108 55.3938 95.1319 54.2064 95.1617 52.3037L95.1736 51.7182C95.184 51.228 95.193 50.7378 95.1915 50.2476C95.19 49.6129 95.187 48.9782 95.1811 48.342L95.1691 46.785C95.1691 46.6732 95.1751 46.6107 95.1676 46.5898C95.196 46.5868 95.2451 46.5853 95.3256 46.5838L96.1391 46.6002C96.7068 46.6122 97.2744 46.6583 97.8421 46.5838C97.9523 46.5704 98.0626 46.5555 98.1743 46.5555C98.2757 46.554 98.377 46.5749 98.4783 46.5943C98.6198 46.6211 98.7822 46.6494 98.9551 46.6449C99.2992 46.6315 99.6449 46.6047 99.9891 46.5779C100.303 46.5526 100.619 46.5287 100.935 46.5138C101.361 46.4959 101.787 46.4885 102.215 46.481C102.525 46.4751 102.835 46.4706 103.145 46.4617C103.419 46.4527 103.695 46.4363 103.969 46.42L104.387 46.3961C104.787 46.3767 105.049 46.3544 105.299 46.335C105.591 46.3112 105.867 46.2888 106.333 46.2724C106.42 46.265 106.512 46.2844 106.603 46.2978C106.809 46.332 107.045 46.3678 107.287 46.2799C107.749 46.113 108.203 45.8597 108.601 45.5483Z" fill="#007398"/>
<path fill-rule="evenodd" clip-rule="evenodd" d="M63.3128 41.0508C62.2697 42.1492 60.8902 42.8222 59.5414 43.4726C57.7099 44.3559 55.8487 45.247 53.852 45.5663C52.2186 45.8267 49.8194 46.5049 48.1841 46.2651C44.726 45.7562 41.806 45.401 39.3882 42.7935C38.3682 41.6931 35.128 38.8989 34.481 37.5303C32.6784 33.7152 30.8727 31.5657 32.0273 27.4904C32.3504 26.3497 33.1745 22.6771 33.6484 21.5954C34.1262 20.5038 37.2529 15.4813 38.1499 14.7179C43.9181 9.80545 53.1146 10.8587 59.7259 14.7179C60.8008 15.3448 62.7293 17.7145 63.5714 18.6479C64.4386 19.6078 64.9798 20.3928 65.4942 21.5954C66.0912 22.9905 67.092 26.0019 67.4169 27.4904C68.285 31.4675 66.7045 34.5771 65.0548 38.2801C64.6059 39.2852 64.0636 40.2618 63.3128 41.0508ZM75.3492 16.9904C73.0399 12.2558 68.7686 7.76973 64.0396 5.72614C57.635 2.95943 49.7315 3.79946 43.0721 6.26553C40.6187 7.17335 38.497 8.82198 36.4166 10.446C34.1535 12.2135 31.8308 14.0488 30.4022 16.5837C29.2044 18.7078 28.7227 21.1768 28.3968 23.6125C27.6306 29.3443 27.7412 35.5812 30.8483 40.3925C31.6857 41.6894 32.7143 42.8389 33.693 44.0228C34.8495 45.4209 35.9522 46.8848 37.3203 48.0589C38.6287 49.1799 40.1467 50.0052 41.6733 50.7755C45.1881 52.5479 48.8605 54.0855 52.7252 54.7035C56.588 55.3225 59.4351 54.7035 64.0396 52.8931C66.0922 52.086 67.9102 50.7571 69.5513 49.251C71.3119 47.6376 72.5274 45.9393 73.6807 44.0228C74.3738 42.8709 75.5329 40.8205 76.1201 39.4897C76.7517 38.0573 77.1085 37.342 77.5613 35.2839C78.0141 33.2258 78.0141 32.2948 77.9333 30.6226C77.7247 26.2858 77.2411 20.8664 75.3492 16.9904Z" fill="#B2ECF7"/>
<path fill-rule="evenodd" clip-rule="evenodd" d="M8.64086 2C7.93516 3.247 7.62207 3.444 7.65936 5C7.67997 5.896 7.68194 7.104 7.65936 8C7.63679 8.896 6.40206 9.904 5.83083 10.388C5.55699 10.621 5.23113 10.723 4.91018 10.795C4.41845 10.905 3.90709 10.96 3.46247 11.26C3.01785 11.561 2.65273 12.194 2.74598 12.842C2.81174 13.292 3.07478 13.641 3.3388 13.938C4.08081 14.775 4.68836 16.418 5.69636 16C6.13313 15.818 6.24895 15.329 6.67786 15C7.27952 14.538 8.98831 14.375 9.62236 14C10.8257 13.289 13.3089 12.713 13.5484 11C13.7721 9.399 13.2755 5.331 12.5669 4C11.5883 2.162 10.2888 2.558 8.64086 2Z" fill="#B2ECF7"/>
<path fill-rule="evenodd" clip-rule="evenodd" d="M53.2674 19.9836C50.0157 19.0716 47.031 20.5256 45.0601 22.9506C44.3907 23.5936 43.9186 24.3856 43.6271 25.2596C43.0314 26.5586 42.6819 27.9726 42.6613 29.3806C42.6407 30.8066 43.6046 32.0536 44.8236 32.7026C45.1112 33.1146 45.4282 33.4976 45.7835 33.8296C49.469 37.2676 55.8615 36.0546 58.2358 31.6506C60.6198 27.2246 57.9825 21.3036 53.2674 19.9836Z" fill="#B2ECF7"/>
<path fill-rule="evenodd" clip-rule="evenodd" d="M40.368 35.6924C42.4959 37.9294 45.3501 39.1704 48.4045 39.1874H48.4634C51.4737 39.1874 54.3338 37.9394 56.5196 35.6694C58.7486 33.3584 59.9823 30.2394 59.9097 27.1144C59.8145 23.0724 57.5178 19.9254 55.5783 18.4584C53.3071 16.7394 50.5894 15.8904 47.7283 16.0114C44.0575 16.1604 40.845 18.1634 38.939 21.1234C37.7602 20.6094 36.6393 20.1214 35.5479 19.6454C38.2136 15.2744 42.8551 12.2284 48.0699 12.0154C48.325 12.0054 48.5783 12.0004 48.8305 12.0004C52.675 12.0004 56.3046 13.2144 59.3679 15.5324C62.2751 17.7324 65.2647 22.3224 65.3884 27.6164C65.4934 32.0334 63.7307 36.4554 60.5565 39.7504C57.4579 42.9664 53.4318 44.7334 49.2054 44.7334H49.121C44.8221 44.7094 40.8038 42.9614 37.8073 39.8104C34.7058 36.5484 33.0637 32.1874 33.1834 27.5324C33.2237 26.0264 33.4838 24.5654 33.9245 23.1774C35.0463 23.6424 36.2084 24.1274 37.4353 24.6464C37.2478 25.4234 37.1301 26.2294 37.1085 27.0594C37.0241 30.3264 38.1822 33.3924 40.368 35.6924ZM49.5823 25.7924C46.6025 24.4744 44.0447 23.3524 41.7372 22.3434C43.1731 20.4144 45.3884 19.1094 47.847 19.0084C47.9825 19.0034 48.1179 19.0004 48.2514 19.0004C50.2851 19.0004 52.2039 19.6414 53.8214 20.8664C55.3398 22.0144 56.9004 24.4144 56.9652 27.1854C57.0192 29.5054 56.0926 31.8314 54.4192 33.5684C52.7899 35.2574 50.6767 36.1884 48.4193 36.1874C46.1638 36.1754 44.0555 35.2574 42.4841 33.6054C40.8529 31.8894 39.9882 29.5924 40.051 27.1394C40.0628 26.6934 40.1187 26.2574 40.2002 25.8284C42.5636 26.8514 45.1901 28.0164 48.2455 29.4224C48.4644 29.5234 48.6911 29.5634 48.9149 29.5634C49.6295 29.5634 50.3047 29.0984 50.5864 28.3344C50.9555 27.3324 50.504 26.2004 49.5823 25.7924ZM65.4905 44.6994C60.8362 49.5294 54.7833 52.1834 48.4301 52.1834H48.3025C41.8383 52.1474 35.7991 49.5194 31.296 44.7844C26.6388 39.8864 24.1723 33.3414 24.3529 26.3544C24.4147 24.0394 24.8162 21.7914 25.5062 19.6624C27.4436 20.4964 29.282 21.2594 31.1645 22.0374C30.6129 23.7494 30.29 25.5674 30.2409 27.4524C30.0996 32.9214 32.0351 38.0524 35.6931 41.8974C39.2442 45.6324 44.0064 47.7044 49.1063 47.7334H49.2064C54.2278 47.7334 59.0008 45.6474 62.6579 41.8514C66.3866 37.9824 68.4556 32.7674 68.3329 27.5444C68.1739 20.8074 64.351 15.5654 61.1238 13.1234C57.3116 10.2394 52.7555 8.81939 47.9531 9.01839C41.4732 9.28139 35.8561 13.0124 32.7673 18.4304C30.9054 17.6144 29.0602 16.7994 27.0854 15.9174C30.9132 8.58339 38.3432 3.36539 46.7429 3.02339C47.1247 3.00839 47.5045 3.00039 47.8824 3.00039C53.6438 3.00039 59.0823 4.81939 63.6727 8.29339C68.0512 11.6064 72.5524 18.5134 72.7398 26.4794C72.8969 33.1154 70.2527 39.7554 65.4905 44.6994ZM14.6331 16.5554C14.162 16.7834 13.6889 17.0114 13.2168 17.2434C10.1408 16.3464 7.2326 14.9414 4.62476 13.4914C5.87519 12.8654 7.13838 12.2014 8.38979 11.5004C8.47027 11.5634 8.55272 11.6224 8.64596 11.6704C11.6425 13.1984 14.2454 14.4844 16.5843 15.6044C15.9316 15.9264 15.277 16.2444 14.6331 16.5554ZM17.5913 6.81739C17.9781 8.84239 18.3824 10.6094 18.7976 12.1504C16.3095 11.0044 13.523 9.70839 10.2792 8.18539C10.2095 8.15239 10.1378 8.13239 10.0662 8.10939C9.76781 7.01239 9.4714 5.91739 9.17793 4.82539C9.11315 4.58639 9.04837 4.34539 8.98458 4.10739C12.0184 5.13239 14.7833 6.02039 17.5913 6.81739ZM65.4296 5.88539C59.9902 1.76939 53.4818 -0.25861 46.6251 0.0263904C36.9102 0.42139 28.541 6.28339 24.3215 14.6744C23.6923 14.3894 23.0436 14.0954 22.3752 13.7904C21.6626 11.7754 20.9716 8.94839 20.314 5.34439C20.211 4.77739 19.7978 4.32039 19.2511 4.17039C15.4134 3.11239 11.7004 1.88439 7.30327 0.36639C6.78994 0.18839 6.21675 0.31439 5.81924 0.69639C5.42272 1.07839 5.26568 1.65239 5.4129 2.18839C5.72502 3.33539 6.03125 4.47639 6.33944 5.61739C6.62014 6.66839 6.90085 7.71739 7.18745 8.77139C5.65533 9.63839 4.06039 10.4334 2.50962 11.2064C1.94526 11.4874 1.37992 11.7694 0.81752 12.0544C0.331677 12.2994 0.0195606 12.7964 0.000912092 13.3464C-0.0167549 13.8974 0.262972 14.4154 0.731148 14.6934C4.20664 16.7614 8.38194 19.0434 12.9793 20.2884C13.1373 20.3304 13.3002 20.3454 13.4612 20.3344C13.6457 20.3214 13.8283 20.2734 13.9981 20.1884C14.6302 19.8784 15.2632 19.5724 15.8953 19.2654C17.2508 18.6104 18.6465 17.9304 20.0117 17.2154C20.9657 17.6554 21.8785 18.0684 22.7589 18.4604C21.9531 20.9284 21.482 23.5524 21.4113 26.2744C21.2092 34.0744 23.9681 41.3894 29.1819 46.8714C34.2395 52.1914 41.0246 55.1434 48.2877 55.1834H48.4301C55.5793 55.1834 62.3801 52.2104 67.5909 46.8024C72.9087 41.2824 75.8581 33.8494 75.6843 26.4074C75.4586 16.8164 70.0181 9.35839 65.4296 5.88539Z" fill="#007398"/>
</svg>
