<svg width="69" height="69" viewBox="0 0 69 69" fill="none" xmlns="http://www.w3.org/2000/svg">
<path fill-rule="evenodd" clip-rule="evenodd" d="M21.1114 56.7638C20.59 56.6742 20.0726 56.5561 19.5472 56.4359L16.3047 55.5214C15.6896 55.3463 15.0725 55.1691 14.4595 54.9817C13.71 54.7536 12.9666 54.5031 12.2232 54.2526L11.8077 54.1141C11.1702 53.8982 10.5368 53.6802 10.0031 53.499C9.96851 53.4643 9.94 53.4236 9.91352 53.3849C9.66504 53.055 9.36361 52.9796 9.16605 52.9307C8.27397 52.7006 7.60389 53.0652 7.17822 54.002C7.07639 54.224 6.95011 54.4338 6.82383 54.6436C6.63442 54.9573 6.44908 55.2729 6.31466 55.6131L6.13543 56.0632C5.84621 56.7781 5.54682 57.5154 5.4348 58.3667C5.40832 58.5704 5.35537 58.772 5.30445 58.9736C5.24742 59.1957 5.19039 59.4197 5.15373 59.6478C5.09467 60.0327 5.08245 60.4299 5.07226 60.8658C5.06412 61.2487 5.0743 61.6336 5.08652 62.0145C5.09263 62.21 5.11503 62.4137 5.15781 62.6051C5.1965 62.7803 5.22909 62.9595 5.26168 63.1408C5.35333 63.6438 5.44702 64.1632 5.66495 64.6683L5.779 64.9575C5.93583 65.375 6.13339 65.8944 6.60794 66.3017C6.6996 66.3812 6.79532 66.5176 6.89716 66.6622C7.01529 66.8354 7.13952 67.0044 7.39615 67.2732C7.71795 67.6093 8.08456 67.9922 8.53671 68.2509C9.13143 68.589 9.83206 68.7886 10.5653 68.8232C10.7364 68.8313 10.9074 68.8497 11.0785 68.868C11.3535 68.8945 11.6264 68.923 11.8973 68.923C11.9767 68.923 12.0561 68.9209 12.1356 68.9148C12.938 68.8598 13.8647 68.7723 14.7242 68.3914C15.4452 68.0716 16.1642 67.7498 16.875 67.4036C17.5064 67.0981 18.0828 66.6765 18.6388 66.1184C19.152 65.6011 19.6449 65.0288 20.1439 64.3709C20.7529 63.5705 21.1175 62.6581 21.4189 61.7925C21.6226 61.21 21.7875 60.6091 21.9525 60.0063L22.203 59.1203C22.2865 58.8576 22.3802 58.5602 22.3986 58.2262C22.4434 57.4665 21.9505 56.9064 21.1114 56.7638Z" fill="#B2ECF7"/>
<path fill-rule="evenodd" clip-rule="evenodd" d="M30.451 35.8564C30.4367 35.6181 30.4225 35.3819 30.4164 35.1456C30.3879 34.1741 30.2412 33.1863 29.9683 32.1272C29.8909 31.8299 29.7667 31.5427 29.6404 31.2575C29.5569 31.0661 29.4713 30.8746 29.4102 30.6771C29.1027 29.673 28.4958 28.899 27.8481 28.1312C27.3389 27.5263 26.6627 27.0497 25.7788 26.6729C25.4896 26.5487 25.182 26.4794 24.8745 26.4142L24.2777 26.288C24.1515 26.2615 24.0333 26.2411 23.9559 26.2065C23.237 25.903 22.6524 26.1739 22.2614 26.3552L22.0923 26.4305C21.7787 26.565 21.4752 26.7259 21.1718 26.8868L20.964 26.9967C20.7624 27.1027 20.5607 27.2167 20.3734 27.343L19.9457 27.6281C19.4304 27.9723 18.9151 28.3145 18.4161 28.6791C17.97 29.0029 17.3896 29.4388 16.8437 29.9439C16.2898 30.453 15.75 31.0091 15.2429 31.5916C14.585 32.339 14.0412 33.0112 13.5748 33.6507C13.1043 34.2922 12.5096 35.1619 12.084 36.1945C11.752 36.9685 11.4322 37.7343 11.1165 38.496L10.591 39.7404C10.4139 40.1498 10.2367 40.5612 10.0798 40.9788C9.87412 41.5266 9.70508 42.0928 9.54418 42.659L9.44234 43.0073C9.15924 43.9768 8.86392 44.9809 8.81707 46.0828L8.76412 47.1581C8.73764 47.7203 8.70913 48.2804 8.6908 48.8445C8.67654 49.3374 8.82929 50.2254 10.0106 50.6348C10.3731 50.759 10.7357 50.8711 11.1002 50.9851L12.6665 51.4882C13.1593 51.6511 13.6522 51.81 14.1471 51.9627C14.7439 52.146 15.3427 52.3232 15.9394 52.4984C16.6421 52.7041 17.3448 52.9139 18.0474 53.1318C19.0902 53.4536 20.133 53.7937 21.1656 54.1563C21.5445 54.2907 21.9152 54.4516 22.2858 54.6125L22.8439 54.8528C22.9885 54.9119 23.1351 54.9445 23.2777 54.9445C23.4529 54.9445 23.6219 54.8976 23.7686 54.808C24.0293 54.6512 24.1942 54.3722 24.2227 54.0402C24.235 53.9221 24.239 53.7978 24.2431 53.6756C24.2492 53.531 24.2492 53.3884 24.2757 53.2499C24.2981 53.1338 24.3918 52.9668 24.4509 52.8609L25.7544 50.5859C26.0517 50.0564 26.3491 49.5289 26.6179 48.981C26.7809 48.649 26.9295 48.3089 27.0782 47.9688C27.1821 47.7345 27.2839 47.4983 27.3919 47.264C27.4815 47.0746 27.5772 46.8873 27.6729 46.6999C27.8298 46.3903 27.9845 46.0807 28.1169 45.7589C28.4734 44.8974 28.8053 44.0257 29.121 43.1438C29.3817 42.4126 29.616 41.6712 29.8359 40.9258C29.9785 40.4472 30.0946 39.9563 30.1862 39.4614C30.2942 38.8769 30.3797 38.2842 30.451 37.6874C30.5284 37.0601 30.4897 36.4471 30.451 35.8564Z" fill="#B2ECF7"/>
<path fill-rule="evenodd" clip-rule="evenodd" d="M68.9387 10.3177C68.9082 9.97352 68.8756 9.62932 68.8165 9.28919L68.786 9.09163C68.7229 8.6517 68.6271 7.98569 67.9591 7.53558C67.8797 7.48059 67.79 7.38486 67.6943 7.28507L67.2381 6.83088C67.0039 6.59666 66.7676 6.36447 66.4947 6.18117C65.6515 5.61904 64.8429 5.29316 64.0221 5.19133C62.9712 5.06301 61.9386 4.96729 60.8775 5.2728C60.6656 5.33186 60.4436 5.36648 60.2216 5.40315C59.8958 5.45406 59.574 5.50905 59.2685 5.61293C58.1747 5.97953 57.2134 6.41743 56.3356 6.95105C56.1197 7.08343 55.8997 7.20767 55.6777 7.33191C55.1339 7.63945 54.5698 7.95718 54.0606 8.38285C53.5758 8.78816 53.0993 9.20772 52.641 9.64154C52.2561 10.0061 51.8874 10.391 51.5473 10.7923C51.0116 11.4196 50.4862 12.053 49.9912 12.7048C49.3884 13.493 48.8079 14.2913 48.2458 15.104C48.038 15.4054 47.8527 15.7211 47.6694 16.0368C47.5614 16.2303 47.4474 16.4238 47.3293 16.6132C47.1867 16.8413 47.04 17.0653 46.8914 17.2894C46.6714 17.6214 46.4535 17.9534 46.2498 18.2935C45.9239 18.8393 45.6286 19.4015 45.3231 19.984L44.0563 22.4524C43.9789 22.6032 43.8933 22.758 43.8017 22.8455C43.6937 22.9474 43.5695 23.0329 43.4432 23.1205C43.3353 23.1958 43.2294 23.2712 43.1255 23.3506C42.8607 23.5604 42.7141 23.8578 42.7263 24.1674C42.7344 24.4871 42.9055 24.7763 43.2008 24.978L43.7487 25.3425C44.1011 25.5768 44.4555 25.811 44.7874 26.0676C45.708 26.7784 46.6103 27.5076 47.4983 28.2489C48.091 28.7418 48.6755 29.2428 49.2641 29.7418C49.7692 30.1757 50.2784 30.6095 50.7876 31.0372C51.2153 31.3956 51.6471 31.7439 52.0829 32.0942L53.4088 33.1737C53.7205 33.4344 54.03 33.6951 54.3518 33.9456C54.8121 34.3041 55.2419 34.4263 55.6105 34.4263C56.0606 34.4263 56.4232 34.243 56.6554 34.0821C57.1442 33.746 57.6248 33.3977 58.1055 33.0494L59.0342 32.3794C59.9772 31.7093 60.6982 30.8742 61.3948 30.0657L61.6514 29.7642C62.0608 29.2938 62.4641 28.8192 62.8327 28.3222C63.1158 27.9373 63.3806 27.5401 63.6453 27.141L64.3786 26.0574C64.8918 25.3079 65.4091 24.5543 65.9224 23.7906C66.5904 22.815 67.0202 21.7885 67.3216 21.0003C67.619 20.2161 67.896 19.3668 68.1892 18.3342C68.4112 17.548 68.5905 16.7497 68.7229 15.9676C68.8552 15.2181 68.9062 14.4747 68.9408 13.8453C68.9754 13.1895 68.9856 12.5337 68.9917 11.8778L68.9999 11.332C69.0019 11.0937 68.9897 10.8554 68.9652 10.6131L68.9387 10.3177Z" fill="#B2ECF7"/>
<path fill-rule="evenodd" clip-rule="evenodd" d="M51.9554 36.1079L51.8882 36.1385C51.3118 35.7148 50.7517 35.2769 50.1957 34.835L49.9106 34.6089C49.2323 34.0732 48.5541 33.5355 47.8922 32.9795C47.3667 32.5376 46.8474 32.0874 46.33 31.6353L43.6925 29.3257C43.2709 28.9183 42.8595 28.5171 42.4684 28.0955C41.8757 27.4519 41.112 27.3358 40.4786 27.8002C40.1995 28.0059 39.9897 28.2584 39.8044 28.4825L39.1608 29.2198C38.7229 29.7126 38.283 30.2035 37.8858 30.7188C37.2931 31.4846 36.6944 32.3298 36.3359 33.3278C36.0365 34.1608 35.8145 34.9266 35.6556 35.668C35.4805 36.4806 35.4397 37.2301 35.5314 37.9634C35.6332 38.7923 35.7595 39.6172 35.8939 40.44C36.0508 41.4197 36.5049 42.2914 36.9164 43.0307C37.0956 43.3525 37.3318 43.6478 37.5701 43.9431C37.6822 44.0816 37.7982 44.2242 37.9042 44.3688C38.3502 44.992 38.9266 45.4951 39.5661 45.8271C40.0529 46.0796 40.6048 46.1815 41.2545 46.3057C41.4664 46.3465 41.6884 46.3566 41.9083 46.3628C42.0957 46.3709 42.2749 46.377 42.3992 46.4137C42.6354 46.4829 42.8615 46.5094 43.0794 46.5094C43.4399 46.5094 43.7699 46.4361 44.0571 46.375L44.3809 46.3078C44.9491 46.21 45.4604 45.9982 45.9573 45.7884C46.1365 45.7151 46.3158 45.6397 46.495 45.5725C46.6905 45.5012 46.8779 45.4035 47.0551 45.2955C47.4034 45.0857 47.7496 44.8739 48.1508 44.599C48.4828 44.3729 48.8189 44.1407 49.1162 43.8759C49.2955 43.713 49.4605 43.5358 49.6254 43.3566C49.7741 43.1936 49.9228 43.0307 50.0918 42.884C50.7741 42.3015 51.2528 41.6172 51.7171 40.9573L52.0226 40.5235C52.2487 40.2098 52.4198 39.8636 52.5888 39.5153C52.7009 39.2831 52.8129 39.0489 52.9514 38.829C53.5298 37.9287 53.4667 37.1446 52.766 36.4969C52.6133 36.3523 52.3791 36.1344 51.9554 36.1079Z" fill="#B2ECF7"/>
<path fill-rule="evenodd" clip-rule="evenodd" d="M65.1136 5.24839L65.1401 5.54371C65.1646 5.78608 65.1768 6.02438 65.1747 6.26267L65.1666 6.80851C65.1605 7.46433 65.1503 8.12015 65.1157 8.77597C65.081 9.40532 65.0301 10.1487 64.8977 10.8982C64.7654 11.6803 64.5861 12.4787 64.3641 13.2649C64.0708 14.2975 63.7938 15.1468 63.4965 15.9309C63.1951 16.7191 62.7653 17.7456 62.0973 18.7212C61.6373 19.4056 61.1742 20.0819 60.7136 20.7543L60.5534 20.9881L59.8202 22.0716C59.5555 22.4708 59.2907 22.868 59.0076 23.2529C58.6389 23.7499 58.2357 24.2244 57.8263 24.6949L57.5697 24.9963C56.8731 25.8049 56.1521 26.64 55.2091 27.31L54.2804 27.9801L54.2802 27.9803C53.7996 28.3285 53.319 28.6767 52.8302 29.0127C52.5981 29.1736 52.2355 29.3569 51.7854 29.3569C51.4168 29.3569 50.987 29.2347 50.5267 28.8763C50.2297 28.6451 49.9431 28.4052 49.6557 28.1646L49.5837 28.1044L48.2578 27.0249C47.822 26.6746 47.3902 26.3263 46.9625 25.9678C46.4533 25.5401 45.9441 25.1063 45.439 24.6725C45.2816 24.539 45.1244 24.4054 44.9673 24.2718C44.5371 23.906 44.1073 23.5406 43.6732 23.1796C42.7852 22.4382 41.8829 21.7091 40.9623 20.9983C40.642 20.7506 40.3008 20.5239 39.9607 20.2978L39.9236 20.2732L39.3757 19.9086C39.0804 19.707 38.9093 19.4178 38.9012 19.098C38.889 18.7884 39.0356 18.4911 39.3004 18.2813C39.4042 18.2019 39.5102 18.1265 39.6181 18.0512L39.6264 18.0454C39.7498 17.9598 39.871 17.8758 39.9766 17.7762C40.0682 17.6886 40.1538 17.5338 40.2311 17.3831L41.498 14.9146C41.8035 14.3321 42.0988 13.77 42.4247 13.2241C42.6284 12.884 42.8463 12.552 43.0662 12.22C43.2149 11.996 43.3616 11.772 43.5041 11.5439C43.6223 11.3544 43.7363 11.161 43.8443 10.9675C44.0276 10.6518 44.2129 10.3361 44.4207 10.0347C44.9828 9.22201 45.5633 8.42362 46.1661 7.63542C46.661 6.98367 47.1865 6.35025 47.7222 5.72294C48.0623 5.32171 48.4309 4.93677 48.8159 4.5722C49.2741 4.13838 49.7507 3.71882 50.2355 3.31352C50.7398 2.8919 51.2981 2.57618 51.8371 2.27136L51.8526 2.26257C52.0746 2.13833 52.2946 2.0141 52.5105 1.88171C53.3883 1.34809 54.3496 0.910199 55.4433 0.543591C55.7488 0.439719 56.0706 0.384727 56.3965 0.33381C56.4126 0.331158 56.4286 0.328517 56.4447 0.325877C56.6506 0.292012 56.8558 0.258253 57.0523 0.20346C58.1135 -0.102046 59.1461 -0.00632099 60.197 0.121992C61.0178 0.223827 61.8264 0.549701 62.6696 1.11183C62.9425 1.29514 63.1788 1.52732 63.413 1.76154L63.8692 2.21573L63.8896 2.237C63.9777 2.32897 64.0602 2.41518 64.134 2.46624C64.802 2.91636 64.8977 3.58236 64.9609 4.02229L64.9914 4.21985C65.0505 4.55998 65.0831 4.90419 65.1136 5.24839ZM13.9098 55.9181C13.9165 55.8956 13.9232 55.8731 13.9298 55.8507L13.9848 55.6714L10.7179 54.7732L10.6568 54.757C10.1555 54.6239 9.65085 54.4899 9.15374 54.3333C8.21355 54.04 7.27706 53.7226 6.34251 53.4058L6.20662 53.3598L5.10476 52.9789C5.01517 52.9477 4.92558 52.916 4.836 52.8843C4.65674 52.821 4.47748 52.7576 4.29823 52.6978C3.84404 53.7549 3.43874 54.8038 3.26969 55.9444L3.23506 56.1827L3.23126 56.2079C3.14304 56.7932 3.05982 57.3454 3.0538 57.8996C3.04361 58.7143 3.21062 59.4699 3.54872 60.14C3.83793 60.7123 4.22694 61.2541 4.74019 61.7999C5.10476 62.1869 5.48767 62.3905 5.94185 62.4353C6.88078 62.5311 7.56104 62.4659 8.15168 62.2235L9.68736 61.584C9.81199 61.5296 9.93358 61.4722 10.0561 61.4143C10.0757 61.405 10.0954 61.3957 10.1151 61.3864L10.3065 61.2928C11.1884 60.7388 11.9114 60.032 12.4491 59.1705C12.8809 58.478 13.2292 57.7204 13.5408 57.0034C13.6906 56.6579 13.8005 56.287 13.9098 55.9181ZM14.4778 52.6876C15.0033 52.8078 15.5206 52.9259 16.042 53.0156C16.8811 53.1581 17.374 53.7182 17.3292 54.4779C17.3109 54.8119 17.2172 55.1093 17.1337 55.372L16.8832 56.258C16.7182 56.8609 16.5532 57.4617 16.3496 58.0442C16.0481 58.9098 15.6836 59.8222 15.0746 60.6227C14.5756 61.2805 14.0827 61.8528 13.5695 62.3702C13.0134 62.9282 12.437 63.3498 11.8057 63.6553C11.0949 64.0016 10.3759 64.3234 9.6549 64.6431C8.79541 65.024 7.8687 65.1116 7.06624 65.1666C6.98681 65.1727 6.90738 65.1747 6.82794 65.1747C6.57681 65.1747 6.32393 65.1502 6.0693 65.1255L6.00919 65.1197L6.0088 65.1197C5.83785 65.1014 5.66689 65.0831 5.49593 65.0749C4.76272 65.0403 4.06209 64.8407 3.46737 64.5026C3.01533 64.244 2.64879 63.8612 2.32705 63.5252L2.32681 63.525C2.07019 63.2561 1.94595 63.0871 1.82782 62.914L1.8247 62.9095C1.72403 62.7666 1.62932 62.6321 1.53861 62.5535C1.06405 62.1461 0.866493 61.6268 0.709666 61.2092L0.59561 60.92C0.379271 60.4186 0.285366 59.9031 0.194346 59.4035L0.192342 59.3925C0.159754 59.2112 0.127167 59.032 0.0884696 58.8568C0.0456987 58.6654 0.0232949 58.4617 0.0171847 58.2662C0.00496448 57.8853 -0.00521907 57.5004 0.00292777 57.1175C0.0131113 56.6816 0.0253316 56.2845 0.0843962 55.8995C0.121057 55.6714 0.178085 55.4474 0.235113 55.2254L0.24585 55.1829C0.293331 54.9954 0.340843 54.8078 0.365462 54.6184C0.476947 53.7712 0.774024 53.0368 1.06195 52.3252L1.06609 52.3149L1.24532 51.8648C1.37974 51.5247 1.56508 51.209 1.7545 50.8953C1.88077 50.6856 2.00705 50.4758 2.10889 50.2538C2.53456 49.3169 3.20464 48.9523 4.09671 49.1825C4.29428 49.2313 4.59571 49.3067 4.84419 49.6367C4.87067 49.6754 4.89918 49.7161 4.9338 49.7507C5.16175 49.8281 5.40791 49.9123 5.66481 50.0001C6.00932 50.1178 6.37316 50.2421 6.73833 50.3658L7.15382 50.5043C7.89722 50.7548 8.64062 51.0053 9.39013 51.2334C10.0032 51.4208 10.6203 51.598 11.2354 51.7732L14.4778 52.6876ZM21.887 36.9695C22.0459 36.4705 22.1722 35.9247 22.2618 35.3442C22.3718 34.6355 22.441 33.9185 22.4858 33.1996C22.5087 32.8586 22.4817 32.5123 22.4547 32.1673C22.4529 32.1434 22.451 32.1196 22.4492 32.0957L22.4084 31.5091L22.4053 31.4618C22.3738 30.9847 22.3424 30.5078 22.2536 30.0386C22.1489 29.4725 21.9764 28.9124 21.8051 28.3563L21.7994 28.3379L21.72 28.0813C21.5734 27.5986 21.3106 27.1037 20.942 26.6108C20.5184 26.0466 20.1334 25.6515 19.6242 25.5701C19.4308 25.5395 19.1762 25.5802 18.9827 25.6169C18.6588 25.68 18.3391 25.7676 18.0356 25.8857C17.6731 26.0304 17.2556 26.1994 16.8971 26.4194C16.3899 26.731 15.9072 27.0894 15.4307 27.4499C14.9296 27.8288 14.4266 28.2096 13.9622 28.6312L13.9602 28.6333C13.5528 28.9999 13.1781 29.4093 12.8176 29.8288L12.508 30.1852L12.5036 30.1902C12.0307 30.7342 11.5822 31.2501 11.2065 31.8126C10.6668 32.6191 10.1943 33.5173 9.75638 34.3686C9.56731 34.7349 9.42102 35.1264 9.27381 35.5203L9.2635 35.5479L8.87245 36.5581L8.79716 36.7501C8.45953 37.6111 8.1211 38.474 7.79503 39.3423C7.71764 39.546 7.66672 39.7598 7.6158 39.9737L7.3938 40.7843L7.3892 40.7998C7.29705 41.1103 7.20542 41.419 7.14532 41.7395C7.07944 42.0799 7.04316 42.4301 7.00693 42.7799C7.00283 42.8194 6.99874 42.8589 6.99461 42.8984L6.94369 43.3913C6.90703 43.6947 6.87444 43.9962 6.85 44.2996C6.84305 44.3553 6.83906 44.402 6.83551 44.4436C6.8349 44.4507 6.8343 44.4577 6.83371 44.4646C7.37343 44.6438 7.9152 44.8149 8.45696 44.986L11.4407 45.9127C11.5044 45.9307 11.5677 45.9486 11.6308 45.9664C12.0737 46.0915 12.5014 46.2123 12.9275 46.3425C13.5813 46.5441 14.2371 46.7518 14.8869 46.9677L15.1761 47.0655C15.7993 47.2692 16.4185 47.4769 17.0356 47.701C17.2881 47.2753 17.5387 46.8476 17.7688 46.4076C18.3024 45.3791 18.8259 44.3445 19.333 43.2996C19.608 42.7314 19.8605 42.1509 20.1131 41.5705L20.2902 41.1611C20.5489 40.5725 20.7628 40.0816 20.9542 39.5765C21.2801 38.715 21.606 37.8494 21.887 36.9695ZM25.5363 32.2133L25.5369 32.2238C25.5756 32.8145 25.6143 33.4275 25.5369 34.0548C25.4656 34.6516 25.3801 35.2443 25.2721 35.8288C25.1805 36.3237 25.0644 36.8146 24.9218 37.2932C24.7018 38.0387 24.4676 38.78 24.2069 39.5112C23.8912 40.3931 23.5592 41.2648 23.2028 42.1263C23.0704 42.4481 22.9156 42.7577 22.7588 43.0673C22.6631 43.2547 22.5674 43.442 22.4777 43.6315C22.4017 43.7966 22.3286 43.9627 22.2557 44.1284C22.2252 44.1978 22.1947 44.267 22.1641 44.3362C22.0154 44.6763 21.8667 45.0164 21.7038 45.3484C21.4424 45.881 21.1541 46.3944 20.8651 46.9091L20.8402 46.9533L19.5367 49.2283L19.5345 49.2323C19.4754 49.3384 19.3837 49.5027 19.3616 49.6174C19.34 49.7302 19.336 49.8458 19.332 49.963C19.331 49.9896 19.3301 50.0163 19.329 50.043L19.3289 50.0459C19.3249 50.1672 19.3208 50.2904 19.3086 50.4076C19.2801 50.7396 19.1151 51.0186 18.8544 51.1754C18.7078 51.265 18.5388 51.3119 18.3636 51.3119C18.221 51.3119 18.0744 51.2793 17.9298 51.2202L17.3717 50.9799C17.001 50.819 16.6304 50.6581 16.2515 50.5237C15.2189 50.1612 14.1761 49.821 13.1333 49.4992C12.4307 49.2813 11.728 49.0715 11.0253 48.8658C10.4286 48.6906 9.82978 48.5135 9.23302 48.3302C8.7381 48.1774 8.24522 48.0185 7.75233 47.8556L6.1861 47.3525C6.14862 47.3408 6.11116 47.3291 6.07371 47.3174C5.74698 47.2153 5.42172 47.1137 5.09646 47.0022C3.91517 46.5928 3.76242 45.7048 3.77668 45.2119C3.79188 44.744 3.81409 44.2788 3.83634 43.813C3.84091 43.7172 3.84548 43.6214 3.85 43.5256L3.90295 42.4502C3.94944 41.3566 4.24067 40.3594 4.5218 39.3967L4.52822 39.3747L4.63006 39.0265C4.79096 38.4603 4.96001 37.894 5.16571 37.3462C5.32254 36.9286 5.49973 36.5172 5.67693 36.1079L6.2024 34.8634C6.51809 34.1017 6.83785 33.3359 7.16984 32.5619C7.59551 31.5293 8.19023 30.6597 8.66071 30.0181C9.12711 29.3786 9.67092 28.7064 10.3288 27.959C10.8359 27.3765 11.3756 26.8205 11.9296 26.3113C12.4755 25.8062 13.0559 25.3703 13.502 25.0465C13.9722 24.7029 14.4569 24.3793 14.9424 24.0551C14.9721 24.0352 15.0018 24.0154 15.0315 23.9955L15.4592 23.7104C15.6466 23.5841 15.8483 23.4701 16.0499 23.3642L16.2576 23.2542L16.2577 23.2542C16.5611 23.0933 16.8646 22.9324 17.1782 22.798L17.3473 22.7226C17.7383 22.5413 18.3229 22.2704 19.0418 22.5739C19.1065 22.6028 19.1995 22.6218 19.302 22.6427C19.3222 22.6468 19.3428 22.651 19.3636 22.6554L19.9604 22.7817C20.2679 22.8468 20.5755 22.9161 20.8647 23.0403C21.7486 23.4171 22.4248 23.8937 22.934 24.4986C23.5816 25.2664 24.1886 26.0404 24.4961 27.0445C24.553 27.2282 24.6309 27.4067 24.7087 27.5848C24.7146 27.5982 24.7204 27.6116 24.7263 27.625C24.8526 27.9101 24.9768 28.1973 25.0542 28.4946C25.3271 29.5537 25.4737 30.5415 25.5023 31.513C25.5083 31.7458 25.5222 31.9786 25.5363 32.2133ZM48.2371 30.7261L48.3044 30.6956C48.728 30.722 48.9622 30.94 49.115 31.0846C49.8156 31.7322 49.8787 32.5164 49.3003 33.4166C49.1658 33.6303 49.0562 33.8574 48.9474 34.083L48.9378 34.103C48.7687 34.4512 48.5976 34.7975 48.3716 35.1111L48.0661 35.545L48.0513 35.5659C47.5915 36.2193 47.1159 36.8953 46.4408 37.4717C46.2717 37.6183 46.123 37.7813 45.9744 37.9442C45.8094 38.1234 45.6444 38.3006 45.4652 38.4636C45.1678 38.7283 44.8318 38.9605 44.4998 39.1866C44.0986 39.4616 43.7523 39.6734 43.404 39.8832C43.2268 39.9911 43.0395 40.0889 42.8439 40.1601C42.7006 40.2139 42.5572 40.2729 42.4138 40.3319C42.3779 40.3466 42.3421 40.3614 42.3063 40.376C41.8093 40.5858 41.2981 40.7976 40.7298 40.8954L40.406 40.9626L40.3737 40.9695C40.0941 41.0291 39.7754 41.097 39.4284 41.097C39.2104 41.097 38.9844 41.0706 38.7481 41.0013C38.6299 40.9664 38.462 40.9592 38.2845 40.9516L38.2573 40.9504C38.0373 40.9443 37.8153 40.9341 37.6035 40.8934L37.5602 40.8851C36.9292 40.7645 36.391 40.6617 35.9151 40.4147C35.2755 40.0828 34.6991 39.5797 34.2531 38.9564C34.1537 38.8208 34.0454 38.6869 33.9398 38.5564L33.9191 38.5308C33.6808 38.2355 33.4445 37.9401 33.2653 37.6183C32.8539 36.879 32.3997 36.0073 32.2429 35.0276C32.1084 34.2048 31.9822 33.3799 31.8803 32.551C31.7887 31.8178 31.8294 31.0683 32.0046 30.2556C32.1634 29.5143 32.3854 28.7485 32.6848 27.9154C33.0433 26.9175 33.6421 26.0722 34.2348 25.3064C34.6095 24.8202 35.0224 24.3557 35.4357 23.8907C35.4604 23.8629 35.4851 23.8352 35.5097 23.8074L36.1534 23.0701C36.3387 22.8461 36.5485 22.5935 36.8275 22.3878C37.4609 21.9234 38.2247 22.0395 38.8174 22.6831C39.2084 23.1047 39.6198 23.506 40.0414 23.9133L42.679 26.2229C43.1963 26.6751 43.7157 27.1252 44.2411 27.5672C44.9031 28.1232 45.5813 28.6609 46.2595 29.1965L46.5446 29.4226C47.1007 29.8646 47.6608 30.3025 48.2371 30.7261ZM43.4407 35.8954L43.6403 35.7202C44.5711 34.8994 45.2778 33.9177 45.9581 32.8973C45.7178 32.7038 45.4713 32.5144 45.2269 32.3291L44.1739 31.5083C44.0674 31.4238 43.9608 31.3393 43.8542 31.2549C43.1231 30.6755 42.3915 30.0958 41.6769 29.5021C41.2411 29.1416 40.8235 28.7648 40.408 28.388L37.6687 25.9562L37.5078 26.1477L37.4656 26.1972C37.2006 26.5084 36.9359 26.8193 36.7135 27.1558C36.2552 27.8503 35.7806 28.5999 35.4161 29.3799C34.9558 30.3596 34.744 31.4146 34.7704 32.6061L34.7949 32.7771C34.8132 32.934 34.8336 33.0908 34.86 33.2476L35.1798 34.9849C35.3041 35.653 35.6401 36.3007 36.2735 37.0868C36.5831 37.4718 36.9904 37.6978 37.5567 37.7997C38.3387 37.9422 39.0475 37.9728 39.7278 37.9015C40.5262 37.8139 41.2981 37.5288 42.0232 37.0441C42.5181 36.7121 42.9682 36.3149 43.4407 35.8954ZM61.9488 8.45213C61.904 9.11813 61.8531 9.78414 61.7471 10.442C61.6535 11.0204 61.5068 11.5907 61.3418 12.1528L61.2074 12.6253C60.9936 13.3687 60.796 14.0673 60.5088 14.7354C60.1056 15.6743 59.5984 16.5806 59.0729 17.5012C58.8489 17.8923 58.576 18.2589 58.3051 18.6275L57.6839 19.483C57.0566 20.3648 56.4273 21.2427 55.7857 22.1144C55.6472 22.2997 55.4863 22.4688 55.3274 22.6399L54.7347 23.3038C54.5087 23.5706 54.2806 23.8395 54.0239 24.0798C53.7266 24.367 53.4007 24.6277 53.0748 24.8904L52.6695 25.2163C52.419 25.424 52.1726 25.6277 51.8385 25.8884C51.8141 25.9067 51.7856 25.9312 51.7571 25.9515C51.2622 25.5625 50.7795 25.1633 50.2947 24.7641L47.8222 22.7111C47.3904 22.3262 46.9708 21.9616 46.5472 21.6052C45.9891 21.1388 45.429 20.6765 44.8608 20.2223L44.6286 20.0369C44.0726 19.5929 43.5145 19.1469 42.9422 18.7212C43.1805 18.2385 43.4188 17.7599 43.6856 17.2894C44.2925 16.2222 44.9097 15.157 45.5451 14.106C45.9036 13.5072 46.2926 12.9247 46.6796 12.3402L46.9484 11.9349C47.2641 11.4563 47.5777 10.9776 47.9179 10.5153C48.4983 9.72711 49.0768 8.94094 49.6959 8.18125C50.0524 7.74539 50.4678 7.31565 50.9281 6.90627C51.4923 6.39913 52.0931 5.92254 52.7082 5.46631C53.0198 5.23413 53.3681 5.04879 53.8529 4.78402L54.2683 4.55183C54.7225 4.29724 55.1767 4.04062 55.6574 3.84306C56.2317 3.6068 56.8427 3.43368 57.4497 3.26259L57.7083 3.18723C58.2257 3.03855 58.8285 2.9856 59.4782 3.02837C60.2339 3.08133 60.8143 3.19945 61.1911 3.61494C61.3357 3.77788 61.4457 4.02432 61.5272 4.22188C61.6555 4.54776 61.7634 4.88585 61.8347 5.23005C61.9386 5.72905 62.0078 6.14454 62.018 6.55188C62.0364 7.18326 61.9936 7.81871 61.9488 8.45213Z" fill="#007398"/>
</svg>

