<svg width="46" height="54" fill="none" xmlns="http://www.w3.org/2000/svg"><path fill-rule="evenodd" clip-rule="evenodd" d="M17.884 27.48c.259.246.29.642.303.999l.937 23.918a41.337 41.337 0 0 0 8.56-.91c-.644-7.96.744-15.942.764-23.929.002-.516.007-1.067.291-1.498.285-.431.963-.64 1.324-.27.526.538 1.378.538 2.13.502l8.627-.424c.2-.01.416-.024.574-.148.186-.146.241-.4.284-.632l1.277-6.935c.047-.253.084-.545-.085-.74-.15-.173-.405-.198-.633-.21a53.243 53.243 0 0 0-10.512.501c-.628.093-1.302.191-1.873-.086-1.06-.514-1.18-1.95-1.152-3.126l.203-8.708c.007-.337-.024-.746-.324-.9-.142-.074-.31-.068-.47-.06l-8.962.464c-.411.022-.95.169-.95.58.01 3.944.018 7.887.026 11.83.001.431-.032.933-.386 1.18-.203.142-.464.162-.712.176l-11.329.66c-.819.047-1 1.172-.904 1.987.136 1.143.34 2.278.608 3.397.292 1.213 1.047 2.68 2.284 2.522a55.436 55.436 0 0 1 9.17-.409c.33.013.69.041.93.269z" fill="#66D9F0" fill-opacity=".52"/><path fill-rule="evenodd" clip-rule="evenodd" d="M16.342 25.94c.263.241.3.636.32.993l1.355 23.898a41.331 41.331 0 0 0 8.543-1.06c-.783-7.947.465-15.952.346-23.937-.008-.517-.012-1.068.265-1.504.277-.436.951-.656 1.318-.293.536.53 1.388.515 2.14.465l8.617-.574c.201-.013.416-.032.572-.159.183-.15.234-.403.273-.636l1.156-6.957c.042-.253.074-.546-.098-.738-.154-.17-.409-.191-.637-.199-3.512-.119-7.035.11-10.501.685-.627.104-1.299.213-1.875-.054-1.068-.495-1.214-1.928-1.207-3.105l.051-8.71c.002-.338-.037-.746-.339-.895-.143-.072-.312-.062-.471-.051l-8.953.62c-.41.029-.947.185-.938.597l.231 11.827c.009.431-.016.934-.365 1.187-.2.146-.462.17-.708.188l-11.317.857c-.818.062-.98 1.19-.869 2.003a29.44 29.44 0 0 0 .668 3.386c.312 1.208 1.092 2.662 2.327 2.482a55.44 55.44 0 0 1 9.16-.569c.331.007.692.029.936.252zm-1.08-23.895L27.186.83c.436-.045.902-.083 1.287.124.713.384.783 1.361.763 2.171l-.246 9.582c-.014.54.174 1.282.71 1.23l11.067-1.087c.864-.085 1.88-.112 2.434.556.527.636.364 1.573.198 2.381a37.62 37.62 0 0 0-.766 8.002c.012.987-.268 2.338-1.255 2.317a80.043 80.043 0 0 0-11.517.587c-.247.03-.514.072-.684.254-.171.184-.193.457-.206.709-.3 5.983-.514 11.971-.641 17.96-.03 1.382-.034 2.846.671 4.034.162.273.365.541.393.857.077.844-1.005 1.238-1.844 1.351l-10.14 1.364c-.564.076-1.358-.023-1.39-.591L14.56 27.728l-10.386.624c-.416.025-.876.036-1.197-.23-.298-.247-.386-.66-.455-1.041l-1.65-9.055c-.057-.313-.114-.637-.04-.946.27-1.128 1.832-1.182 2.984-1.042 3.327.402 6.721.251 10-.445.198-.042.41-.095.54-.25.137-.165.142-.4.141-.616l-.076-12.126c-.003-.37.473-.518.842-.556z" fill="#007398"/></svg>