<svg width="54" height="52" fill="none" xmlns="http://www.w3.org/2000/svg"><path fill-rule="evenodd" clip-rule="evenodd" d="M39.579 10.824c-5.481 1.462-8.715 2.428-14.079 4.274-10.534 3.625 3.642 7.215 4.618 8.548 1.483 2.024-.131 5.32 1.239 7.423.947 1.453 4.975 2.002 6.532 1.237 1.362-.668 10.654-19.926 9.349-21.482-.965-1.151-2.928-.675-4.393-1.013l-3.266 1.013z" fill="#66D9F0" fill-opacity=".5"/><path fill-rule="evenodd" clip-rule="evenodd" d="M32.155 2.283c-.57-.12-1.163-.235-1.729-.1-.566.134-1.096.591-1.11 1.163l-.17 6.737c-.005.238-.015.49-.149.69-.291.437-1.027.345-1.38-.047-.353-.392-.424-.95-.47-1.47a40.79 40.79 0 0 1-.086-5.931c.048-.818-1.166-.984-1.981-.812-5.56 1.169-10.872 3.707-14.958 7.59-4.085 3.882-6.881 9.145-7.378 14.706 1.91-.1 3.82-.198 5.732-.297.991-.052 2.34.192 2.38 1.167.04.957-1.245 1.322-2.219 1.375l-5.19.285c-.593.032-.767.805-.748 1.388.175 5.443 2.496 10.793 6.373 14.69 3.877 3.895 9.271 6.297 14.81 6.595.728.039 1.717-.196 1.694-.91l-.186-5.742c-.028-.87.179-2.024 1.06-2.117.977-.104 1.36 1.204 1.378 2.17l.105 5.679c.005.228.033.498.236.61.122.068.272.053.412.036 5.993-.736 11.692-3.597 15.809-7.935 4.117-4.339 6.62-10.122 6.944-16.043a7.659 7.659 0 0 0-3.662.078c-.868.235-1.733.628-2.627.524-.894-.104-1.766-1.017-1.39-1.82.28-.594 1.038-.773 1.695-.88l5.815-.949c.344-.056.45-.484.47-.826.285-5.003-1.808-10.087-5.553-13.49-3.778-3.434-8.895-5.049-13.927-6.114zM48.7 40.073c-4.658 6.5-12.2 10.995-20.255 11.798-8.054.803-16.467-2.184-21.949-8.033-5.481-5.85-7.81-14.464-5.76-22.153C3.032 13.072 9.57 5.645 17.933 2.2c8.362-3.445 18.36-2.815 26.186 1.683 2.931 1.685 5.63 3.965 7.091 6.975 4.489 9.248 3.493 20.836-2.51 29.214z" fill="#007398"/><path fill-rule="evenodd" clip-rule="evenodd" d="M41.886 14.046l-16.877 5.14c-.832.255-1.361 1.035-1.816 1.765a189.767 189.767 0 0 0-10.499 19.227 303.548 303.548 0 0 0 19.45-8.414c.855-.406 1.732-.834 2.355-1.537.372-.42.636-.92.896-1.415l7.24-13.766c.164-.31.31-.737.043-.97-.207-.18-.528-.11-.792-.03zM21.715 20.17c.27-.377.143-.886.092-1.344-.05-.458.084-1.043.544-1.136a89.779 89.779 0 0 0 13.439-3.831c2.777-1.032 5.535-2.21 8.47-2.647.405-.06.846-.1 1.2.102.426.242.601.781.548 1.262-.054.481-.291.921-.524 1.348a356.918 356.918 0 0 0-8.7 17.069c-.3.63-.646 1.308-1.288 1.6a457.01 457.01 0 0 1-23.72 10.005c-.311.121-.646.244-.971.167-.464-.11-.743-.61-.751-1.078-.008-.468.192-.913.389-1.34 3.229-6.998 6.767-13.896 11.272-20.177z" fill="#007398"/><path fill-rule="evenodd" clip-rule="evenodd" d="M25.442 24.754c-.248.476-.476.986-.46 1.52.023.748.558 1.437 1.261 1.725.703.287 1.538.193 2.2-.178.608-.343 1.105-1.004.978-1.681-.084-.452.199-.92.082-1.366-.089-.337-.384-.575-.663-.79l-.95-.73c-.154-.12-.319-.244-.514-.273-.204-.03-.409.048-.587.15-.622.358-1.02.993-1.347 1.623zm4.05-3.64c1.43.543 2.537 1.818 2.897 3.282.36 1.463-.026 3.077-.98 4.256-.387.48-.862.889-1.386 1.22-1.245.787-2.814 1.121-4.248.756-1.433-.365-2.683-1.474-3.052-2.883a4.737 4.737 0 0 1-.133-1.34c.04-1.343.494-2.685 1.36-3.725.864-1.04 2.149-1.756 3.512-1.86a4.728 4.728 0 0 1 2.03.293z" fill="#007398"/></svg>