<svg width="54" height="54" fill="none" xmlns="http://www.w3.org/2000/svg"><path fill-rule="evenodd" clip-rule="evenodd" d="M3.965 36.931c-.588-2.173-.565-4.47-.313-6.708.79-7.024 3.905-13.828 8.986-18.694 5.081-4.865 12.145-7.672 19.135-7.202 6.989.47 13.76 4.336 17.431 10.356.802 1.315 1.457 2.715 2.075 4.127.992 2.262 1.901 4.58 2.368 7.008 1.347 7.002-1.258 14.49-6.167 19.622-4.908 5.133-11.898 7.987-18.95 8.489-1.302.092-2.613.11-3.91-.036-2.073-.233-4.079-.877-6.028-1.623-1.7-.65-3.384-1.39-4.85-2.474-1.22-.9-2.261-2.019-3.295-3.13-2.68-2.88-5.452-5.923-6.482-9.735zm37.606-2.575c1.339-3.374 2.702-7.007 1.949-10.566-.021-.1-.048-.207-.124-.273-.144-.127-.365-.036-.531.058a319.482 319.482 0 0 0-26.593 16.932c-.221.157-.464.352-.479.628-.01.193.099.37.218.52.56.699 1.409 1.075 2.243 1.366 1.55.54 3.16.873 4.764 1.203 2.538.522 5.25 1.03 7.648.031.56-.233 1.086-.543 1.604-.86a56.545 56.545 0 0 0 5.584-3.898c.812-.642 1.616-1.317 2.232-2.158.655-.896 1.074-1.946 1.485-2.983zM19.26 13.727c3.174-1.921 6.945-2.573 10.63-2.586 1.131-.004 2.278.051 3.363.386 1.928.597 3.494 2.019 4.988 3.407.292.272.595.56.734.94.139.379.054.878-.292 1.074L20.878 27.044l-2.37 1.344-8.17 4.633c-.114.065-.238.131-.366.112-.18-.028-.294-.21-.372-.378-.903-1.937-.285-4.235.458-6.242 1.869-5.052 4.668-10.042 9.2-12.786z" fill="#66D9F0" fill-opacity=".5"/><path fill-rule="evenodd" clip-rule="evenodd" d="M16.634 48.097c5.327 1.95 11.315 1.79 16.629-.2 5.313-1.99 9.94-5.76 13.245-10.472.678-.967 1.307-1.98 1.749-3.082.538-1.343.788-2.79.92-4.235.793-8.718-2.92-17.737-9.561-23.228C35.307 3.318 29.45 1.94 23.99 2.85c-5.46.91-10.482 4.007-14.126 8.28-3.643 4.274-5.94 9.67-6.91 15.263-.367 2.117-.548 4.305-.113 6.408.8 3.858 3.538 6.937 6.169 9.812 1.011 1.105 2.03 2.216 3.21 3.128 1.33 1.027 2.846 1.782 4.414 2.356zM.497 34.365c-.607-2.287-.584-4.705-.324-7.06.817-7.39 4.038-14.552 9.293-19.672C14.72 2.513 22.023-.44 29.25.053c7.227.495 14.23 4.564 18.025 10.899.829 1.384 1.506 2.857 2.146 4.343 1.025 2.38 1.965 4.82 2.448 7.375 1.392 7.368-1.302 15.248-6.377 20.65-5.075 5.4-12.303 8.404-19.594 8.932-1.347.097-2.703.115-4.045-.038-2.142-.245-4.216-.922-6.232-1.707-1.757-.685-3.5-1.464-5.015-2.604-1.26-.948-2.338-2.124-3.407-3.294-2.771-3.031-5.638-6.233-6.703-10.244z" fill="#007398"/><path fill-rule="evenodd" clip-rule="evenodd" d="M28.994 9.487c-3.685.013-7.456.665-10.63 2.587-4.533 2.744-7.332 7.734-9.2 12.785-.743 2.008-1.361 4.305-.459 6.243.079.168.192.35.372.377.129.02.253-.047.366-.111l8.17-4.633 2.37-1.344 17.805-10.096c.346-.197.43-.696.292-1.075-.14-.38-.442-.668-.735-.94-1.493-1.388-3.06-2.81-4.988-3.406-1.084-.336-2.23-.39-3.363-.387zM5.764 25.701c1.735-5.734 4.99-10.975 9.32-15.01.775-.721 1.608-1.42 2.598-1.767 2.884-1.011 5.8-2.003 8.826-2.384 3.026-.381 6.2-.115 8.924 1.29 2.139 1.104 3.89 2.844 5.607 4.556l.872.87c.187.187.379.38.475.629.322.822-.514 1.603-1.244 2.074a322.747 322.747 0 0 1-17.81 10.708c-4.435 2.475-8.988 4.89-12.657 8.45-.519.502-1.066 1.053-1.77 1.172-.817.137-1.634-.37-2.12-1.058-.488-.686-.712-1.528-.926-2.349-.368-1.412-.74-2.852-.67-4.312.048-.978.293-1.934.575-2.869zM40.677 32.702c1.338-3.374 2.702-7.007 1.949-10.566-.022-.1-.048-.207-.124-.273-.145-.127-.365-.036-.532.059a319.482 319.482 0 0 0-26.593 16.931c-.22.157-.464.352-.479.628-.01.193.1.37.219.52.56.699 1.408 1.075 2.243 1.366 1.55.541 3.159.873 4.764 1.203 2.537.522 5.25 1.03 7.648.031.56-.233 1.085-.543 1.604-.86a56.528 56.528 0 0 0 5.584-3.898c.812-.642 1.616-1.317 2.231-2.158.656-.896 1.075-1.946 1.486-2.983zm-15.08 13.534c-5.03-.792-10.34-1.71-14.233-5.077-.645-.557-1.288-1.3-1.21-2.161.087-.967 1.015-1.582 1.843-2.051a414.587 414.587 0 0 0 9.704-5.68 831.404 831.404 0 0 0 5.94-3.63l3.405-2.095 12.123-7.456c.608-.375 1.44-.04 1.87.541.429.58.556 1.331.67 2.05.316 2 .621 4.063.166 6.035-.146.635-.37 1.248-.593 1.859l-1.92 5.263c-.353.971-.71 1.948-1.223 2.84-1.033 1.8-2.644 3.168-4.308 4.37a41.269 41.269 0 0 1-8.738 4.829c-.537.216-1.085.422-1.658.486-.612.07-1.229-.027-1.838-.123z" fill="#007398"/></svg>