<svg width="42" height="48" fill="none" xmlns="http://www.w3.org/2000/svg"><path fill-rule="evenodd" clip-rule="evenodd" d="M40.566 45h.309c.619 0 1.125.506 1.125 1.125v.75c0 .619-.506 1.125-1.125 1.125H7.5A7.498 7.498 0 0 1 0 40.5v-33C0 3.356 3.356 0 7.5 0h32.25A2.245 2.245 0 0 1 42 2.25v34.5a2.26 2.26 0 0 1-1.397 2.081c-.337 1.51-.412 4.275-.037 6.169zM39 36V3H12v33h27zM3 37.5A7.502 7.502 0 0 1 7.5 36H9V3H7.5A4.501 4.501 0 0 0 3 7.5v30zM37.903 45c-.29-1.913-.272-4.237 0-6H7.5c-6 0-6 6 0 6h30.403zM24 10.687a1.5 1.5 0 0 1 3 0v4.5h4.5a1.5 1.5 0 0 1 0 3H27v10.125a1.5 1.5 0 0 1-3 0V18.188h-4.5a1.5 1.5 0 0 1 0-3H24v-4.5z" fill="#007398"/></svg>