<?xml version="1.0" encoding="UTF-8"?>
<svg width="19px" height="22px" viewBox="0 0 19 22" version="1.1" xmlns="http://www.w3.org/2000/svg" xmlns:xlink="http://www.w3.org/1999/xlink">
    <!-- Generator: Sketch 51.2 (57519) - http://www.bohemiancoding.com/sketch -->
    <title>calendar-alt</title>
    <desc>Created with Sketch.</desc>
    <defs></defs>
    <g id="Page-1" stroke="none" stroke-width="1" fill="none" fill-rule="evenodd">
        <g id="MH-Web-Organization-Cleanup" transform="translate(-692.000000, -586.000000)" fill="#979797" fill-rule="nonzero">
            <g id="calendar-alt" transform="translate(692.000000, 586.000000)">
                <path d="M6.27678571,12.375 L4.58035714,12.375 C4.30044643,12.375 4.07142857,12.1429687 4.07142857,11.859375 L4.07142857,10.140625 C4.07142857,9.85703125 4.30044643,9.625 4.58035714,9.625 L6.27678571,9.625 C6.55669643,9.625 6.78571429,9.85703125 6.78571429,10.140625 L6.78571429,11.859375 C6.78571429,12.1429687 6.55669643,12.375 6.27678571,12.375 Z M10.8571429,11.859375 L10.8571429,10.140625 C10.8571429,9.85703125 10.628125,9.625 10.3482143,9.625 L8.65178571,9.625 C8.371875,9.625 8.14285714,9.85703125 8.14285714,10.140625 L8.14285714,11.859375 C8.14285714,12.1429687 8.371875,12.375 8.65178571,12.375 L10.3482143,12.375 C10.628125,12.375 10.8571429,12.1429687 10.8571429,11.859375 Z M14.9285714,11.859375 L14.9285714,10.140625 C14.9285714,9.85703125 14.6995536,9.625 14.4196429,9.625 L12.7232143,9.625 C12.4433036,9.625 12.2142857,9.85703125 12.2142857,10.140625 L12.2142857,11.859375 C12.2142857,12.1429687 12.4433036,12.375 12.7232143,12.375 L14.4196429,12.375 C14.6995536,12.375 14.9285714,12.1429687 14.9285714,11.859375 Z M10.8571429,15.984375 L10.8571429,14.265625 C10.8571429,13.9820312 10.628125,13.75 10.3482143,13.75 L8.65178571,13.75 C8.371875,13.75 8.14285714,13.9820312 8.14285714,14.265625 L8.14285714,15.984375 C8.14285714,16.2679687 8.371875,16.5 8.65178571,16.5 L10.3482143,16.5 C10.628125,16.5 10.8571429,16.2679687 10.8571429,15.984375 Z M6.78571429,15.984375 L6.78571429,14.265625 C6.78571429,13.9820312 6.55669643,13.75 6.27678571,13.75 L4.58035714,13.75 C4.30044643,13.75 4.07142857,13.9820312 4.07142857,14.265625 L4.07142857,15.984375 C4.07142857,16.2679687 4.30044643,16.5 4.58035714,16.5 L6.27678571,16.5 C6.55669643,16.5 6.78571429,16.2679687 6.78571429,15.984375 Z M14.9285714,15.984375 L14.9285714,14.265625 C14.9285714,13.9820312 14.6995536,13.75 14.4196429,13.75 L12.7232143,13.75 C12.4433036,13.75 12.2142857,13.9820312 12.2142857,14.265625 L12.2142857,15.984375 C12.2142857,16.2679687 12.4433036,16.5 12.7232143,16.5 L14.4196429,16.5 C14.6995536,16.5 14.9285714,16.2679687 14.9285714,15.984375 Z M19,4.8125 L19,19.9375 C19,21.0761719 18.0881696,22 16.9642857,22 L2.03571429,22 C0.911830357,22 0,21.0761719 0,19.9375 L0,4.8125 C0,3.67382812 0.911830357,2.75 2.03571429,2.75 L4.07142857,2.75 L4.07142857,0.515625 C4.07142857,0.23203125 4.30044643,0 4.58035714,0 L6.27678571,0 C6.55669643,0 6.78571429,0.23203125 6.78571429,0.515625 L6.78571429,2.75 L12.2142857,2.75 L12.2142857,0.515625 C12.2142857,0.23203125 12.4433036,0 12.7232143,0 L14.4196429,0 C14.6995536,0 14.9285714,0.23203125 14.9285714,0.515625 L14.9285714,2.75 L16.9642857,2.75 C18.0881696,2.75 19,3.67382812 19,4.8125 Z M16.9642857,19.6796875 L16.9642857,6.875 L2.03571429,6.875 L2.03571429,19.6796875 C2.03571429,19.8214844 2.15022321,19.9375 2.29017857,19.9375 L16.7098214,19.9375 C16.8497768,19.9375 16.9642857,19.8214844 16.9642857,19.6796875 Z" id="Shape"></path>
            </g>
        </g>
    </g>
</svg>