<?xml version="1.0" encoding="UTF-8" standalone="no"?>
<svg width="24px" height="24px" viewBox="0 0 24 24" version="1.1" xmlns="http://www.w3.org/2000/svg" xmlns:xlink="http://www.w3.org/1999/xlink">
    <!-- Generator: Sketch 40.3 (33839) - http://www.bohemiancoding.com/sketch -->
    <title>Search</title>
    <desc>Created with Sketch.</desc>
    <defs></defs>
    <g id="MH-Ministries-View" stroke="none" stroke-width="1" fill="none" fill-rule="evenodd">
        <g id="Ministry-Surveys-1.2-Profile" transform="translate(-992.000000, -18.000000)" fill="#FFFFFF">
            <path d="M1015.78,40.72 L1009.572,34.512 C1011.081,32.761 1012,30.488 1012,28 C1012,22.486 1007.513,18 1002,18 C996.486,18 992,22.486 992,28 C992,33.514 996.486,38 1002,38 C1004.487,38 1006.76,37.082 1008.512,35.573 L1014.719,41.781 C1014.866,41.927 1015.057,42 1015.25,42 C1015.442,42 1015.633,41.927 1015.78,41.781 C1016.073,41.488 1016.073,41.013 1015.78,40.72 Z M1010.5,28 C1010.5,32.687 1006.686,36.5 1002,36.5 C997.313,36.5 993.5,32.687 993.5,28 C993.5,23.313 997.313,19.5 1002,19.5 C1006.686,19.5 1010.5,23.313 1010.5,28 Z" id="Search"></path>
        </g>
    </g>
</svg>