<?xml version="1.0" encoding="UTF-8"?>
<svg width="22px" height="24px" viewBox="0 0 22 24" version="1.1" xmlns="http://www.w3.org/2000/svg" xmlns:xlink="http://www.w3.org/1999/xlink">
    <!-- Generator: Sketch 50.2 (55047) - http://www.bohemiancoding.com/sketch -->
    <title>Fill 1</title>
    <desc>Created with Sketch.</desc>
    <defs></defs>
    <g id="Master" stroke="none" stroke-width="1" fill="none" fill-rule="evenodd">
        <g id="Survey-Responses-1.2-Multi-Select" transform="translate(-992.000000, -262.000000)" fill="#FFFFFF">
            <path d="M1014,278.25 L1014,274.75 C1014,274.739 1013.994,274.73 1013.994,274.72 C1013.992,274.665 1013.976,274.615 1013.962,274.562 C1013.951,274.52 1013.945,274.476 1013.927,274.437 C1013.908,274.396 1013.877,274.361 1013.85,274.324 C1013.82,274.281 1013.793,274.238 1013.754,274.202 C1013.746,274.195 1013.743,274.184 1013.734,274.177 L1010.484,271.427 C1010.349,271.313 1010.178,271.25 1010,271.25 L1004.038,271.25 L1007.792,267.331 C1008.078,267.032 1008.068,266.558 1007.769,266.271 C1007.469,265.984 1006.994,265.994 1006.708,266.294 L1003.75,269.382 L1003.75,262.75 C1003.75,262.336 1003.414,262 1003,262 C1002.586,262 1002.25,262.336 1002.25,262.75 L1002.25,269.382 L999.292,266.294 C999.005,265.994 998.529,265.984 998.231,266.271 C997.932,266.558 997.922,267.032 998.209,267.331 L1001.962,271.25 L996,271.25 C995.823,271.25 995.651,271.313 995.516,271.427 L992.266,274.177 C992.257,274.184 992.254,274.195 992.246,274.202 C992.207,274.238 992.18,274.281 992.149,274.324 C992.123,274.362 992.092,274.396 992.074,274.437 C992.055,274.476 992.049,274.52 992.038,274.562 C992.024,274.615 992.008,274.666 992.006,274.72 C992.006,274.731 992,274.739 992,274.75 L992,278.25 C992,278.664 992.336,279 992.75,279 L993.5,279 L993.5,285.25 C993.5,285.664 993.836,286 994.25,286 L1011.75,286 C1012.164,286 1012.5,285.664 1012.5,285.25 L1012.5,279 L1013.25,279 C1013.664,279 1014,278.664 1014,278.25 L1014,278.25 Z M995,279 L998,279 C998,280.654 999.346,282 1001,282 L1005,282 C1006.654,282 1008,280.654 1008,279 L1011,279 L1011,284.5 L995,284.5 L995,279 Z M1005,280.5 L1001,280.5 C1000.173,280.5 999.5,279.827 999.5,279 L1006.5,279 C1006.5,279.827 1005.827,280.5 1005,280.5 L1005,280.5 Z M1011.203,274 L994.797,274 L996.275,272.75 L1009.726,272.75 L1011.203,274 Z M1012.5,277.5 L1011.75,277.5 L994.25,277.5 L993.5,277.5 L993.5,275.5 L1012.5,275.5 L1012.5,277.5 Z" id="Fill-1"></path>
        </g>
    </g>
</svg>