<?xml version="1.0" encoding="UTF-8"?>
<svg width="16px" height="16px" viewBox="0 0 16 16" version="1.1" xmlns="http://www.w3.org/2000/svg" xmlns:xlink="http://www.w3.org/1999/xlink">
    <!-- Generator: Sketch 50.2 (55047) - http://www.bohemiancoding.com/sketch -->
    <title>Reveal Copy 7</title>
    <desc>Created with Sketch.</desc>
    <defs></defs>
    <g id="Master" stroke="none" stroke-width="1" fill="none" fill-rule="evenodd">
        <g id="Survey-Responses-1.2-Multi-Select" transform="translate(-1081.000000, -268.000000)" fill="#FFFFFF">
            <path d="M1098.0625,275.0625 L1089.9375,275.0625 L1089.9375,266.9375 C1089.9375,266.42 1089.5175,266 1089,266 C1088.4825,266 1088.0625,266.42 1088.0625,266.9375 L1088.0625,275.0625 L1079.9375,275.0625 C1079.42,275.0625 1079,275.4825 1079,276 C1079,276.5175 1079.42,276.9375 1079.9375,276.9375 L1088.0625,276.9375 L1088.0625,285.0625 C1088.0625,285.58 1088.4825,286 1089,286 C1089.5175,286 1089.9375,285.58 1089.9375,285.0625 L1089.9375,276.9375 L1098.0625,276.9375 C1098.58,276.9375 1099,276.5175 1099,276 C1099,275.4825 1098.58,275.0625 1098.0625,275.0625 Z" id="Reveal-Copy-7" transform="translate(1089.000000, 276.000000) rotate(45.000000) translate(-1089.000000, -276.000000) "></path>
        </g>
    </g>
</svg>