<?xml version="1.0" encoding="UTF-8"?>
<svg width="20px" height="24px" viewBox="0 0 20 24" version="1.1" xmlns="http://www.w3.org/2000/svg" xmlns:xlink="http://www.w3.org/1999/xlink">
    <!-- Generator: Sketch 50.2 (55047) - http://www.bohemiancoding.com/sketch -->
    <title>Shape Copy 5</title>
    <desc>Created with Sketch.</desc>
    <defs></defs>
    <g id="Master" stroke="none" stroke-width="1" fill="none" fill-rule="evenodd">
        <g id="Survey-Responses-1.2-Multi-Select" transform="translate(-1036.000000, -264.000000)" fill="#FFFFFF" fill-rule="nonzero">
            <path d="M1051,267 L1049.5,264.9 C1049.09375,264.332812 1048.45982,264 1047.78571,264 L1044.21429,264 C1043.54018,264 1042.90625,264.332812 1042.5,264.9 L1041,267 L1037.07143,267 C1036.47768,267 1036,267.501562 1036,268.125 L1036,268.21875 C1036,268.373438 1036.12054,268.5 1036.26786,268.5 L1037.42857,268.5 L1037.42857,285.75 C1037.42857,286.992188 1038.38839,288 1039.57143,288 L1052.42857,288 C1053.61161,288 1054.57143,286.992188 1054.57143,285.75 L1054.57143,268.5 L1055.73214,268.5 C1055.87946,268.5 1056,268.373438 1056,268.21875 L1056,268.125 C1056,267.501562 1055.52232,267 1054.92857,267 L1051,267 Z M1044.21429,265.5 L1047.78571,265.5 C1048.00893,265.5 1048.22321,265.6125 1048.35714,265.8 L1049.21429,267 L1042.78571,267 L1043.64286,265.8 C1043.77679,265.6125 1043.99107,265.5 1044.21429,265.5 Z M1053.14286,285.75 C1053.14286,286.1625 1052.82143,286.5 1052.42857,286.5 L1039.57143,286.5 C1039.17857,286.5 1038.85714,286.1625 1038.85714,285.75 L1038.85714,268.5 L1053.14286,268.5 L1053.14286,285.75 Z M1045.28571,283.6875 L1045.28571,271.3125 C1045.28571,271.003125 1045.52679,270.75 1045.82143,270.75 L1046.17857,270.75 C1046.47321,270.75 1046.71429,271.003125 1046.71429,271.3125 L1046.71429,283.6875 C1046.71429,283.996875 1046.47321,284.25 1046.17857,284.25 L1045.82143,284.25 C1045.52679,284.25 1045.28571,283.996875 1045.28571,283.6875 Z M1041.71429,283.6875 L1041.71429,271.3125 C1041.71429,271.003125 1041.95536,270.75 1042.25,270.75 L1042.60714,270.75 C1042.90179,270.75 1043.14286,271.003125 1043.14286,271.3125 L1043.14286,283.6875 C1043.14286,283.996875 1042.90179,284.25 1042.60714,284.25 L1042.25,284.25 C1041.95536,284.25 1041.71429,283.996875 1041.71429,283.6875 Z M1048.85714,283.6875 L1048.85714,271.3125 C1048.85714,271.003125 1049.09821,270.75 1049.39286,270.75 L1049.75,270.75 C1050.04464,270.75 1050.28571,271.003125 1050.28571,271.3125 L1050.28571,283.6875 C1050.28571,283.996875 1050.04464,284.25 1049.75,284.25 L1049.39286,284.25 C1049.09821,284.25 1048.85714,283.996875 1048.85714,283.6875 Z" id="Shape-Copy-5"></path>
        </g>
    </g>
</svg>