<?xml version="1.0" encoding="UTF-8"?>
<svg width="23px" height="24px" viewBox="0 0 23 24" version="1.1" xmlns="http://www.w3.org/2000/svg" xmlns:xlink="http://www.w3.org/1999/xlink">
    <!-- Generator: Sketch 50.2 (55047) - http://www.bohemiancoding.com/sketch -->
    <title>Combined Shape</title>
    <desc>Created with Sketch.</desc>
    <defs></defs>
    <g id="Master" stroke="none" stroke-width="1" fill="none" fill-rule="evenodd">
        <g id="Survey-Responses-1.2-Multi-Select" transform="translate(-900.000000, -262.000000)" fill="#FFFFFF">
            <path d="M922.2495,286.0003 L901.7495,286.0003 C901.3355,286.0003 900.9995,285.6643 900.9995,285.2503 L900.9995,272.7503 C900.9995,272.3363 901.3355,272.0003 901.7495,272.0003 L907.0205,272.0003 C907.4345,272.0003 907.7705,272.3363 907.7705,272.7503 C907.7705,273.1643 907.4345,273.5003 907.0205,273.5003 L902.4995,273.5003 L902.4995,284.5003 L921.4995,284.5003 L921.4905,273.5003 L916.9785,273.5003 C916.5645,273.5003 916.2285,273.1643 916.2285,272.7503 C916.2285,272.3363 916.5645,272.0003 916.9785,272.0003 L922.2405,272.0003 C922.6545,272.0003 922.9905,272.3353 922.9905,272.7493 L922.9995,285.2503 C922.9995,285.4483 922.9205,285.6403 922.7795,285.7803 C922.6395,285.9213 922.4485,286.0003 922.2495,286.0003 Z M911.4583,271.7681 L907.2083,267.3311 C906.9213,267.0321 906.9323,266.5571 907.2313,266.2711 C907.5283,265.9841 908.0043,265.9941 908.2913,266.2941 L911.2503,269.3821 L911.2503,262.7501 C911.2503,262.3361 911.5853,262.0001 912.0003,262.0001 C912.4143,262.0001 912.7503,262.3361 912.7503,262.7501 L912.7503,269.3821 L915.7083,266.2941 C915.9943,265.9941 916.4683,265.9841 916.7683,266.2711 C917.0683,266.5571 917.0783,267.0321 916.7913,267.3311 L912.5413,271.7681 C912.5393,271.7701 912.5373,271.7701 912.5353,271.7721 C912.4673,271.8421 912.3873,271.8981 912.2963,271.9381 C912.2953,271.9381 912.2953,271.9391 912.2943,271.9391 C912.2043,271.9781 912.1043,272.0001 912.0003,272.0001 C911.8953,272.0001 911.7953,271.9781 911.7053,271.9391 C911.7043,271.9391 911.7043,271.9381 911.7033,271.9381 C911.6123,271.8981 911.5323,271.8421 911.4643,271.7721 C911.4623,271.7701 911.4603,271.7701 911.4583,271.7681 Z M916.1276,281.1912 L914.5116,277.3312 C914.4636,277.2152 914.4416,277.1112 914.4416,277.0152 C914.4416,276.8182 914.5126,276.6382 914.6496,276.4972 C914.8786,276.2562 915.2696,276.2042 915.5686,276.3952 C915.6916,276.4762 915.7796,276.5772 915.8366,276.6992 L916.9706,279.5752 L918.0986,276.7152 C918.1626,276.5762 918.2526,276.4742 918.3716,276.3962 C918.6676,276.2032 919.0616,276.2542 919.2936,276.4992 C919.4286,276.6382 919.4996,276.8182 919.4996,277.0152 C919.4996,277.1152 919.4756,277.2222 919.4286,277.3332 L917.8166,281.1892 C917.7486,281.3452 917.6426,281.4732 917.5016,281.5712 C917.3566,281.6722 917.1946,281.7242 917.0166,281.7242 L916.9236,281.7242 C916.7476,281.7242 916.5846,281.6722 916.4386,281.5702 C916.2966,281.4722 916.1916,281.3442 916.1276,281.1912 Z M911.9124,280.3658 C912.6284,280.3658 912.6284,280.1248 912.6284,280.0208 C912.4344,279.9138 912.1904,279.8368 911.8514,279.7478 C911.4704,279.6578 911.1614,279.5658 910.9124,279.4688 C910.6294,279.3568 910.3834,279.1878 910.1814,278.9638 C909.9594,278.7158 909.8454,278.3948 909.8454,278.0078 C909.8454,277.4838 910.0394,277.0488 910.4214,276.7148 C910.7894,276.3928 911.3094,276.2298 911.9684,276.2298 C912.4774,276.2298 912.9654,276.3138 913.4194,276.4808 C913.5554,276.5168 913.6854,276.6098 913.7734,276.7408 C913.8534,276.8588 913.8934,276.9908 913.8934,277.1268 C913.8934,277.3038 913.8274,277.4698 913.7024,277.6018 C913.5284,277.7828 913.3224,277.8608 913.0104,277.7818 C912.3734,277.5868 911.7114,277.5688 911.4164,277.7578 C911.2954,277.8338 911.2794,277.9008 911.2794,277.9618 C911.2794,278.0208 911.2924,278.0528 911.3664,278.0898 C911.5134,278.1648 911.7604,278.2398 912.1004,278.3148 C912.4874,278.4138 912.7994,278.5088 913.0374,278.6028 C913.3114,278.7108 913.5514,278.8818 913.7484,279.1128 C913.9634,279.3608 914.0694,279.6888 914.0694,280.0848 C914.0694,280.5758 913.8754,280.9868 913.4894,281.3088 C913.1204,281.6158 912.6094,281.7708 911.9684,281.7708 C911.2994,281.7708 910.6804,281.6178 910.1294,281.3148 C909.9124,281.1648 909.8094,280.9648 909.8094,280.7348 C909.8094,280.5568 909.8734,280.3948 909.9924,280.2628 C910.1884,280.0528 910.4934,279.9918 910.7764,280.1138 C910.9574,280.1928 911.1354,280.2548 911.3204,280.3008 C911.4914,280.3438 911.6894,280.3658 911.9124,280.3658 Z M905.9097,281.4381 C905.4827,281.2131 905.1377,280.8891 904.8837,280.4711 C904.6287,280.0511 904.4997,279.5561 904.4997,279.0001 C904.4997,278.4441 904.6287,277.9491 904.8837,277.5301 C905.1377,277.1121 905.4827,276.7871 905.9087,276.5621 C906.6387,276.1811 907.6057,276.1491 908.2417,276.3721 C908.5007,276.4631 908.7457,276.5821 908.9687,276.7231 C909.1827,276.8611 909.2997,277.0701 909.2997,277.3121 C909.2997,277.4811 909.2347,277.6421 909.1107,277.7781 C908.8957,278.0131 908.5727,278.0601 908.2817,277.9031 C908.1007,277.8091 907.9417,277.7411 907.8097,277.6981 C907.6957,277.6621 907.5467,277.6441 907.3637,277.6441 C906.9147,277.6441 906.5777,277.7631 906.3337,278.0101 C906.0887,278.2571 905.9697,278.5821 905.9697,279.0001 C905.9697,279.4191 906.0887,279.7431 906.3337,279.9901 C906.5777,280.2371 906.9147,280.3561 907.3637,280.3561 C907.5467,280.3561 907.6957,280.3391 907.8097,280.3021 C907.9417,280.2601 908.1007,280.1911 908.2867,280.0941 C908.5647,279.9441 908.8947,279.9851 909.1107,280.2221 C909.2347,280.3581 909.2997,280.5191 909.2997,280.6881 C909.2997,280.9291 909.1827,281.1381 908.9717,281.2761 C908.7457,281.4181 908.5007,281.5371 908.2407,281.6281 C907.9707,281.7221 907.6497,281.7711 907.2877,281.7711 C906.7927,281.7711 906.3297,281.6581 905.9097,281.4381 Z" id="Combined-Shape"></path>
        </g>
    </g>
</svg>