<?xml version="1.0" encoding="UTF-8"?>
<svg width="24px" height="16px" viewBox="0 0 24 16" version="1.1" xmlns="http://www.w3.org/2000/svg" xmlns:xlink="http://www.w3.org/1999/xlink">
    <!-- Generator: Sketch 50.2 (55047) - http://www.bohemiancoding.com/sketch -->
    <title>Email Copy 9</title>
    <desc>Created with Sketch.</desc>
    <defs></defs>
    <g id="Master" stroke="none" stroke-width="1" fill="none" fill-rule="evenodd">
        <g id="Survey-Responses-1.2-Multi-Select" transform="translate(-856.000000, -267.000000)" fill="#FFFFFF">
            <path d="M880,282.251 L880,267.75 C880,267.336 879.664,267 879.25,267 L856.75,267 C856.336,267 856,267.336 856,267.75 L856,282.239 C856,282.653 856.335,282.989 856.75,282.989 L879.25,283 C879.449,283 879.639,282.921 879.78,282.781 C879.921,282.64 880,282.45 880,282.251 L880,282.251 Z M857.5,269.377 L863.584,274.351 L857.5,280.43 L857.5,269.377 Z M864.75,275.305 L867.525,277.573 C867.663,277.686 867.832,277.743 868,277.743 C868.168,277.743 868.337,277.686 868.475,277.573 L871.249,275.305 L877.45,281.501 L858.56,281.49 L864.75,275.305 Z M858.796,268.499 L877.205,268.499 L868,276.025 L858.796,268.499 Z M878.5,269.377 L878.5,280.43 L872.416,274.351 L878.5,269.377 Z" id="Email-Copy-9"></path>
        </g>
    </g>
</svg>