<?xml version="1.0" encoding="UTF-8"?>
<svg width="18px" height="20px" viewBox="0 0 18 20" version="1.1" xmlns="http://www.w3.org/2000/svg" xmlns:xlink="http://www.w3.org/1999/xlink">
    <!-- Generator: Sketch 51.2 (57519) - http://www.bohemiancoding.com/sketch -->
    <title>Shape</title>
    <desc>Created with Sketch.</desc>
    <defs></defs>
    <g id="Master-design" stroke="none" stroke-width="1" fill="none" fill-rule="evenodd">
        <g id="Manage-Organizations-2.0" transform="translate(-968.000000, -772.000000)" fill="#007398" fill-rule="nonzero">
            <path d="M981.125,774.5 L979.8125,772.75 C979.457031,772.277344 978.902344,772 978.3125,772 L975.1875,772 C974.597656,772 974.042969,772.277344 973.6875,772.75 L972.375,774.5 L968.9375,774.5 C968.417969,774.5 968,774.917969 968,775.4375 L968,775.515625 C968,775.644531 968.105469,775.75 968.234375,775.75 L969.25,775.75 L969.25,790.125 C969.25,791.160156 970.089844,792 971.125,792 L982.375,792 C983.410156,792 984.25,791.160156 984.25,790.125 L984.25,775.75 L985.265625,775.75 C985.394531,775.75 985.5,775.644531 985.5,775.515625 L985.5,775.4375 C985.5,774.917969 985.082031,774.5 984.5625,774.5 L981.125,774.5 Z M975.1875,773.25 L978.3125,773.25 C978.507812,773.25 978.695312,773.34375 978.8125,773.5 L979.5625,774.5 L973.9375,774.5 L974.6875,773.5 C974.804688,773.34375 974.992188,773.25 975.1875,773.25 Z M983,790.125 C983,790.46875 982.71875,790.75 982.375,790.75 L971.125,790.75 C970.78125,790.75 970.5,790.46875 970.5,790.125 L970.5,775.75 L983,775.75 L983,790.125 Z M976.125,788.40625 L976.125,778.09375 C976.125,777.835938 976.335938,777.625 976.59375,777.625 L976.90625,777.625 C977.164062,777.625 977.375,777.835938 977.375,778.09375 L977.375,788.40625 C977.375,788.664062 977.164062,788.875 976.90625,788.875 L976.59375,788.875 C976.335938,788.875 976.125,788.664062 976.125,788.40625 Z M973,788.40625 L973,778.09375 C973,777.835938 973.210938,777.625 973.46875,777.625 L973.78125,777.625 C974.039062,777.625 974.25,777.835938 974.25,778.09375 L974.25,788.40625 C974.25,788.664062 974.039062,788.875 973.78125,788.875 L973.46875,788.875 C973.210938,788.875 973,788.664062 973,788.40625 Z M979.25,788.40625 L979.25,778.09375 C979.25,777.835938 979.460938,777.625 979.71875,777.625 L980.03125,777.625 C980.289062,777.625 980.5,777.835938 980.5,778.09375 L980.5,788.40625 C980.5,788.664062 980.289062,788.875 980.03125,788.875 L979.71875,788.875 C979.460938,788.875 979.25,788.664062 979.25,788.40625 Z" id="Shape"></path>
        </g>
    </g>
</svg>