<?xml version="1.0" encoding="UTF-8"?>
<svg width="18px" height="24px" viewBox="0 0 18 24" version="1.1" xmlns="http://www.w3.org/2000/svg" xmlns:xlink="http://www.w3.org/1999/xlink">
    <!-- Generator: Sketch 50.2 (55047) - http://www.bohemiancoding.com/sketch -->
    <title>Fill 1</title>
    <desc>Created with Sketch.</desc>
    <defs></defs>
    <g id="Master" stroke="none" stroke-width="1" fill="none" fill-rule="evenodd">
        <g id="Import-Contacts-3.0" transform="translate(-601.000000, -644.000000)" fill="#626062">
            <path d="M619,660.5 L619,644.75 C619,644.336 618.664,644 618.25,644 L601.75,644 C601.336,644 601,644.336 601,644.75 L601,667.25 C601,667.664 601.336,668 601.75,668 L611.5,668 C611.602,668 611.699,667.979 611.788,667.943 C611.876,667.906 611.959,667.852 612.03,667.78 L618.78,661.03 C618.852,660.959 618.906,660.876 618.942,660.788 C618.979,660.699 619,660.602 619,660.5 Z M612.25,661.25 L616.439,661.25 L612.25,665.44 L612.25,661.25 Z M617.5,659.75 L611.5,659.75 C611.086,659.75 610.75,660.086 610.75,660.5 L610.75,666.5 L602.5,666.5 L602.5,645.5 L617.5,645.5 L617.5,659.75 Z M606,653.75 L614,653.75 C614.414,653.75 614.75,653.414 614.75,653 C614.75,652.586 614.414,652.25 614,652.25 L606,652.25 C605.586,652.25 605.25,652.586 605.25,653 C605.25,653.414 605.586,653.75 606,653.75 Z M614.75,650 C614.75,649.586 614.414,649.25 614,649.25 L606,649.25 C605.586,649.25 605.25,649.586 605.25,650 C605.25,650.414 605.586,650.75 606,650.75 L614,650.75 C614.414,650.75 614.75,650.414 614.75,650 Z M605.25,656 C605.25,656.414 605.586,656.75 606,656.75 L609.75,656.75 C610.164,656.75 610.5,656.414 610.5,656 C610.5,655.586 610.164,655.25 609.75,655.25 L606,655.25 C605.586,655.25 605.25,655.586 605.25,656 Z" id="Fill-1"></path>
        </g>
    </g>
</svg>