<?xml version="1.0" encoding="UTF-8"?>
<svg width="20px" height="24px" viewBox="0 0 20 24" version="1.1" xmlns="http://www.w3.org/2000/svg" xmlns:xlink="http://www.w3.org/1999/xlink">
    <!-- Generator: Sketch 50.2 (55047) - http://www.bohemiancoding.com/sketch -->
    <title>Shape Copy 5</title>
    <desc>Created with Sketch.</desc>
    <defs></defs>
    <g id="Master" stroke="none" stroke-width="1" fill="none" fill-rule="evenodd">
        <g id="Questions-1.2-Checkboxes" transform="translate(-992.000000, -482.000000)" fill="#505256" fill-rule="nonzero">
            <path d="M1007,485 L1005.5,482.9 C1005.09375,482.332812 1004.45982,482 1003.78571,482 L1000.21429,482 C999.540179,482 998.90625,482.332812 998.5,482.9 L997,485 L993.071429,485 C992.477679,485 992,485.501562 992,486.125 L992,486.21875 C992,486.373438 992.120536,486.5 992.267857,486.5 L993.428571,486.5 L993.428571,503.75 C993.428571,504.992188 994.388393,506 995.571429,506 L1008.42857,506 C1009.61161,506 1010.57143,504.992188 1010.57143,503.75 L1010.57143,486.5 L1011.73214,486.5 C1011.87946,486.5 1012,486.373438 1012,486.21875 L1012,486.125 C1012,485.501562 1011.52232,485 1010.92857,485 L1007,485 Z M1000.21429,483.5 L1003.78571,483.5 C1004.00893,483.5 1004.22321,483.6125 1004.35714,483.8 L1005.21429,485 L998.785714,485 L999.642857,483.8 C999.776786,483.6125 999.991071,483.5 1000.21429,483.5 Z M1009.14286,503.75 C1009.14286,504.1625 1008.82143,504.5 1008.42857,504.5 L995.571429,504.5 C995.178571,504.5 994.857143,504.1625 994.857143,503.75 L994.857143,486.5 L1009.14286,486.5 L1009.14286,503.75 Z M1001.28571,501.6875 L1001.28571,489.3125 C1001.28571,489.003125 1001.52679,488.75 1001.82143,488.75 L1002.17857,488.75 C1002.47321,488.75 1002.71429,489.003125 1002.71429,489.3125 L1002.71429,501.6875 C1002.71429,501.996875 1002.47321,502.25 1002.17857,502.25 L1001.82143,502.25 C1001.52679,502.25 1001.28571,501.996875 1001.28571,501.6875 Z M997.714286,501.6875 L997.714286,489.3125 C997.714286,489.003125 997.955357,488.75 998.25,488.75 L998.607143,488.75 C998.901786,488.75 999.142857,489.003125 999.142857,489.3125 L999.142857,501.6875 C999.142857,501.996875 998.901786,502.25 998.607143,502.25 L998.25,502.25 C997.955357,502.25 997.714286,501.996875 997.714286,501.6875 Z M1004.85714,501.6875 L1004.85714,489.3125 C1004.85714,489.003125 1005.09821,488.75 1005.39286,488.75 L1005.75,488.75 C1006.04464,488.75 1006.28571,489.003125 1006.28571,489.3125 L1006.28571,501.6875 C1006.28571,501.996875 1006.04464,502.25 1005.75,502.25 L1005.39286,502.25 C1005.09821,502.25 1004.85714,501.996875 1004.85714,501.6875 Z" id="Shape-Copy-5"></path>
        </g>
    </g>
</svg>