<?xml version="1.0" encoding="UTF-8"?>
<svg width="60px" height="60px" viewBox="0 0 60 60" version="1.1" xmlns="http://www.w3.org/2000/svg" xmlns:xlink="http://www.w3.org/1999/xlink">
    <!-- Generator: Sketch 51.2 (57519) - http://www.bohemiancoding.com/sketch -->
    <title>Group 15</title>
    <desc>Created with Sketch.</desc>
    <defs></defs>
    <g id="Master" stroke="none" stroke-width="1" fill="none" fill-rule="evenodd">
        <g id="RMI-3.2" transform="translate(-690.000000, -529.000000)" fill="#007398">
            <g id="Group-15" transform="translate(690.000000, 529.000000)">
                <path d="M5.84525504,35.3178502 C5.96968368,36.4540387 6.16682664,37.5878069 6.53618397,38.6724572 C6.97061277,39.9480265 7.63754169,41.1389565 8.39318495,42.2642536 C12.3380442,48.1388201 18.887619,52.2994581 26.013837,53.4577852 C27.5788379,53.7122015 29.1791958,53.8280911 30.7546967,53.6395213 C32.2876975,53.4560768 33.7707697,52.9880335 35.2069133,52.4347814 C41.4520594,50.0288608 47.0727766,45.8457994 50.5182784,40.2440862 C53.9637088,34.6423018 55.0677094,27.5879815 52.8606368,21.4319484 C52.403208,20.1560232 53.3885657,18.6648337 54.7289949,18.2986565 C56.0692813,17.9324793 57.5547107,18.5367713 58.4639255,19.5589921 C59.3730688,20.581213 59.7758547,21.9497503 59.8875691,23.2967896 C60.4863551,30.5135547 58.6797827,37.9049374 54.7931378,44.0894446 C50.9064929,50.274023 44.9582041,55.2188382 38.0619862,57.9827497 C33.8876983,59.6557465 29.2476959,60.5413627 24.8310507,59.6425772 C23.2238356,59.3156231 21.6761919,58.7598083 20.1557625,58.158435 C16.2178319,56.6008296 12.371187,54.6947009 9.17325678,51.9747108 C2.05968163,45.9244591 -1.12567718,36.0767567 0.355680737,26.9998486 C1.83703866,17.9229405 7.67954172,9.75820081 15.4794744,4.54594237 C16.8922608,3.601883 18.3706902,2.74502561 19.9299767,2.05203677 C25.7772655,-0.54665359 32.7307691,-0.68446832 38.6757008,1.68052072 C40.2401302,2.30282256 41.8495596,3.20872661 42.4737028,4.73429866 C43.0979174,6.25994189 42.0881312,8.42034439 40.3974874,8.37421632 C39.5007727,8.34972857 38.7481294,7.75547374 38.0063433,7.26657314 C32.7415548,3.79700189 25.422551,4.97782355 19.9361196,8.12122378 C10.4238289,13.5713123 4.67811157,24.6609846 5.84525504,35.3178502 Z M30.2561476,30.9058322 C30.8361709,31.5372946 31.5312697,32.189855 32.397632,32.2245467 C40.1108934,21.6429074 46.2116949,13.3324661 54.679131,3.31961047 C55.7954828,1.99960432 57.0085156,0.623193436 58.673689,0.0968517474 C58.9860817,-0.00187191855 59.347066,-0.0627668901 59.6271898,0.104786547 C60.0495728,0.357531434 60.0436715,0.955409336 59.9439143,1.43039011 C59.4468232,3.79520635 57.9399178,5.81704243 56.4718104,7.75627048 C53.8261408,11.2508422 51.1805339,14.7454139 48.5348643,18.2399857 C43.2740361,25.1889016 39.9989568,30.1591615 35.6374504,37.6820893 C34.8130878,39.1040177 33.7561258,40.7216096 32.0919568,40.8475207 C31.020367,40.928714 29.9983106,40.3206254 29.2895886,39.5289293 C28.5808038,38.7372946 28.1179277,37.7694951 27.5909534,36.8517649 C26.0249721,34.1241622 23.850905,31.7815511 21.5893854,29.5714942 C20.5059931,28.5127829 19.3320721,27.3522723 19.1612481,25.8624369 C18.9917424,24.3844113 20.0123549,22.8589615 21.4632606,22.4216249 C22.9141664,21.9842883 24.6333934,22.6839654 25.3411109,23.9997273 L30.2561476,30.9058322 Z" id="Combined-Shape"></path>
            </g>
        </g>
    </g>
</svg>