<?xml version="1.0" encoding="UTF-8"?>
<svg width="53px" height="60px" viewBox="0 0 53 60" version="1.1" xmlns="http://www.w3.org/2000/svg" xmlns:xlink="http://www.w3.org/1999/xlink">
    <!-- Generator: Sketch 51.2 (57519) - http://www.bohemiancoding.com/sketch -->
    <title>Page 1 Copy 8</title>
    <desc>Created with Sketch.</desc>
    <defs></defs>
    <g id="Master-design" stroke="none" stroke-width="1" fill="none" fill-rule="evenodd">
        <g id="Manage-Organizations-4.0" transform="translate(-696.000000, -525.000000)" fill="#007398">
            <g id="Group-2" transform="translate(523.000000, 490.000000)">
                <g id="Page-1-Copy-8" transform="translate(173.000000, 35.000000)">
                    <g id="Group-7">
                        <path d="M27.6539848,45.6047688 C27.5647059,45.4077398 27.2912713,45.5913993 27.113852,45.7092849 C26.9678368,45.8063844 26.7912713,45.8414183 26.6184061,45.8612285 C25.5011385,45.9898487 24.3350095,45.5370431 23.5791271,44.6809086 C22.9141366,43.9279241 22.587666,42.7529715 23.0893738,41.8763437 C23.1916509,41.6976612 23.3234345,41.5384961 23.4649905,41.3907487 C24.2528463,40.5686723 25.4809298,40.0927384 26.5272296,40.5106078 C26.9194497,40.667138 27.2597723,40.935113 27.5773245,41.2190924 C27.973814,41.5732372 28.3533207,41.9708083 28.5616698,42.46665 C28.7205882,42.8448013 28.7718216,43.2699897 28.7074953,43.6766365 C28.7024668,44.1362732 28.5216319,44.5915186 28.2122391,44.9234134 C28.0102467,45.1399599 27.7468691,45.3203014 27.6539848,45.6047688 Z M28.1534725,28.6559122 C28.0058444,29.9373326 27.8585958,31.2397343 28.0681784,32.511884 C28.2017647,33.3225427 28.4792789,34.1113418 28.5103036,34.9330279 C28.5413283,35.754714 28.2555598,36.6647167 27.551575,37.0543833 C26.8851613,37.4232638 26.0693169,37.2254541 25.3396205,37.0193494 C24.8414231,36.8787259 24.3074573,36.7139984 23.9920873,36.2932014 C23.8010057,36.0380103 23.7144782,35.717826 23.6458824,35.4035945 C22.7403795,31.257788 24.2237761,26.9175874 23.7089753,22.701518 C23.5928463,21.7501382 23.3903795,20.713955 23.8609677,19.8861209 C24.4217837,18.8995121 25.8150474,18.6527135 26.803093,19.1755869 C27.7910436,19.6984603 28.3868691,20.8047113 28.5916129,21.9280401 C28.7964516,23.0512713 28.666186,24.2071944 28.535351,25.3421361 C28.4081214,26.4467281 28.280797,27.5513201 28.1534725,28.6559122 Z" id="Combined-Shape"></path>
                        <path d="M47.1959772,48.4082114 C48.3093548,44.0745492 46.5832638,39.5538119 44.7805123,35.4727059 C41.6242505,28.3281355 38.1289943,21.3420472 34.3110626,14.5476205 C32.862296,11.9692632 31.3358254,9.37851233 29.1949336,7.37357875 C28.0321252,6.2846007 26.551575,5.34483383 24.9890512,5.52702955 C22.7085009,5.79305286 21.3539469,8.20736568 20.3664706,10.3384798 C18.3259583,14.7419171 16.2854459,19.1453543 14.2449336,23.5487915 C11.0690323,30.4022586 7.87425047,37.3086181 6.03136622,44.6604641 C5.67368121,46.0876801 5.3713093,47.6180461 5.83667932,49.0120824 C6.20091082,50.1031098 7.00337761,50.9873494 7.90157495,51.677878 C10.4158065,53.6109873 13.6577419,54.1937793 16.7817457,54.5102554 C25.6797533,55.4120607 34.7387666,54.6045248 43.3533776,52.1418086 C44.2095446,51.8969618 45.0886717,51.6212773 45.7668501,51.0303855 C46.5219734,50.3723535 46.9431309,49.3924782 47.1959772,48.4082114 M45.8134345,26.0518113 C46.8700759,28.3156443 47.926907,30.579575 48.9836433,32.843408 C50.7660911,36.6619062 52.5797533,40.5978997 52.8578368,44.8240206 C53.1359203,49.0501415 51.5195066,53.6915945 47.9020493,55.7157528 C46.890759,56.2815647 45.7760531,56.6196075 44.6644782,56.9275934 C35.8344972,59.3740125 26.5747249,60.16935 17.4725427,59.2627628 C11.9926565,58.7171515 6.25081594,57.3935733 2.2826945,53.4680217 C1.46827324,52.6622423 0.731461101,51.7369184 0.34199241,50.645891 C-0.306679317,48.8289108 0.0807969639,46.8081681 0.568747628,44.9386858 C3.57045541,33.4392768 10.0214042,23.2538824 14.4773814,12.2646603 C15.656129,9.35753104 16.7266224,6.33632204 18.653852,3.88843914 C20.5810816,1.44065384 23.6033776,-0.370568718 26.6252941,0.139911087 C28.9413283,0.531236649 30.8550854,2.18397723 32.4864896,3.91947194 C38.3781404,10.1864386 42.1449336,18.1929986 45.8134345,26.0518113" id="Fill-5"></path>
                    </g>
                </g>
            </g>
        </g>
    </g>
</svg>