<?xml version="1.0" encoding="UTF-8"?>
<svg width="21px" height="24px" viewBox="0 0 21 24" version="1.1" xmlns="http://www.w3.org/2000/svg" xmlns:xlink="http://www.w3.org/1999/xlink">
    <!-- Generator: Sketch 50.2 (55047) - http://www.bohemiancoding.com/sketch -->
    <title>Shape</title>
    <desc>Created with Sketch.</desc>
    <defs></defs>
    <g id="Master" stroke="none" stroke-width="1" fill="none" fill-rule="evenodd">
        <g id="Questions-1.2-Checkboxes" transform="translate(-1033.000000, -482.000000)" fill="#505256" fill-rule="nonzero">
            <path d="M1053.34098,485.090984 L1050.90902,482.659016 C1050.48706,482.237058 1049.91477,482.000003 1049.31803,482 L1041.25,482 C1040.00734,482 1039,483.007344 1039,484.25 L1039,486.5 L1035.25,486.5 C1034.00734,486.5 1033,487.507344 1033,488.75 L1033,503.75 C1033,504.992656 1034.00734,506 1035.25,506 L1045.75,506 C1046.99266,506 1048,504.992656 1048,503.75 L1048,501.5 L1051.75,501.5 C1052.99266,501.5 1054,500.492656 1054,499.25 L1054,486.681969 C1054,486.085233 1053.76294,485.512939 1053.34098,485.090984 Z M1049.5,483.523016 C1049.63188,483.555554 1049.75233,483.623556 1049.84833,483.719656 L1052.2803,486.151672 C1052.37639,486.247673 1052.44439,486.368129 1052.47694,486.5 L1049.5,486.5 L1049.5,483.523016 Z M1046.5,503.75 C1046.5,504.163531 1046.16353,504.5 1045.75,504.5 L1035.25,504.5 C1034.83647,504.5 1034.5,504.163531 1034.5,503.75 L1034.5,488.75 C1034.5,488.336469 1034.83647,488 1035.25,488 L1039,488 L1039,499.25 C1039,500.492656 1040.00734,501.5 1041.25,501.5 L1046.5,501.5 L1046.5,503.75 Z M1052.5,499.25 C1052.5,499.663531 1052.16353,500 1051.75,500 L1041.25,500 C1040.83647,500 1040.5,499.663531 1040.5,499.25 L1040.5,484.25 C1040.5,483.836469 1040.83647,483.5 1041.25,483.5 L1048,483.5 L1048,486.875 C1048,487.49375 1048.50625,488 1049.125,488 L1052.5,488 L1052.5,499.25 Z" id="Shape"></path>
        </g>
    </g>
</svg>