<?xml version="1.0" encoding="UTF-8"?>
<svg width="22px" height="20px" viewBox="0 0 22 20" version="1.1" xmlns="http://www.w3.org/2000/svg" xmlns:xlink="http://www.w3.org/1999/xlink">
    <!-- Generator: Sketch 50.2 (55047) - http://www.bohemiancoding.com/sketch -->
    <title>Fill 1 Copy 7</title>
    <desc>Created with Sketch.</desc>
    <defs></defs>
    <g id="Master" stroke="none" stroke-width="1" fill="none" fill-rule="evenodd">
        <g id="Questions-1.0" transform="translate(-186.000000, -268.000000)" fill="#5A5A5A">
            <path d="M207.764,273.796 C208.066,273.511 208.08,273.037 207.794,272.735 L203.544,268.235 C203.542,268.233 203.539,268.232 203.536,268.23 C203.4,268.09 203.211,268 203,268 C202.788,268 202.599,268.089 202.463,268.23 C202.46,268.232 202.457,268.233 202.455,268.235 L198.205,272.735 C197.92,273.037 197.934,273.511 198.235,273.796 C198.536,274.08 199.01,274.067 199.294,273.766 L202.25,270.637 L202.25,285.364 L199.294,282.236 C199.01,281.935 198.536,281.919 198.235,282.206 C197.934,282.49 197.92,282.964 198.205,283.265 L202.455,287.765 C202.457,287.767 202.46,287.768 202.462,287.77 C202.521,287.831 202.593,287.877 202.669,287.916 C202.682,287.922 202.692,287.934 202.705,287.94 C202.795,287.978 202.895,288 203,288 C203.104,288 203.203,287.978 203.294,287.94 C203.307,287.934 203.317,287.922 203.329,287.916 C203.406,287.877 203.478,287.831 203.537,287.77 C203.539,287.768 203.542,287.767 203.544,287.765 L207.794,283.265 C208.08,282.964 208.066,282.49 207.764,282.206 C207.463,281.919 206.989,281.935 206.705,282.236 L203.75,285.364 L203.75,270.637 L206.705,273.766 C206.852,273.922 207.05,274 207.25,274 C207.434,274 207.619,273.933 207.764,273.796 M196,282.75 C196,282.336 195.664,282 195.25,282 L186.75,282 C186.335,282 186,282.336 186,282.75 C186,283.164 186.335,283.5 186.75,283.5 L195.25,283.5 C195.664,283.5 196,283.164 196,282.75 M196,278 C196,277.586 195.664,277.25 195.25,277.25 L186.75,277.25 C186.335,277.25 186,277.586 186,278 C186,278.414 186.335,278.75 186.75,278.75 L195.25,278.75 C195.664,278.75 196,278.414 196,278 M196,273.25 C196,272.836 195.664,272.5 195.25,272.5 L186.75,272.5 C186.335,272.5 186,272.836 186,273.25 C186,273.665 186.335,274 186.75,274 L195.25,274 C195.664,274 196,273.665 196,273.25" id="Fill-1-Copy-7"></path>
        </g>
    </g>
</svg>