<?xml version="1.0" encoding="UTF-8"?>
<svg width="16px" height="16px" viewBox="0 0 16 16" version="1.1" xmlns="http://www.w3.org/2000/svg" xmlns:xlink="http://www.w3.org/1999/xlink">
    <!-- Generator: Sketch 50.2 (55047) - http://www.bohemiancoding.com/sketch -->
    <title>Shape Copy 4</title>
    <desc>Created with Sketch.</desc>
    <defs></defs>
    <g id="Master" stroke="none" stroke-width="1" fill="none" fill-rule="evenodd">
        <g id="Keyword-1.0-Null" transform="translate(-858.000000, -324.000000)" fill="#007398" fill-rule="nonzero">
            <path d="M865.2,336.8 L866.8,336.8 L866.8,335.2 L865.2,335.2 L865.2,336.8 Z M866,324 C861.584,324 858,327.584 858,332 C858,336.416 861.584,340 866,340 C870.416,340 874,336.416 874,332 C874,327.584 870.416,324 866,324 Z M866,338.4 C862.472,338.4 859.6,335.528 859.6,332 C859.6,328.472 862.472,325.6 866,325.6 C869.528,325.6 872.4,328.472 872.4,332 C872.4,335.528 869.528,338.4 866,338.4 Z M866,327.2 C864.232,327.2 862.8,328.632 862.8,330.4 L864.4,330.4 C864.4,329.52 865.12,328.8 866,328.8 C866.88,328.8 867.6,329.52 867.6,330.4 C867.6,332 865.2,331.8 865.2,334.4 L866.8,334.4 C866.8,332.6 869.2,332.4 869.2,330.4 C869.2,328.632 867.768,327.2 866,327.2 Z" id="Shape-Copy-4"></path>
        </g>
    </g>
</svg>