<?xml version="1.0" encoding="UTF-8"?>
<svg width="20px" height="20px" viewBox="0 0 20 20" version="1.1" xmlns="http://www.w3.org/2000/svg" xmlns:xlink="http://www.w3.org/1999/xlink">
    <!-- Generator: Sketch 51.2 (57519) - http://www.bohemiancoding.com/sketch -->
    <title>Shape</title>
    <desc>Created with Sketch.</desc>
    <defs></defs>
    <g id="Master-design" stroke="none" stroke-width="1" fill="none" fill-rule="evenodd">
        <g id="Manage-Organizations-2.0" transform="translate(-1043.000000, -592.000000)" fill="#007398" fill-rule="nonzero">
            <path d="M1062.23019,594.192403 L1060.76859,592.730804 C1059.79421,591.756418 1058.2144,591.756379 1057.23994,592.730804 L1043.50049,606.470219 L1043.00587,610.921837 C1042.93967,611.517783 1043.44329,612.021369 1044.03916,611.955132 L1048.49078,611.460512 L1062.23023,597.721058 C1063.20458,596.746633 1063.20458,595.166788 1062.23019,594.192403 Z M1049.42049,605.540434 C1049.66411,605.784059 1050.05904,605.78402 1050.30263,605.540434 L1057.34696,598.496145 L1058.51885,599.668036 L1049.7836,608.40328 L1049.7836,607.048699 L1047.91226,607.048699 L1047.91226,605.177354 L1046.55768,605.177354 L1055.29292,596.44211 L1056.46481,597.614001 L1049.42049,604.658328 C1049.17686,604.901915 1049.17686,605.296847 1049.42049,605.540434 Z M1047.91799,610.268894 L1045.61799,610.524449 L1044.43651,609.342968 L1044.69206,607.042968 L1045.46606,606.268972 L1046.82064,606.268972 L1046.82064,608.140317 L1048.69199,608.140317 L1048.69199,609.494898 L1047.91799,610.268894 Z M1061.34801,596.838874 L1059.40099,598.785892 L1056.17507,595.559966 L1058.12208,593.612948 C1058.60961,593.125424 1059.39881,593.125346 1059.88641,593.612948 L1061.34801,595.074547 C1061.83557,595.56211 1061.83561,596.351233 1061.34801,596.838874 Z" id="Shape"></path>
        </g>
    </g>
</svg>