<?xml version="1.0" encoding="UTF-8"?>
<svg width="20px" height="20px" viewBox="0 0 20 20" version="1.1" xmlns="http://www.w3.org/2000/svg" xmlns:xlink="http://www.w3.org/1999/xlink">
    <!-- Generator: Sketch 51.2 (57519) - http://www.bohemiancoding.com/sketch -->
    <title>Shape</title>
    <desc>Created with Sketch.</desc>
    <defs></defs>
    <g id="Master-design" stroke="none" stroke-width="1" fill="none" fill-rule="evenodd">
        <g id="Manage-Organizations-2.0" transform="translate(-1006.000000, -594.000000)" fill="#007398" fill-rule="nonzero">
            <path d="M1021.16129,603.758065 L1021.16129,604.241935 C1021.16129,604.508065 1020.94355,604.725806 1020.67742,604.725806 L1016.72581,604.725806 L1016.72581,608.677419 C1016.72581,608.943548 1016.50806,609.16129 1016.24194,609.16129 L1015.75806,609.16129 C1015.49194,609.16129 1015.27419,608.943548 1015.27419,608.677419 L1015.27419,604.725806 L1011.32258,604.725806 C1011.05645,604.725806 1010.83871,604.508065 1010.83871,604.241935 L1010.83871,603.758065 C1010.83871,603.491935 1011.05645,603.274194 1011.32258,603.274194 L1015.27419,603.274194 L1015.27419,599.322581 C1015.27419,599.056452 1015.49194,598.83871 1015.75806,598.83871 L1016.24194,598.83871 C1016.50806,598.83871 1016.72581,599.056452 1016.72581,599.322581 L1016.72581,603.274194 L1020.67742,603.274194 C1020.94355,603.274194 1021.16129,603.491935 1021.16129,603.758065 Z M1026,604 C1026,609.524194 1021.52419,614 1016,614 C1010.47581,614 1006,609.524194 1006,604 C1006,598.475806 1010.47581,594 1016,594 C1021.52419,594 1026,598.475806 1026,604 Z M1024.70968,604 C1024.70968,599.165323 1020.78629,595.290323 1016,595.290323 C1011.16532,595.290323 1007.29032,599.21371 1007.29032,604 C1007.29032,608.834677 1011.21371,612.709677 1016,612.709677 C1020.83468,612.709677 1024.70968,608.78629 1024.70968,604 Z" id="Shape"></path>
        </g>
    </g>
</svg>