<?xml version="1.0" encoding="UTF-8"?>
<svg width="14px" height="20px" viewBox="0 0 14 20" version="1.1" xmlns="http://www.w3.org/2000/svg" xmlns:xlink="http://www.w3.org/1999/xlink">
    <!-- Generator: Sketch 50.2 (55047) - http://www.bohemiancoding.com/sketch -->
    <title>Fill 1</title>
    <desc>Created with Sketch.</desc>
    <defs></defs>
    <g id="Master" stroke="none" stroke-width="1" fill="none" fill-rule="evenodd">
        <g id="Survey-Responses-1.2-Multi-Select" transform="translate(-818.000000, -265.000000)" fill="#FFFFFF">
            <path d="M832,284.25 C832,283.836 831.67525,283.5 831.275112,283.5 C829.724819,283.5 828.285675,282.851 827.223473,281.672 C826.948982,281.368 826.491819,281.352 826.198964,281.635 C825.90611,281.918 825.890645,282.393 826.163203,282.695 C827.483466,284.16 829.346911,285 831.275112,285 C831.67525,285 832,284.664 832,284.25 M829.619468,270.523 C829.902658,270.231 829.902658,269.755 829.619468,269.462 L825.519503,265.219 C825.384191,265.079 825.199586,265 825.007249,265 C824.814912,265 824.630307,265.079 824.494995,265.219 L820.394063,269.462 C820.110873,269.755 820.110873,270.23 820.394063,270.523 C820.535174,270.669 820.720746,270.743 820.906317,270.743 C821.091888,270.743 821.277459,270.669 821.418571,270.523 L824.282361,267.561 L824.282361,277.708 C824.282361,280.901 821.788747,283.5 818.724888,283.5 C818.32475,283.5 818,283.836 818,284.25 C818,284.664 818.32475,285 818.724888,285 C822.588057,285 825.732137,281.729 825.732137,277.708 L825.732137,267.56 L828.59496,270.523 C828.87815,270.816 829.336279,270.816 829.619468,270.523" id="Fill-1"></path>
        </g>
    </g>
</svg>