<?xml version="1.0" encoding="UTF-8"?>
<svg width="24px" height="20px" viewBox="0 0 24 20" version="1.1" xmlns="http://www.w3.org/2000/svg" xmlns:xlink="http://www.w3.org/1999/xlink">
    <!-- Generator: Sketch 50.2 (55047) - http://www.bohemiancoding.com/sketch -->
    <title>Message Copy 9</title>
    <desc>Created with Sketch.</desc>
    <defs></defs>
    <g id="Master" stroke="none" stroke-width="1" fill="none" fill-rule="evenodd">
        <g id="Survey-Responses-1.2-Multi-Select" transform="translate(-904.000000, -267.000000)" fill="#FFFFFF">
            <path d="M928,282.253 L928,267.75 C928,267.336 927.664,267 927.25,267 L904.75,267 C904.336,267 904,267.336 904,267.75 L904,282.241 C904,282.655 904.336,282.991 904.75,282.991 L908.5,282.991 L908.5,286.251 C908.5,286.539 908.665,286.801 908.924,286.926 C909.028,286.976 909.139,287 909.25,287 C909.417,287 909.582,286.945 909.717,286.837 L914.512,283.027 L927.251,283.003 C927.665,283.002 928,282.667 928,282.253 L928,282.253 Z M926.5,281.504 L914.249,281.529 C914.079,281.529 913.916,281.586 913.783,281.692 L910,284.697 L910,282.241 C910,281.828 909.664,281.492 909.25,281.492 L905.5,281.492 L905.5,268.499 L926.5,268.499 L926.5,281.504 Z M914.5,274.996 C914.5,275.823 915.172,276.495 916,276.495 C916.828,276.495 917.5,275.823 917.5,274.996 C917.5,274.168 916.828,273.497 916,273.497 C915.172,273.497 914.5,274.168 914.5,274.996 L914.5,274.996 Z M919,274.996 C919,275.823 919.672,276.495 920.5,276.495 C921.328,276.495 922,275.823 922,274.996 C922,274.168 921.328,273.497 920.5,273.497 C919.672,273.497 919,274.168 919,274.996 L919,274.996 Z M913,274.996 C913,274.168 912.328,273.497 911.5,273.497 C910.672,273.497 910,274.168 910,274.996 C910,275.823 910.672,276.495 911.5,276.495 C912.328,276.495 913,275.823 913,274.996 L913,274.996 Z" id="Message-Copy-9"></path>
        </g>
    </g>
</svg>