<?xml version="1.0" encoding="UTF-8"?>
<svg width="16px" height="16px" viewBox="0 0 16 16" version="1.1" xmlns="http://www.w3.org/2000/svg" xmlns:xlink="http://www.w3.org/1999/xlink">
    <!-- Generator: Sketch 50.2 (55047) - http://www.bohemiancoding.com/sketch -->
    <title>Fill 1</title>
    <desc>Created with Sketch.</desc>
    <defs></defs>
    <g id="Master" stroke="none" stroke-width="1" fill="none" fill-rule="evenodd">
        <g id="Survey-Responses-1.2-Multi-Select" transform="translate(-778.000000, -268.000000)" fill="#FFFFFF">
            <path d="M794,272.768809 C794,272.569806 793.920999,272.378804 793.779997,272.237802 L789.755948,268.210753 C789.474944,267.929749 788.976938,267.929749 788.694935,268.210753 L779.061816,277.831871 C778.952814,277.941873 778.879813,278.081874 778.852813,278.234876 L778.010803,283.121937 C777.969802,283.36194 778.046803,283.608943 778.219805,283.780945 C778.360807,283.921946 778.552809,283.999947 778.749812,283.999947 C778.791812,283.999947 778.834813,283.995947 778.877813,283.989947 L783.762874,283.146937 C783.915876,283.120937 784.055877,283.047936 784.165879,282.937934 L793.779997,273.299815 C793.920999,273.158814 794,272.967811 794,272.768809 L794,272.768809 Z M786.868912,272.142801 L787.829924,273.103813 L781.743849,279.193888 C781.450845,279.486892 781.450845,279.961898 781.743849,280.254901 C781.889851,280.401903 782.081853,280.474904 782.273855,280.474904 C782.465858,280.474904 782.65786,280.401903 782.803862,280.254901 L788.889937,274.165826 L789.850949,275.126838 L783.272868,281.708919 L779.669823,282.329927 L780.290831,278.724882 L786.868912,272.142801 Z M792.188978,272.768809 L790.901962,274.055825 L787.938925,271.090788 L789.225941,269.803772 L792.188978,272.768809 Z" id="Fill-1"></path>
        </g>
    </g>
</svg>