<?xml version="1.0" encoding="UTF-8"?>
<svg width="6px" height="12px" viewBox="0 0 6 12" version="1.1" xmlns="http://www.w3.org/2000/svg" xmlns:xlink="http://www.w3.org/1999/xlink">
    <!-- Generator: Sketch 50.2 (55047) - http://www.bohemiancoding.com/sketch -->
    <title>rightArrowIcon</title>
    <desc>Created with Sketch.</desc>
    <defs></defs>
    <g id="Symbols" stroke="none" stroke-width="1" fill="none" fill-rule="evenodd">
        <g id="Header---Awesome-Survey" transform="translate(-233.000000, -68.000000)" fill="#A0A2A6">
            <g id="Group-2">
                <g id="Nav">
                    <path d="M241.304209,75.4774802 C241.520448,75.6374747 241.749011,75.7938459 241.896425,76.0121386 C242.043882,76.2303499 242.091356,76.5312454 241.931488,76.7416402 C241.750747,76.9795557 241.369562,77.0129795 241.084108,76.896098 C240.798654,76.7792572 240.586625,76.5494433 240.384793,76.3269166 C239.629542,75.4942531 237.656272,74.283791 236.73052,73.5033191 C236.552296,73.3068475 236.343521,73.0952314 236.069133,73.0781328 C235.806895,73.0617669 235.576857,73.2295372 235.37624,73.3888396 C234.122985,74.3841845 232.901581,75.4147851 231.714243,76.4789317 C231.457603,76.7089492 231.182867,76.9506508 230.835184,77.0179869 C230.487545,77.0852823 230.057932,76.8910498 230.032502,76.5588475 C230.013365,76.3084338 230.217062,76.097184 230.407741,75.9209865 C231.559105,74.8571249 232.758984,73.8395111 234.00304,72.8718905 C234.505384,72.4811457 235.0378,72.0690683 235.257424,71.4926403 C235.425494,71.0514952 236.05542,70.8310448 236.490371,71.0611437 C236.824948,71.238074 236.99176,71.5949065 237.157747,71.9198215 C238.131841,73.0934808 240.139002,74.6156269 241.304209,75.4774802" id="rightArrowIcon" transform="translate(236.031250, 74.000000) scale(1, -1) rotate(90.000000) translate(-236.031250, -74.000000) "></path>
                </g>
            </g>
        </g>
    </g>
</svg>