<?xml version="1.0" encoding="UTF-8"?>
<svg width="16px" height="17px" viewBox="0 0 16 17" version="1.1" xmlns="http://www.w3.org/2000/svg" xmlns:xlink="http://www.w3.org/1999/xlink">
    <!-- Generator: sketchtool 50.2 (55047) - http://www.bohemiancoding.com/sketch -->
    <title>76ED5C3C-A247-41C2-A575-87496237B1D7</title>
    <desc>Created with sketchtool.</desc>
    <defs></defs>
    <g id="Master-Design" stroke="none" stroke-width="1" fill="none" fill-rule="evenodd">
        <g id="Signatures-1.0" transform="translate(-1237.000000, -214.000000)" fill="#FFFFFF">
            <path d="M1247.4852,219.564387 C1247.39924,218.626592 1247.1004,217.688729 1246.50317,216.947561 C1245.90595,216.206325 1244.98689,215.683212 1244.01842,215.673707 C1243.37767,215.667405 1242.75808,215.877386 1242.15385,216.084744 C1241.57887,216.282053 1240.99254,216.485323 1240.5127,216.851087 C1239.96092,217.271662 1239.58814,217.88212 1239.3515,218.523782 C1239.11489,219.165444 1239.00405,219.843317 1238.89441,220.516558 C1238.82376,220.950487 1238.75287,221.387619 1238.76853,221.826692 C1238.80112,222.739278 1239.21879,223.623216 1239.86648,224.284568 C1240.51421,224.945886 1241.38112,225.388876 1242.29671,225.592896 C1243.43268,225.846004 1244.7752,225.67261 1245.50849,224.792011 C1245.71871,224.539584 1245.86677,224.244166 1246.05835,223.978044 C1246.24372,223.720542 1246.47006,223.490939 1246.72678,223.29983 C1247.3362,222.158015 1247.60263,220.845667 1247.4852,219.564387 M1248.31217,224.250161 C1248.11155,224.660176 1248.48167,225.106574 1248.82134,225.418173 C1250.06075,226.554912 1251.30014,227.691617 1252.53952,228.828356 C1252.77276,229.042288 1253.02514,229.302108 1252.99749,229.612617 C1252.96423,229.985568 1252.51418,230.212889 1252.13316,230.158724 C1251.75211,230.10456 1251.43473,229.856016 1251.14171,229.613162 C1250.24662,228.871415 1249.38233,228.094546 1248.55162,227.285145 C1248.12469,226.869168 1247.64419,226.416094 1247.04027,226.392248 C1246.10229,226.355184 1245.3083,227.048728 1244.40231,227.189829 C1242.65362,227.692536 1240.65294,227.26416 1239.28327,226.093832 C1238.7125,225.606113 1238.25415,225.008294 1237.8144,224.405808 C1237.58427,224.090529 1237.3559,223.768915 1237.2109,223.408942 C1236.9129,222.669307 1236.9929,221.843486 1237.07746,221.053366 C1237.14817,220.392525 1237.21994,219.726472 1237.4241,219.092407 C1237.64378,218.41007 1238.01081,217.782954 1238.37508,217.161834 C1238.74274,216.535059 1239.13248,215.884778 1239.75263,215.48839 C1240.03514,215.307773 1240.3535,215.188407 1240.66906,215.070437 C1241.2057,214.86979 1241.74234,214.669177 1242.27898,214.46853 C1242.80045,214.273572 1243.13931,214.000024 1243.8807,214.001489 C1245.46364,213.967492 1246.86758,214.515745 1247.81411,215.634191 C1248.76061,216.752603 1249.19142,218.219439 1249.26109,219.666108 C1249.33681,221.238786 1249.00773,222.82836 1248.31217,224.250161" id="searchIcon"></path>
        </g>
    </g>
</svg>