<?xml version="1.0" encoding="UTF-8"?>
<svg width="16px" height="20px" viewBox="0 0 16 20" version="1.1" xmlns="http://www.w3.org/2000/svg" xmlns:xlink="http://www.w3.org/1999/xlink">
    <!-- Generator: Sketch 50.2 (55047) - http://www.bohemiancoding.com/sketch -->
    <title>Fill 1</title>
    <desc>Created with Sketch.</desc>
    <defs></defs>
    <g id="Master" stroke="none" stroke-width="1" fill="none" fill-rule="evenodd">
        <g id="Survey-Responses-1.2-Multi-Select" transform="translate(-952.000000, -265.000000)" fill="#FFFFFF">
            <path d="M968,284.249 L967.993,275 C967.993,274.586 967.657,274.25 967.243,274.25 L964.25,274.25 C963.836,274.25 963.5,274.586 963.5,275 C963.5,275.414 963.836,275.75 964.25,275.75 L966.494,275.75 L966.499,283.5 L953.5,283.5 L953.5,275.75 L955.75,275.75 C956.164,275.75 956.5,275.414 956.5,275 C956.5,274.586 956.164,274.25 955.75,274.25 L952.75,274.25 C952.336,274.25 952,274.586 952,275 L952,284.25 C952,284.664 952.336,285 952.75,285 L967.25,285 C967.449,285 967.639,284.921 967.78,284.78 C967.921,284.64 968,284.448 968,284.249 M964.772,270.523 C965.065,270.231 965.065,269.756 964.772,269.463 L960.531,265.219 C960.39,265.079 960.2,265 960,265 C959.802,265 959.611,265.079 959.47,265.219 L955.227,269.463 C954.934,269.756 954.934,270.23 955.227,270.523 C955.374,270.67 955.565,270.743 955.757,270.743 C955.949,270.743 956.141,270.67 956.288,270.523 L959.25,267.561 L959.25,278.125 C959.25,278.539 959.586,278.875 960,278.875 C960.414,278.875 960.75,278.539 960.75,278.125 L960.75,267.56 L963.712,270.523 C964.005,270.816 964.479,270.816 964.772,270.523" id="Fill-1"></path>
        </g>
    </g>
</svg>