<?xml version="1.0" encoding="UTF-8"?>
<svg width="20px" height="20px" viewBox="0 0 20 20" version="1.1" xmlns="http://www.w3.org/2000/svg" xmlns:xlink="http://www.w3.org/1999/xlink">
    <!-- Generator: Sketch 50.2 (55047) - http://www.bohemiancoding.com/sketch -->
    <title>Fill 1</title>
    <desc>Created with Sketch.</desc>
    <defs></defs>
    <g id="Master" stroke="none" stroke-width="1" fill="none" fill-rule="evenodd">
        <g id="Survey-Responses-1.2-Multi-Select" transform="translate(-946.000000, -267.000000)" fill="#FFFFFF">
            <path d="M965.5859,276.329099 L947.0859,267.079099 C946.8099,266.941099 946.4759,266.986099 946.2459,267.195099 C946.0169,267.403099 945.9389,267.730099 946.0499,268.019099 L949.5049,277.000099 L946.0499,285.980099 C945.9389,286.269099 946.0169,286.598099 946.2459,286.806099 C946.3869,286.933099 946.5679,287.000099 946.7509,287.000099 C946.8649,287.000099 946.9799,286.974099 947.0859,286.921099 L965.5859,277.671099 C965.8409,277.544099 966.0009,277.284099 966.0009,277.000099 C966.0009,276.716099 965.8409,276.456099 965.5859,276.329099 Z M948.1449,269.286099 L962.0739,276.250099 L950.8239,276.250099 L948.1449,269.286099 Z M950.8239,277.750099 L962.0739,277.750099 L948.1449,284.715099 L950.8239,277.750099 Z" id="Fill-1"></path>
        </g>
    </g>
</svg>